%TF.GenerationSoftware,KiCad,Pcbnew,(5.99.0-13086-gffd1139cfe)*%
%TF.CreationDate,2021-11-22T18:43:28+08:00*%
%TF.ProjectId,Farini_EURO,46617269-6e69-45f4-9555-524f2e6b6963,rev?*%
%TF.SameCoordinates,Original*%
%TF.FileFunction,Legend,Bot*%
%TF.FilePolarity,Positive*%
%FSLAX46Y46*%
G04 Gerber Fmt 4.6, Leading zero omitted, Abs format (unit mm)*
G04 Created by KiCad (PCBNEW (5.99.0-13086-gffd1139cfe)) date 2021-11-22 18:43:28*
%MOMM*%
%LPD*%
G01*
G04 APERTURE LIST*
%TA.AperFunction,Profile*%
%ADD10C,0.150000*%
%TD*%
%ADD11C,0.250000*%
%ADD12C,0.150000*%
%ADD13C,0.100000*%
%ADD14C,0.125000*%
%ADD15C,0.120000*%
G04 APERTURE END LIST*
D10*
X47205489Y-140455901D02*
X106135489Y-140455901D01*
X47205489Y-48154626D02*
X47205489Y-140455901D01*
X106135489Y-48154626D02*
X47205489Y-48154626D01*
X106135489Y-140455901D02*
X106135489Y-48154626D01*
D11*
X99429298Y-90477869D02*
X98857869Y-90477869D01*
X99143584Y-91477869D02*
X99143584Y-90477869D01*
X98524536Y-91477869D02*
X98524536Y-90477869D01*
X98524536Y-90954060D02*
X97953108Y-90954060D01*
X97953108Y-91477869D02*
X97953108Y-90477869D01*
X97476917Y-91477869D02*
X97476917Y-90477869D01*
X97048346Y-91430250D02*
X96905489Y-91477869D01*
X96667393Y-91477869D01*
X96572155Y-91430250D01*
X96524536Y-91382631D01*
X96476917Y-91287393D01*
X96476917Y-91192155D01*
X96524536Y-91096917D01*
X96572155Y-91049298D01*
X96667393Y-91001679D01*
X96857869Y-90954060D01*
X96953108Y-90906441D01*
X97000727Y-90858822D01*
X97048346Y-90763584D01*
X97048346Y-90668346D01*
X97000727Y-90573108D01*
X96953108Y-90525489D01*
X96857869Y-90477869D01*
X96619774Y-90477869D01*
X96476917Y-90525489D01*
X99191203Y-92087869D02*
X98953108Y-93087869D01*
X98762631Y-92373584D01*
X98572155Y-93087869D01*
X98334060Y-92087869D01*
X98000727Y-92802155D02*
X97524536Y-92802155D01*
X98095965Y-93087869D02*
X97762631Y-92087869D01*
X97429298Y-93087869D01*
X96905489Y-92611679D02*
X96905489Y-93087869D01*
X97238822Y-92087869D02*
X96905489Y-92611679D01*
X96572155Y-92087869D01*
X98691203Y-93697869D02*
X98691203Y-94507393D01*
X98643584Y-94602631D01*
X98595965Y-94650250D01*
X98500727Y-94697869D01*
X98310250Y-94697869D01*
X98215012Y-94650250D01*
X98167393Y-94602631D01*
X98119774Y-94507393D01*
X98119774Y-93697869D01*
X97643584Y-94697869D02*
X97643584Y-93697869D01*
X97262631Y-93697869D01*
X97167393Y-93745489D01*
X97119774Y-93793108D01*
X97072155Y-93888346D01*
X97072155Y-94031203D01*
X97119774Y-94126441D01*
X97167393Y-94174060D01*
X97262631Y-94221679D01*
X97643584Y-94221679D01*
D12*
%TO.C,C1*%
X92513346Y-131782868D02*
X92549060Y-131747153D01*
X92584774Y-131640010D01*
X92584774Y-131568582D01*
X92549060Y-131461439D01*
X92477631Y-131390010D01*
X92406203Y-131354296D01*
X92263346Y-131318582D01*
X92156203Y-131318582D01*
X92013346Y-131354296D01*
X91941917Y-131390010D01*
X91870489Y-131461439D01*
X91834774Y-131568582D01*
X91834774Y-131640010D01*
X91870489Y-131747153D01*
X91906203Y-131782868D01*
X92584774Y-132497153D02*
X92584774Y-132068582D01*
X92584774Y-132282868D02*
X91834774Y-132282868D01*
X91941917Y-132211439D01*
X92013346Y-132140010D01*
X92049060Y-132068582D01*
X94789475Y-133584336D02*
X94642895Y-133181610D01*
X94716185Y-133382973D02*
X94011416Y-133639488D01*
X94087667Y-133535722D01*
X94130358Y-133444171D01*
X94139488Y-133364835D01*
X94243501Y-134277137D02*
X94267931Y-134344258D01*
X94325921Y-134399164D01*
X94371697Y-134420509D01*
X94451033Y-134429639D01*
X94597489Y-134414340D01*
X94765292Y-134353265D01*
X94887318Y-134270844D01*
X94942224Y-134212854D01*
X94963570Y-134167078D01*
X94972700Y-134087743D01*
X94948270Y-134020622D01*
X94890280Y-133965716D01*
X94844504Y-133944370D01*
X94765168Y-133935240D01*
X94618712Y-133950539D01*
X94450909Y-134011614D01*
X94328883Y-134094035D01*
X94273977Y-134152025D01*
X94252631Y-134197801D01*
X94243501Y-134277137D01*
X94783799Y-135030643D02*
X95253645Y-134859633D01*
X94673864Y-134728599D02*
X95043029Y-134594234D01*
X95122365Y-134603364D01*
X95180355Y-134658270D01*
X95217000Y-134758952D01*
X95207870Y-134838287D01*
X95186524Y-134884063D01*
X95092135Y-135564526D02*
X95006630Y-135329603D01*
X95375795Y-135195237D02*
X94671026Y-135451753D01*
X94793176Y-135787357D01*
%TO.C,C2*%
X65863346Y-138730489D02*
X65899060Y-138694774D01*
X65934774Y-138587631D01*
X65934774Y-138516203D01*
X65899060Y-138409060D01*
X65827631Y-138337631D01*
X65756203Y-138301917D01*
X65613346Y-138266203D01*
X65506203Y-138266203D01*
X65363346Y-138301917D01*
X65291917Y-138337631D01*
X65220489Y-138409060D01*
X65184774Y-138516203D01*
X65184774Y-138587631D01*
X65220489Y-138694774D01*
X65256203Y-138730489D01*
X65256203Y-139016203D02*
X65220489Y-139051917D01*
X65184774Y-139123346D01*
X65184774Y-139301917D01*
X65220489Y-139373346D01*
X65256203Y-139409060D01*
X65327631Y-139444774D01*
X65399060Y-139444774D01*
X65506203Y-139409060D01*
X65934774Y-138980489D01*
X65934774Y-139444774D01*
X64369218Y-131539873D02*
X63998064Y-131325587D01*
X64183641Y-131432730D02*
X63808641Y-132082249D01*
X63800354Y-131953746D01*
X63774209Y-131856173D01*
X63730207Y-131789529D01*
X64396301Y-132421535D02*
X64458160Y-132457249D01*
X64537876Y-132462034D01*
X64586663Y-132448961D01*
X64653307Y-132404960D01*
X64755665Y-132299099D01*
X64844951Y-132144451D01*
X64885450Y-132002876D01*
X64890234Y-131923160D01*
X64877162Y-131874374D01*
X64833160Y-131807730D01*
X64771301Y-131772016D01*
X64691585Y-131767231D01*
X64642799Y-131780303D01*
X64576155Y-131824305D01*
X64473797Y-131930166D01*
X64384511Y-132084813D01*
X64344012Y-132226388D01*
X64339227Y-132306104D01*
X64352299Y-132354891D01*
X64396301Y-132421535D01*
X65294538Y-132651457D02*
X65544538Y-132218444D01*
X65016173Y-132490743D02*
X65212602Y-132150518D01*
X65279245Y-132106517D01*
X65358961Y-132111301D01*
X65451750Y-132164873D01*
X65495752Y-132231517D01*
X65508824Y-132280303D01*
X65873911Y-132862240D02*
X65657404Y-132737240D01*
X65853833Y-132397016D02*
X65478833Y-133046535D01*
X65788128Y-133225106D01*
D13*
%TO.C,C3*%
X96322155Y-74688657D02*
X96341203Y-74707704D01*
X96398346Y-74726752D01*
X96436441Y-74726752D01*
X96493584Y-74707704D01*
X96531679Y-74669609D01*
X96550727Y-74631514D01*
X96569774Y-74555323D01*
X96569774Y-74498180D01*
X96550727Y-74421990D01*
X96531679Y-74383895D01*
X96493584Y-74345800D01*
X96436441Y-74326752D01*
X96398346Y-74326752D01*
X96341203Y-74345800D01*
X96322155Y-74364847D01*
X96188822Y-74326752D02*
X95941203Y-74326752D01*
X96074536Y-74479133D01*
X96017393Y-74479133D01*
X95979298Y-74498180D01*
X95960250Y-74517228D01*
X95941203Y-74555323D01*
X95941203Y-74650561D01*
X95960250Y-74688657D01*
X95979298Y-74707704D01*
X96017393Y-74726752D01*
X96131679Y-74726752D01*
X96169774Y-74707704D01*
X96188822Y-74688657D01*
D12*
%TO.C,C4*%
X69948346Y-110799429D02*
X69984060Y-110763714D01*
X70019774Y-110656571D01*
X70019774Y-110585143D01*
X69984060Y-110478000D01*
X69912631Y-110406571D01*
X69841203Y-110370857D01*
X69698346Y-110335143D01*
X69591203Y-110335143D01*
X69448346Y-110370857D01*
X69376917Y-110406571D01*
X69305489Y-110478000D01*
X69269774Y-110585143D01*
X69269774Y-110656571D01*
X69305489Y-110763714D01*
X69341203Y-110799429D01*
X69519774Y-111442286D02*
X70019774Y-111442286D01*
X69234060Y-111263714D02*
X69769774Y-111085143D01*
X69769774Y-111549429D01*
%TO.C,C5*%
X59020489Y-97653346D02*
X59056203Y-97689060D01*
X59163346Y-97724774D01*
X59234774Y-97724774D01*
X59341917Y-97689060D01*
X59413346Y-97617631D01*
X59449060Y-97546203D01*
X59484774Y-97403346D01*
X59484774Y-97296203D01*
X59449060Y-97153346D01*
X59413346Y-97081917D01*
X59341917Y-97010489D01*
X59234774Y-96974774D01*
X59163346Y-96974774D01*
X59056203Y-97010489D01*
X59020489Y-97046203D01*
X58341917Y-96974774D02*
X58699060Y-96974774D01*
X58734774Y-97331917D01*
X58699060Y-97296203D01*
X58627631Y-97260489D01*
X58449060Y-97260489D01*
X58377631Y-97296203D01*
X58341917Y-97331917D01*
X58306203Y-97403346D01*
X58306203Y-97581917D01*
X58341917Y-97653346D01*
X58377631Y-97689060D01*
X58449060Y-97724774D01*
X58627631Y-97724774D01*
X58699060Y-97689060D01*
X58734774Y-97653346D01*
%TO.C,C6*%
X80783346Y-74190800D02*
X80819060Y-74155085D01*
X80854774Y-74047942D01*
X80854774Y-73976514D01*
X80819060Y-73869371D01*
X80747631Y-73797942D01*
X80676203Y-73762228D01*
X80533346Y-73726514D01*
X80426203Y-73726514D01*
X80283346Y-73762228D01*
X80211917Y-73797942D01*
X80140489Y-73869371D01*
X80104774Y-73976514D01*
X80104774Y-74047942D01*
X80140489Y-74155085D01*
X80176203Y-74190800D01*
X80104774Y-74833657D02*
X80104774Y-74690800D01*
X80140489Y-74619371D01*
X80176203Y-74583657D01*
X80283346Y-74512228D01*
X80426203Y-74476514D01*
X80711917Y-74476514D01*
X80783346Y-74512228D01*
X80819060Y-74547942D01*
X80854774Y-74619371D01*
X80854774Y-74762228D01*
X80819060Y-74833657D01*
X80783346Y-74869371D01*
X80711917Y-74905085D01*
X80533346Y-74905085D01*
X80461917Y-74869371D01*
X80426203Y-74833657D01*
X80390489Y-74762228D01*
X80390489Y-74619371D01*
X80426203Y-74547942D01*
X80461917Y-74512228D01*
X80533346Y-74476514D01*
%TO.C,C7*%
X54245489Y-108792286D02*
X54281203Y-108828000D01*
X54388346Y-108863714D01*
X54459774Y-108863714D01*
X54566917Y-108828000D01*
X54638346Y-108756571D01*
X54674060Y-108685143D01*
X54709774Y-108542286D01*
X54709774Y-108435143D01*
X54674060Y-108292286D01*
X54638346Y-108220857D01*
X54566917Y-108149429D01*
X54459774Y-108113714D01*
X54388346Y-108113714D01*
X54281203Y-108149429D01*
X54245489Y-108185143D01*
X53995489Y-108113714D02*
X53495489Y-108113714D01*
X53816917Y-108863714D01*
%TO.C,C8*%
X52846828Y-83781289D02*
X52882542Y-83745574D01*
X52918256Y-83638431D01*
X52918256Y-83567003D01*
X52882542Y-83459860D01*
X52811113Y-83388431D01*
X52739685Y-83352717D01*
X52596828Y-83317003D01*
X52489685Y-83317003D01*
X52346828Y-83352717D01*
X52275399Y-83388431D01*
X52203971Y-83459860D01*
X52168256Y-83567003D01*
X52168256Y-83638431D01*
X52203971Y-83745574D01*
X52239685Y-83781289D01*
X52489685Y-84209860D02*
X52453971Y-84138431D01*
X52418256Y-84102717D01*
X52346828Y-84067003D01*
X52311113Y-84067003D01*
X52239685Y-84102717D01*
X52203971Y-84138431D01*
X52168256Y-84209860D01*
X52168256Y-84352717D01*
X52203971Y-84424146D01*
X52239685Y-84459860D01*
X52311113Y-84495574D01*
X52346828Y-84495574D01*
X52418256Y-84459860D01*
X52453971Y-84424146D01*
X52489685Y-84352717D01*
X52489685Y-84209860D01*
X52525399Y-84138431D01*
X52561113Y-84102717D01*
X52632542Y-84067003D01*
X52775399Y-84067003D01*
X52846828Y-84102717D01*
X52882542Y-84138431D01*
X52918256Y-84209860D01*
X52918256Y-84352717D01*
X52882542Y-84424146D01*
X52846828Y-84459860D01*
X52775399Y-84495574D01*
X52632542Y-84495574D01*
X52561113Y-84459860D01*
X52525399Y-84424146D01*
X52489685Y-84352717D01*
%TO.C,C9*%
X91640489Y-85833346D02*
X91676203Y-85869060D01*
X91783346Y-85904774D01*
X91854774Y-85904774D01*
X91961917Y-85869060D01*
X92033346Y-85797631D01*
X92069060Y-85726203D01*
X92104774Y-85583346D01*
X92104774Y-85476203D01*
X92069060Y-85333346D01*
X92033346Y-85261917D01*
X91961917Y-85190489D01*
X91854774Y-85154774D01*
X91783346Y-85154774D01*
X91676203Y-85190489D01*
X91640489Y-85226203D01*
X91283346Y-85904774D02*
X91140489Y-85904774D01*
X91069060Y-85869060D01*
X91033346Y-85833346D01*
X90961917Y-85726203D01*
X90926203Y-85583346D01*
X90926203Y-85297631D01*
X90961917Y-85226203D01*
X90997631Y-85190489D01*
X91069060Y-85154774D01*
X91211917Y-85154774D01*
X91283346Y-85190489D01*
X91319060Y-85226203D01*
X91354774Y-85297631D01*
X91354774Y-85476203D01*
X91319060Y-85547631D01*
X91283346Y-85583346D01*
X91211917Y-85619060D01*
X91069060Y-85619060D01*
X90997631Y-85583346D01*
X90961917Y-85547631D01*
X90926203Y-85476203D01*
%TO.C,C10*%
X95536240Y-119210760D02*
X95571954Y-119175045D01*
X95607668Y-119067903D01*
X95607668Y-118996474D01*
X95571954Y-118889331D01*
X95500525Y-118817903D01*
X95429097Y-118782188D01*
X95286240Y-118746474D01*
X95179097Y-118746474D01*
X95036240Y-118782188D01*
X94964811Y-118817903D01*
X94893383Y-118889331D01*
X94857668Y-118996474D01*
X94857668Y-119067903D01*
X94893383Y-119175045D01*
X94929097Y-119210760D01*
X95607668Y-119925045D02*
X95607668Y-119496474D01*
X95607668Y-119710760D02*
X94857668Y-119710760D01*
X94964811Y-119639331D01*
X95036240Y-119567903D01*
X95071954Y-119496474D01*
X94857668Y-120389331D02*
X94857668Y-120460760D01*
X94893383Y-120532188D01*
X94929097Y-120567903D01*
X95000525Y-120603617D01*
X95143383Y-120639331D01*
X95321954Y-120639331D01*
X95464811Y-120603617D01*
X95536240Y-120567903D01*
X95571954Y-120532188D01*
X95607668Y-120460760D01*
X95607668Y-120389331D01*
X95571954Y-120317903D01*
X95536240Y-120282188D01*
X95464811Y-120246474D01*
X95321954Y-120210760D01*
X95143383Y-120210760D01*
X95000525Y-120246474D01*
X94929097Y-120282188D01*
X94893383Y-120317903D01*
X94857668Y-120389331D01*
%TO.C,C11*%
X91853346Y-98303346D02*
X91889060Y-98267631D01*
X91924774Y-98160489D01*
X91924774Y-98089060D01*
X91889060Y-97981917D01*
X91817631Y-97910489D01*
X91746203Y-97874774D01*
X91603346Y-97839060D01*
X91496203Y-97839060D01*
X91353346Y-97874774D01*
X91281917Y-97910489D01*
X91210489Y-97981917D01*
X91174774Y-98089060D01*
X91174774Y-98160489D01*
X91210489Y-98267631D01*
X91246203Y-98303346D01*
X91924774Y-99017631D02*
X91924774Y-98589060D01*
X91924774Y-98803346D02*
X91174774Y-98803346D01*
X91281917Y-98731917D01*
X91353346Y-98660489D01*
X91389060Y-98589060D01*
X91924774Y-99731917D02*
X91924774Y-99303346D01*
X91924774Y-99517631D02*
X91174774Y-99517631D01*
X91281917Y-99446203D01*
X91353346Y-99374774D01*
X91389060Y-99303346D01*
%TO.C,D1*%
X100653554Y-135945900D02*
X100223372Y-135331536D01*
X100077094Y-135433960D01*
X100009813Y-135524670D01*
X99992272Y-135624151D01*
X100003986Y-135703146D01*
X100056670Y-135840653D01*
X100118125Y-135928419D01*
X100229320Y-136024956D01*
X100299545Y-136062982D01*
X100399026Y-136080523D01*
X100507277Y-136048324D01*
X100653554Y-135945900D01*
X99717380Y-136601415D02*
X100068445Y-136355597D01*
X99892913Y-136478506D02*
X99462730Y-135864142D01*
X99582696Y-135910939D01*
X99682177Y-135928480D01*
X99761172Y-135916766D01*
D13*
%TO.C,D3*%
X96950727Y-66246752D02*
X96950727Y-65846752D01*
X96855489Y-65846752D01*
X96798346Y-65865800D01*
X96760250Y-65903895D01*
X96741203Y-65941990D01*
X96722155Y-66018180D01*
X96722155Y-66075323D01*
X96741203Y-66151514D01*
X96760250Y-66189609D01*
X96798346Y-66227704D01*
X96855489Y-66246752D01*
X96950727Y-66246752D01*
X96588822Y-65846752D02*
X96341203Y-65846752D01*
X96474536Y-65999133D01*
X96417393Y-65999133D01*
X96379298Y-66018180D01*
X96360250Y-66037228D01*
X96341203Y-66075323D01*
X96341203Y-66170561D01*
X96360250Y-66208657D01*
X96379298Y-66227704D01*
X96417393Y-66246752D01*
X96531679Y-66246752D01*
X96569774Y-66227704D01*
X96588822Y-66208657D01*
D12*
%TO.C,D5*%
X52345798Y-135027373D02*
X51970798Y-135676892D01*
X52125446Y-135766178D01*
X52236091Y-135788819D01*
X52333665Y-135762675D01*
X52400308Y-135718673D01*
X52502666Y-135612812D01*
X52556238Y-135520024D01*
X52596737Y-135378449D01*
X52601522Y-135298733D01*
X52575377Y-135201159D01*
X52500446Y-135116658D01*
X52345798Y-135027373D01*
X52929612Y-136230463D02*
X52620317Y-136051892D01*
X52767959Y-135724740D01*
X52781032Y-135773526D01*
X52825034Y-135840170D01*
X52979681Y-135929456D01*
X53059397Y-135934241D01*
X53108184Y-135921168D01*
X53174827Y-135877167D01*
X53264113Y-135722519D01*
X53268898Y-135642803D01*
X53255826Y-135594017D01*
X53211824Y-135527373D01*
X53057176Y-135438087D01*
X52977460Y-135433302D01*
X52928674Y-135446375D01*
%TO.C,D6*%
X63260369Y-59322873D02*
X62260369Y-59322873D01*
X62260369Y-59560969D01*
X62307989Y-59703826D01*
X62403227Y-59799064D01*
X62498465Y-59846683D01*
X62688941Y-59894302D01*
X62831798Y-59894302D01*
X63022274Y-59846683D01*
X63117512Y-59799064D01*
X63212750Y-59703826D01*
X63260369Y-59560969D01*
X63260369Y-59322873D01*
X62260369Y-60751445D02*
X62260369Y-60560969D01*
X62307989Y-60465730D01*
X62355608Y-60418111D01*
X62498465Y-60322873D01*
X62688941Y-60275254D01*
X63069893Y-60275254D01*
X63165131Y-60322873D01*
X63212750Y-60370492D01*
X63260369Y-60465730D01*
X63260369Y-60656207D01*
X63212750Y-60751445D01*
X63165131Y-60799064D01*
X63069893Y-60846683D01*
X62831798Y-60846683D01*
X62736560Y-60799064D01*
X62688941Y-60751445D01*
X62641322Y-60656207D01*
X62641322Y-60465730D01*
X62688941Y-60370492D01*
X62736560Y-60322873D01*
X62831798Y-60275254D01*
%TO.C,D7*%
X72537869Y-102437393D02*
X71537869Y-102437393D01*
X71537869Y-102675489D01*
X71585489Y-102818346D01*
X71680727Y-102913584D01*
X71775965Y-102961203D01*
X71966441Y-103008822D01*
X72109298Y-103008822D01*
X72299774Y-102961203D01*
X72395012Y-102913584D01*
X72490250Y-102818346D01*
X72537869Y-102675489D01*
X72537869Y-102437393D01*
X71537869Y-103342155D02*
X71537869Y-104008822D01*
X72537869Y-103580250D01*
%TO.C,D10*%
X80329774Y-71107869D02*
X80329774Y-70107869D01*
X80091679Y-70107869D01*
X79948822Y-70155489D01*
X79853584Y-70250727D01*
X79805965Y-70345965D01*
X79758346Y-70536441D01*
X79758346Y-70679298D01*
X79805965Y-70869774D01*
X79853584Y-70965012D01*
X79948822Y-71060250D01*
X80091679Y-71107869D01*
X80329774Y-71107869D01*
X78805965Y-71107869D02*
X79377393Y-71107869D01*
X79091679Y-71107869D02*
X79091679Y-70107869D01*
X79186917Y-70250727D01*
X79282155Y-70345965D01*
X79377393Y-70393584D01*
X78186917Y-70107869D02*
X78091679Y-70107869D01*
X77996441Y-70155489D01*
X77948822Y-70203108D01*
X77901203Y-70298346D01*
X77853584Y-70488822D01*
X77853584Y-70726917D01*
X77901203Y-70917393D01*
X77948822Y-71012631D01*
X77996441Y-71060250D01*
X78091679Y-71107869D01*
X78186917Y-71107869D01*
X78282155Y-71060250D01*
X78329774Y-71012631D01*
X78377393Y-70917393D01*
X78425012Y-70726917D01*
X78425012Y-70488822D01*
X78377393Y-70298346D01*
X78329774Y-70203108D01*
X78282155Y-70155489D01*
X78186917Y-70107869D01*
D13*
%TO.C,D11*%
X72011679Y-125858346D02*
X71511679Y-125858346D01*
X71511679Y-125977393D01*
X71535489Y-126048822D01*
X71583108Y-126096441D01*
X71630727Y-126120250D01*
X71725965Y-126144060D01*
X71797393Y-126144060D01*
X71892631Y-126120250D01*
X71940250Y-126096441D01*
X71987869Y-126048822D01*
X72011679Y-125977393D01*
X72011679Y-125858346D01*
X72011679Y-126620250D02*
X72011679Y-126334536D01*
X72011679Y-126477393D02*
X71511679Y-126477393D01*
X71583108Y-126429774D01*
X71630727Y-126382155D01*
X71654536Y-126334536D01*
X72011679Y-127096441D02*
X72011679Y-126810727D01*
X72011679Y-126953584D02*
X71511679Y-126953584D01*
X71583108Y-126905965D01*
X71630727Y-126858346D01*
X71654536Y-126810727D01*
D12*
%TO.C,D12*%
X67739774Y-121517869D02*
X67739774Y-120517869D01*
X67501679Y-120517869D01*
X67358822Y-120565489D01*
X67263584Y-120660727D01*
X67215965Y-120755965D01*
X67168346Y-120946441D01*
X67168346Y-121089298D01*
X67215965Y-121279774D01*
X67263584Y-121375012D01*
X67358822Y-121470250D01*
X67501679Y-121517869D01*
X67739774Y-121517869D01*
X66215965Y-121517869D02*
X66787393Y-121517869D01*
X66501679Y-121517869D02*
X66501679Y-120517869D01*
X66596917Y-120660727D01*
X66692155Y-120755965D01*
X66787393Y-120803584D01*
X65835012Y-120613108D02*
X65787393Y-120565489D01*
X65692155Y-120517869D01*
X65454060Y-120517869D01*
X65358822Y-120565489D01*
X65311203Y-120613108D01*
X65263584Y-120708346D01*
X65263584Y-120803584D01*
X65311203Y-120946441D01*
X65882631Y-121517869D01*
X65263584Y-121517869D01*
%TO.C,D13*%
X67949774Y-128717869D02*
X67949774Y-127717869D01*
X67711679Y-127717869D01*
X67568822Y-127765489D01*
X67473584Y-127860727D01*
X67425965Y-127955965D01*
X67378346Y-128146441D01*
X67378346Y-128289298D01*
X67425965Y-128479774D01*
X67473584Y-128575012D01*
X67568822Y-128670250D01*
X67711679Y-128717869D01*
X67949774Y-128717869D01*
X66425965Y-128717869D02*
X66997393Y-128717869D01*
X66711679Y-128717869D02*
X66711679Y-127717869D01*
X66806917Y-127860727D01*
X66902155Y-127955965D01*
X66997393Y-128003584D01*
X66092631Y-127717869D02*
X65473584Y-127717869D01*
X65806917Y-128098822D01*
X65664060Y-128098822D01*
X65568822Y-128146441D01*
X65521203Y-128194060D01*
X65473584Y-128289298D01*
X65473584Y-128527393D01*
X65521203Y-128622631D01*
X65568822Y-128670250D01*
X65664060Y-128717869D01*
X65949774Y-128717869D01*
X66045012Y-128670250D01*
X66092631Y-128622631D01*
%TO.C,J1*%
X76324774Y-132255489D02*
X76860489Y-132255489D01*
X76967631Y-132219774D01*
X77039060Y-132148346D01*
X77074774Y-132041203D01*
X77074774Y-131969774D01*
X77074774Y-133005489D02*
X77074774Y-132576917D01*
X77074774Y-132791203D02*
X76324774Y-132791203D01*
X76431917Y-132719774D01*
X76503346Y-132648346D01*
X76539060Y-132576917D01*
D14*
X68051679Y-134129774D02*
X67813584Y-133963108D01*
X68051679Y-133844060D02*
X67551679Y-133844060D01*
X67551679Y-134034536D01*
X67575489Y-134082155D01*
X67599298Y-134105965D01*
X67646917Y-134129774D01*
X67718346Y-134129774D01*
X67765965Y-134105965D01*
X67789774Y-134082155D01*
X67813584Y-134034536D01*
X67813584Y-133844060D01*
X67789774Y-134344060D02*
X67789774Y-134510727D01*
X68051679Y-134582155D02*
X68051679Y-134344060D01*
X67551679Y-134344060D01*
X67551679Y-134582155D01*
X68051679Y-134796441D02*
X67551679Y-134796441D01*
X67551679Y-134915489D01*
X67575489Y-134986917D01*
X67623108Y-135034536D01*
X67670727Y-135058346D01*
X67765965Y-135082155D01*
X67837393Y-135082155D01*
X67932631Y-135058346D01*
X67980250Y-135034536D01*
X68027869Y-134986917D01*
X68051679Y-134915489D01*
X68051679Y-134796441D01*
X68027869Y-135653584D02*
X68051679Y-135725012D01*
X68051679Y-135844060D01*
X68027869Y-135891679D01*
X68004060Y-135915489D01*
X67956441Y-135939298D01*
X67908822Y-135939298D01*
X67861203Y-135915489D01*
X67837393Y-135891679D01*
X67813584Y-135844060D01*
X67789774Y-135748822D01*
X67765965Y-135701203D01*
X67742155Y-135677393D01*
X67694536Y-135653584D01*
X67646917Y-135653584D01*
X67599298Y-135677393D01*
X67575489Y-135701203D01*
X67551679Y-135748822D01*
X67551679Y-135867869D01*
X67575489Y-135939298D01*
X67551679Y-136082155D02*
X67551679Y-136367869D01*
X68051679Y-136225012D02*
X67551679Y-136225012D01*
X68051679Y-136820250D02*
X67813584Y-136653584D01*
X68051679Y-136534536D02*
X67551679Y-136534536D01*
X67551679Y-136725012D01*
X67575489Y-136772631D01*
X67599298Y-136796441D01*
X67646917Y-136820250D01*
X67718346Y-136820250D01*
X67765965Y-136796441D01*
X67789774Y-136772631D01*
X67813584Y-136725012D01*
X67813584Y-136534536D01*
X68051679Y-137034536D02*
X67551679Y-137034536D01*
X68051679Y-137272631D02*
X67551679Y-137272631D01*
X67551679Y-137463108D01*
X67575489Y-137510727D01*
X67599298Y-137534536D01*
X67646917Y-137558346D01*
X67718346Y-137558346D01*
X67765965Y-137534536D01*
X67789774Y-137510727D01*
X67813584Y-137463108D01*
X67813584Y-137272631D01*
X67789774Y-137772631D02*
X67789774Y-137939298D01*
X68051679Y-138010727D02*
X68051679Y-137772631D01*
X67551679Y-137772631D01*
X67551679Y-138010727D01*
D12*
X69436917Y-133993584D02*
X69436917Y-134755489D01*
X69817869Y-135755489D02*
X69817869Y-135184060D01*
X69817869Y-135469774D02*
X68817869Y-135469774D01*
X68960727Y-135374536D01*
X69055965Y-135279298D01*
X69103584Y-135184060D01*
X68913108Y-136136441D02*
X68865489Y-136184060D01*
X68817869Y-136279298D01*
X68817869Y-136517393D01*
X68865489Y-136612631D01*
X68913108Y-136660250D01*
X69008346Y-136707869D01*
X69103584Y-136707869D01*
X69246441Y-136660250D01*
X69817869Y-136088822D01*
X69817869Y-136707869D01*
X68817869Y-136993584D02*
X69817869Y-137326917D01*
X68817869Y-137660250D01*
X86992393Y-130438237D02*
X86230489Y-130438237D01*
X86611441Y-130819189D02*
X86611441Y-130057285D01*
X85230489Y-130819189D02*
X85801917Y-130819189D01*
X85516203Y-130819189D02*
X85516203Y-129819189D01*
X85611441Y-129962047D01*
X85706679Y-130057285D01*
X85801917Y-130104904D01*
X84849536Y-129914428D02*
X84801917Y-129866809D01*
X84706679Y-129819189D01*
X84468584Y-129819189D01*
X84373346Y-129866809D01*
X84325727Y-129914428D01*
X84278108Y-130009666D01*
X84278108Y-130104904D01*
X84325727Y-130247761D01*
X84897155Y-130819189D01*
X84278108Y-130819189D01*
X83992393Y-129819189D02*
X83659060Y-130819189D01*
X83325727Y-129819189D01*
%TO.C,Q1*%
X98076203Y-57484060D02*
X98040489Y-57412631D01*
X97969060Y-57341203D01*
X97861917Y-57234060D01*
X97826203Y-57162631D01*
X97826203Y-57091203D01*
X98004774Y-57126917D02*
X97969060Y-57055489D01*
X97897631Y-56984060D01*
X97754774Y-56948346D01*
X97504774Y-56948346D01*
X97361917Y-56984060D01*
X97290489Y-57055489D01*
X97254774Y-57126917D01*
X97254774Y-57269774D01*
X97290489Y-57341203D01*
X97361917Y-57412631D01*
X97504774Y-57448346D01*
X97754774Y-57448346D01*
X97897631Y-57412631D01*
X97969060Y-57341203D01*
X98004774Y-57269774D01*
X98004774Y-57126917D01*
X98004774Y-58162631D02*
X98004774Y-57734060D01*
X98004774Y-57948346D02*
X97254774Y-57948346D01*
X97361917Y-57876917D01*
X97433346Y-57805489D01*
X97469060Y-57734060D01*
D13*
X95559298Y-56178346D02*
X95535489Y-56202155D01*
X95511679Y-56249774D01*
X95511679Y-56368822D01*
X95535489Y-56416441D01*
X95559298Y-56440250D01*
X95606917Y-56464060D01*
X95654536Y-56464060D01*
X95725965Y-56440250D01*
X96011679Y-56154536D01*
X96011679Y-56464060D01*
X96011679Y-56678346D02*
X95511679Y-56678346D01*
X96011679Y-56964060D01*
X95511679Y-56964060D01*
X95511679Y-57154536D02*
X95511679Y-57464060D01*
X95702155Y-57297393D01*
X95702155Y-57368822D01*
X95725965Y-57416441D01*
X95749774Y-57440250D01*
X95797393Y-57464060D01*
X95916441Y-57464060D01*
X95964060Y-57440250D01*
X95987869Y-57416441D01*
X96011679Y-57368822D01*
X96011679Y-57225965D01*
X95987869Y-57178346D01*
X95964060Y-57154536D01*
X96011679Y-57702155D02*
X96011679Y-57797393D01*
X95987869Y-57845012D01*
X95964060Y-57868822D01*
X95892631Y-57916441D01*
X95797393Y-57940250D01*
X95606917Y-57940250D01*
X95559298Y-57916441D01*
X95535489Y-57892631D01*
X95511679Y-57845012D01*
X95511679Y-57749774D01*
X95535489Y-57702155D01*
X95559298Y-57678346D01*
X95606917Y-57654536D01*
X95725965Y-57654536D01*
X95773584Y-57678346D01*
X95797393Y-57702155D01*
X95821203Y-57749774D01*
X95821203Y-57845012D01*
X95797393Y-57892631D01*
X95773584Y-57916441D01*
X95725965Y-57940250D01*
X95511679Y-58249774D02*
X95511679Y-58297393D01*
X95535489Y-58345012D01*
X95559298Y-58368822D01*
X95606917Y-58392631D01*
X95702155Y-58416441D01*
X95821203Y-58416441D01*
X95916441Y-58392631D01*
X95964060Y-58368822D01*
X95987869Y-58345012D01*
X96011679Y-58297393D01*
X96011679Y-58249774D01*
X95987869Y-58202155D01*
X95964060Y-58178346D01*
X95916441Y-58154536D01*
X95821203Y-58130727D01*
X95702155Y-58130727D01*
X95606917Y-58154536D01*
X95559298Y-58178346D01*
X95535489Y-58202155D01*
X95511679Y-58249774D01*
X95678346Y-58845012D02*
X96011679Y-58845012D01*
X95487869Y-58725965D02*
X95845012Y-58606917D01*
X95845012Y-58916441D01*
D12*
%TO.C,Q2*%
X78056203Y-56454060D02*
X78020489Y-56382631D01*
X77949060Y-56311203D01*
X77841917Y-56204060D01*
X77806203Y-56132631D01*
X77806203Y-56061203D01*
X77984774Y-56096917D02*
X77949060Y-56025489D01*
X77877631Y-55954060D01*
X77734774Y-55918346D01*
X77484774Y-55918346D01*
X77341917Y-55954060D01*
X77270489Y-56025489D01*
X77234774Y-56096917D01*
X77234774Y-56239774D01*
X77270489Y-56311203D01*
X77341917Y-56382631D01*
X77484774Y-56418346D01*
X77734774Y-56418346D01*
X77877631Y-56382631D01*
X77949060Y-56311203D01*
X77984774Y-56239774D01*
X77984774Y-56096917D01*
X77306203Y-56704060D02*
X77270489Y-56739774D01*
X77234774Y-56811203D01*
X77234774Y-56989774D01*
X77270489Y-57061203D01*
X77306203Y-57096917D01*
X77377631Y-57132631D01*
X77449060Y-57132631D01*
X77556203Y-57096917D01*
X77984774Y-56668346D01*
X77984774Y-57132631D01*
D13*
X78653048Y-56328346D02*
X78629239Y-56352155D01*
X78605429Y-56399774D01*
X78605429Y-56518822D01*
X78629239Y-56566441D01*
X78653048Y-56590250D01*
X78700667Y-56614060D01*
X78748286Y-56614060D01*
X78819715Y-56590250D01*
X79105429Y-56304536D01*
X79105429Y-56614060D01*
X79105429Y-56828346D02*
X78605429Y-56828346D01*
X79105429Y-57114060D01*
X78605429Y-57114060D01*
X78605429Y-57304536D02*
X78605429Y-57614060D01*
X78795905Y-57447393D01*
X78795905Y-57518822D01*
X78819715Y-57566441D01*
X78843524Y-57590250D01*
X78891143Y-57614060D01*
X79010191Y-57614060D01*
X79057810Y-57590250D01*
X79081619Y-57566441D01*
X79105429Y-57518822D01*
X79105429Y-57375965D01*
X79081619Y-57328346D01*
X79057810Y-57304536D01*
X79105429Y-57852155D02*
X79105429Y-57947393D01*
X79081619Y-57995012D01*
X79057810Y-58018822D01*
X78986381Y-58066441D01*
X78891143Y-58090250D01*
X78700667Y-58090250D01*
X78653048Y-58066441D01*
X78629239Y-58042631D01*
X78605429Y-57995012D01*
X78605429Y-57899774D01*
X78629239Y-57852155D01*
X78653048Y-57828346D01*
X78700667Y-57804536D01*
X78819715Y-57804536D01*
X78867334Y-57828346D01*
X78891143Y-57852155D01*
X78914953Y-57899774D01*
X78914953Y-57995012D01*
X78891143Y-58042631D01*
X78867334Y-58066441D01*
X78819715Y-58090250D01*
X78605429Y-58399774D02*
X78605429Y-58447393D01*
X78629239Y-58495012D01*
X78653048Y-58518822D01*
X78700667Y-58542631D01*
X78795905Y-58566441D01*
X78914953Y-58566441D01*
X79010191Y-58542631D01*
X79057810Y-58518822D01*
X79081619Y-58495012D01*
X79105429Y-58447393D01*
X79105429Y-58399774D01*
X79081619Y-58352155D01*
X79057810Y-58328346D01*
X79010191Y-58304536D01*
X78914953Y-58280727D01*
X78795905Y-58280727D01*
X78700667Y-58304536D01*
X78653048Y-58328346D01*
X78629239Y-58352155D01*
X78605429Y-58399774D01*
X78772096Y-58995012D02*
X79105429Y-58995012D01*
X78581619Y-58875965D02*
X78938762Y-58756917D01*
X78938762Y-59066441D01*
D12*
%TO.C,R1*%
X68202869Y-106767762D02*
X67726679Y-106434429D01*
X68202869Y-106196333D02*
X67202869Y-106196333D01*
X67202869Y-106577286D01*
X67250489Y-106672524D01*
X67298108Y-106720143D01*
X67393346Y-106767762D01*
X67536203Y-106767762D01*
X67631441Y-106720143D01*
X67679060Y-106672524D01*
X67726679Y-106577286D01*
X67726679Y-106196333D01*
X68202869Y-107720143D02*
X68202869Y-107148714D01*
X68202869Y-107434429D02*
X67202869Y-107434429D01*
X67345727Y-107339190D01*
X67440965Y-107243952D01*
X67488584Y-107148714D01*
%TO.C,R2*%
X96542155Y-83128180D02*
X96875489Y-82651990D01*
X97113584Y-83128180D02*
X97113584Y-82128180D01*
X96732631Y-82128180D01*
X96637393Y-82175800D01*
X96589774Y-82223419D01*
X96542155Y-82318657D01*
X96542155Y-82461514D01*
X96589774Y-82556752D01*
X96637393Y-82604371D01*
X96732631Y-82651990D01*
X97113584Y-82651990D01*
X96161203Y-82223419D02*
X96113584Y-82175800D01*
X96018346Y-82128180D01*
X95780250Y-82128180D01*
X95685012Y-82175800D01*
X95637393Y-82223419D01*
X95589774Y-82318657D01*
X95589774Y-82413895D01*
X95637393Y-82556752D01*
X96208822Y-83128180D01*
X95589774Y-83128180D01*
%TO.C,R3*%
X102717869Y-123166322D02*
X102241679Y-122832989D01*
X102717869Y-122594893D02*
X101717869Y-122594893D01*
X101717869Y-122975846D01*
X101765489Y-123071084D01*
X101813108Y-123118703D01*
X101908346Y-123166322D01*
X102051203Y-123166322D01*
X102146441Y-123118703D01*
X102194060Y-123071084D01*
X102241679Y-122975846D01*
X102241679Y-122594893D01*
X101717869Y-123499655D02*
X101717869Y-124118703D01*
X102098822Y-123785369D01*
X102098822Y-123928227D01*
X102146441Y-124023465D01*
X102194060Y-124071084D01*
X102289298Y-124118703D01*
X102527393Y-124118703D01*
X102622631Y-124071084D01*
X102670250Y-124023465D01*
X102717869Y-123928227D01*
X102717869Y-123642512D01*
X102670250Y-123547274D01*
X102622631Y-123499655D01*
D13*
%TO.C,R4*%
X96661679Y-78202466D02*
X96423584Y-78035800D01*
X96661679Y-77916752D02*
X96161679Y-77916752D01*
X96161679Y-78107228D01*
X96185489Y-78154847D01*
X96209298Y-78178657D01*
X96256917Y-78202466D01*
X96328346Y-78202466D01*
X96375965Y-78178657D01*
X96399774Y-78154847D01*
X96423584Y-78107228D01*
X96423584Y-77916752D01*
X96328346Y-78631038D02*
X96661679Y-78631038D01*
X96137869Y-78511990D02*
X96495012Y-78392942D01*
X96495012Y-78702466D01*
D12*
%TO.C,R6*%
X99757869Y-81849133D02*
X99281679Y-81515800D01*
X99757869Y-81277704D02*
X98757869Y-81277704D01*
X98757869Y-81658657D01*
X98805489Y-81753895D01*
X98853108Y-81801514D01*
X98948346Y-81849133D01*
X99091203Y-81849133D01*
X99186441Y-81801514D01*
X99234060Y-81753895D01*
X99281679Y-81658657D01*
X99281679Y-81277704D01*
X98757869Y-82706276D02*
X98757869Y-82515800D01*
X98805489Y-82420561D01*
X98853108Y-82372942D01*
X98995965Y-82277704D01*
X99186441Y-82230085D01*
X99567393Y-82230085D01*
X99662631Y-82277704D01*
X99710250Y-82325323D01*
X99757869Y-82420561D01*
X99757869Y-82611038D01*
X99710250Y-82706276D01*
X99662631Y-82753895D01*
X99567393Y-82801514D01*
X99329298Y-82801514D01*
X99234060Y-82753895D01*
X99186441Y-82706276D01*
X99138822Y-82611038D01*
X99138822Y-82420561D01*
X99186441Y-82325323D01*
X99234060Y-82277704D01*
X99329298Y-82230085D01*
D13*
%TO.C,R7*%
X96512155Y-70776752D02*
X96645489Y-70586276D01*
X96740727Y-70776752D02*
X96740727Y-70376752D01*
X96588346Y-70376752D01*
X96550250Y-70395800D01*
X96531203Y-70414847D01*
X96512155Y-70452942D01*
X96512155Y-70510085D01*
X96531203Y-70548180D01*
X96550250Y-70567228D01*
X96588346Y-70586276D01*
X96740727Y-70586276D01*
X96378822Y-70376752D02*
X96112155Y-70376752D01*
X96283584Y-70776752D01*
%TO.C,R8*%
X98708822Y-74891990D02*
X98875489Y-74653895D01*
X98994536Y-74891990D02*
X98994536Y-74391990D01*
X98804060Y-74391990D01*
X98756441Y-74415800D01*
X98732631Y-74439609D01*
X98708822Y-74487228D01*
X98708822Y-74558657D01*
X98732631Y-74606276D01*
X98756441Y-74630085D01*
X98804060Y-74653895D01*
X98994536Y-74653895D01*
X98423108Y-74606276D02*
X98470727Y-74582466D01*
X98494536Y-74558657D01*
X98518346Y-74511038D01*
X98518346Y-74487228D01*
X98494536Y-74439609D01*
X98470727Y-74415800D01*
X98423108Y-74391990D01*
X98327869Y-74391990D01*
X98280250Y-74415800D01*
X98256441Y-74439609D01*
X98232631Y-74487228D01*
X98232631Y-74511038D01*
X98256441Y-74558657D01*
X98280250Y-74582466D01*
X98327869Y-74606276D01*
X98423108Y-74606276D01*
X98470727Y-74630085D01*
X98494536Y-74653895D01*
X98518346Y-74701514D01*
X98518346Y-74796752D01*
X98494536Y-74844371D01*
X98470727Y-74868180D01*
X98423108Y-74891990D01*
X98327869Y-74891990D01*
X98280250Y-74868180D01*
X98256441Y-74844371D01*
X98232631Y-74796752D01*
X98232631Y-74701514D01*
X98256441Y-74653895D01*
X98280250Y-74630085D01*
X98327869Y-74606276D01*
D12*
%TO.C,R10*%
X81137869Y-78742631D02*
X80661679Y-78409298D01*
X81137869Y-78171203D02*
X80137869Y-78171203D01*
X80137869Y-78552155D01*
X80185489Y-78647393D01*
X80233108Y-78695012D01*
X80328346Y-78742631D01*
X80471203Y-78742631D01*
X80566441Y-78695012D01*
X80614060Y-78647393D01*
X80661679Y-78552155D01*
X80661679Y-78171203D01*
X81137869Y-79695012D02*
X81137869Y-79123584D01*
X81137869Y-79409298D02*
X80137869Y-79409298D01*
X80280727Y-79314060D01*
X80375965Y-79218822D01*
X80423584Y-79123584D01*
X80137869Y-80314060D02*
X80137869Y-80409298D01*
X80185489Y-80504536D01*
X80233108Y-80552155D01*
X80328346Y-80599774D01*
X80518822Y-80647393D01*
X80756917Y-80647393D01*
X80947393Y-80599774D01*
X81042631Y-80552155D01*
X81090250Y-80504536D01*
X81137869Y-80409298D01*
X81137869Y-80314060D01*
X81090250Y-80218822D01*
X81042631Y-80171203D01*
X80947393Y-80123584D01*
X80756917Y-80075965D01*
X80518822Y-80075965D01*
X80328346Y-80123584D01*
X80233108Y-80171203D01*
X80185489Y-80218822D01*
X80137869Y-80314060D01*
%TO.C,R11*%
X70387869Y-116522631D02*
X69911679Y-116189298D01*
X70387869Y-115951203D02*
X69387869Y-115951203D01*
X69387869Y-116332155D01*
X69435489Y-116427393D01*
X69483108Y-116475012D01*
X69578346Y-116522631D01*
X69721203Y-116522631D01*
X69816441Y-116475012D01*
X69864060Y-116427393D01*
X69911679Y-116332155D01*
X69911679Y-115951203D01*
X70387869Y-117475012D02*
X70387869Y-116903584D01*
X70387869Y-117189298D02*
X69387869Y-117189298D01*
X69530727Y-117094060D01*
X69625965Y-116998822D01*
X69673584Y-116903584D01*
X70387869Y-118427393D02*
X70387869Y-117855965D01*
X70387869Y-118141679D02*
X69387869Y-118141679D01*
X69530727Y-118046441D01*
X69625965Y-117951203D01*
X69673584Y-117855965D01*
%TO.C,R12*%
X55830846Y-60483349D02*
X56164179Y-60007159D01*
X56402274Y-60483349D02*
X56402274Y-59483349D01*
X56021322Y-59483349D01*
X55926084Y-59530969D01*
X55878465Y-59578588D01*
X55830846Y-59673826D01*
X55830846Y-59816683D01*
X55878465Y-59911921D01*
X55926084Y-59959540D01*
X56021322Y-60007159D01*
X56402274Y-60007159D01*
X54878465Y-60483349D02*
X55449893Y-60483349D01*
X55164179Y-60483349D02*
X55164179Y-59483349D01*
X55259417Y-59626207D01*
X55354655Y-59721445D01*
X55449893Y-59769064D01*
X54497512Y-59578588D02*
X54449893Y-59530969D01*
X54354655Y-59483349D01*
X54116560Y-59483349D01*
X54021322Y-59530969D01*
X53973703Y-59578588D01*
X53926084Y-59673826D01*
X53926084Y-59769064D01*
X53973703Y-59911921D01*
X54545131Y-60483349D01*
X53926084Y-60483349D01*
%TO.C,R13*%
X73617869Y-59732631D02*
X73141679Y-59399298D01*
X73617869Y-59161203D02*
X72617869Y-59161203D01*
X72617869Y-59542155D01*
X72665489Y-59637393D01*
X72713108Y-59685012D01*
X72808346Y-59732631D01*
X72951203Y-59732631D01*
X73046441Y-59685012D01*
X73094060Y-59637393D01*
X73141679Y-59542155D01*
X73141679Y-59161203D01*
X73617869Y-60685012D02*
X73617869Y-60113584D01*
X73617869Y-60399298D02*
X72617869Y-60399298D01*
X72760727Y-60304060D01*
X72855965Y-60208822D01*
X72903584Y-60113584D01*
X72617869Y-61018346D02*
X72617869Y-61637393D01*
X72998822Y-61304060D01*
X72998822Y-61446917D01*
X73046441Y-61542155D01*
X73094060Y-61589774D01*
X73189298Y-61637393D01*
X73427393Y-61637393D01*
X73522631Y-61589774D01*
X73570250Y-61542155D01*
X73617869Y-61446917D01*
X73617869Y-61161203D01*
X73570250Y-61065965D01*
X73522631Y-61018346D01*
%TO.C,R17*%
X66447869Y-57532631D02*
X65971679Y-57199298D01*
X66447869Y-56961203D02*
X65447869Y-56961203D01*
X65447869Y-57342155D01*
X65495489Y-57437393D01*
X65543108Y-57485012D01*
X65638346Y-57532631D01*
X65781203Y-57532631D01*
X65876441Y-57485012D01*
X65924060Y-57437393D01*
X65971679Y-57342155D01*
X65971679Y-56961203D01*
X66447869Y-58485012D02*
X66447869Y-57913584D01*
X66447869Y-58199298D02*
X65447869Y-58199298D01*
X65590727Y-58104060D01*
X65685965Y-58008822D01*
X65733584Y-57913584D01*
X65447869Y-58818346D02*
X65447869Y-59485012D01*
X66447869Y-59056441D01*
%TO.C,R18*%
X69718346Y-57257869D02*
X70051679Y-56781679D01*
X70289774Y-57257869D02*
X70289774Y-56257869D01*
X69908822Y-56257869D01*
X69813584Y-56305489D01*
X69765965Y-56353108D01*
X69718346Y-56448346D01*
X69718346Y-56591203D01*
X69765965Y-56686441D01*
X69813584Y-56734060D01*
X69908822Y-56781679D01*
X70289774Y-56781679D01*
X68765965Y-57257869D02*
X69337393Y-57257869D01*
X69051679Y-57257869D02*
X69051679Y-56257869D01*
X69146917Y-56400727D01*
X69242155Y-56495965D01*
X69337393Y-56543584D01*
X68194536Y-56686441D02*
X68289774Y-56638822D01*
X68337393Y-56591203D01*
X68385012Y-56495965D01*
X68385012Y-56448346D01*
X68337393Y-56353108D01*
X68289774Y-56305489D01*
X68194536Y-56257869D01*
X68004060Y-56257869D01*
X67908822Y-56305489D01*
X67861203Y-56353108D01*
X67813584Y-56448346D01*
X67813584Y-56495965D01*
X67861203Y-56591203D01*
X67908822Y-56638822D01*
X68004060Y-56686441D01*
X68194536Y-56686441D01*
X68289774Y-56734060D01*
X68337393Y-56781679D01*
X68385012Y-56876917D01*
X68385012Y-57067393D01*
X68337393Y-57162631D01*
X68289774Y-57210250D01*
X68194536Y-57257869D01*
X68004060Y-57257869D01*
X67908822Y-57210250D01*
X67861203Y-57162631D01*
X67813584Y-57067393D01*
X67813584Y-56876917D01*
X67861203Y-56781679D01*
X67908822Y-56734060D01*
X68004060Y-56686441D01*
%TO.C,R22*%
X56827869Y-98860131D02*
X56351679Y-98526798D01*
X56827869Y-98288703D02*
X55827869Y-98288703D01*
X55827869Y-98669655D01*
X55875489Y-98764893D01*
X55923108Y-98812512D01*
X56018346Y-98860131D01*
X56161203Y-98860131D01*
X56256441Y-98812512D01*
X56304060Y-98764893D01*
X56351679Y-98669655D01*
X56351679Y-98288703D01*
X55923108Y-99241084D02*
X55875489Y-99288703D01*
X55827869Y-99383941D01*
X55827869Y-99622036D01*
X55875489Y-99717274D01*
X55923108Y-99764893D01*
X56018346Y-99812512D01*
X56113584Y-99812512D01*
X56256441Y-99764893D01*
X56827869Y-99193465D01*
X56827869Y-99812512D01*
X55923108Y-100193465D02*
X55875489Y-100241084D01*
X55827869Y-100336322D01*
X55827869Y-100574417D01*
X55875489Y-100669655D01*
X55923108Y-100717274D01*
X56018346Y-100764893D01*
X56113584Y-100764893D01*
X56256441Y-100717274D01*
X56827869Y-100145846D01*
X56827869Y-100764893D01*
D14*
%TO.C,R23*%
X54466679Y-105303000D02*
X54228584Y-105136333D01*
X54466679Y-105017286D02*
X53966679Y-105017286D01*
X53966679Y-105207762D01*
X53990489Y-105255381D01*
X54014298Y-105279190D01*
X54061917Y-105303000D01*
X54133346Y-105303000D01*
X54180965Y-105279190D01*
X54204774Y-105255381D01*
X54228584Y-105207762D01*
X54228584Y-105017286D01*
X54014298Y-105493476D02*
X53990489Y-105517286D01*
X53966679Y-105564905D01*
X53966679Y-105683952D01*
X53990489Y-105731571D01*
X54014298Y-105755381D01*
X54061917Y-105779190D01*
X54109536Y-105779190D01*
X54180965Y-105755381D01*
X54466679Y-105469667D01*
X54466679Y-105779190D01*
X53966679Y-105945857D02*
X53966679Y-106255381D01*
X54157155Y-106088714D01*
X54157155Y-106160143D01*
X54180965Y-106207762D01*
X54204774Y-106231571D01*
X54252393Y-106255381D01*
X54371441Y-106255381D01*
X54419060Y-106231571D01*
X54442869Y-106207762D01*
X54466679Y-106160143D01*
X54466679Y-106017286D01*
X54442869Y-105969667D01*
X54419060Y-105945857D01*
D12*
%TO.C,R24*%
X82797869Y-62872631D02*
X82321679Y-62539298D01*
X82797869Y-62301203D02*
X81797869Y-62301203D01*
X81797869Y-62682155D01*
X81845489Y-62777393D01*
X81893108Y-62825012D01*
X81988346Y-62872631D01*
X82131203Y-62872631D01*
X82226441Y-62825012D01*
X82274060Y-62777393D01*
X82321679Y-62682155D01*
X82321679Y-62301203D01*
X81893108Y-63253584D02*
X81845489Y-63301203D01*
X81797869Y-63396441D01*
X81797869Y-63634536D01*
X81845489Y-63729774D01*
X81893108Y-63777393D01*
X81988346Y-63825012D01*
X82083584Y-63825012D01*
X82226441Y-63777393D01*
X82797869Y-63205965D01*
X82797869Y-63825012D01*
X82131203Y-64682155D02*
X82797869Y-64682155D01*
X81750250Y-64444060D02*
X82464536Y-64205965D01*
X82464536Y-64825012D01*
%TO.C,R26*%
X61397869Y-121222631D02*
X60921679Y-120889298D01*
X61397869Y-120651203D02*
X60397869Y-120651203D01*
X60397869Y-121032155D01*
X60445489Y-121127393D01*
X60493108Y-121175012D01*
X60588346Y-121222631D01*
X60731203Y-121222631D01*
X60826441Y-121175012D01*
X60874060Y-121127393D01*
X60921679Y-121032155D01*
X60921679Y-120651203D01*
X60493108Y-121603584D02*
X60445489Y-121651203D01*
X60397869Y-121746441D01*
X60397869Y-121984536D01*
X60445489Y-122079774D01*
X60493108Y-122127393D01*
X60588346Y-122175012D01*
X60683584Y-122175012D01*
X60826441Y-122127393D01*
X61397869Y-121555965D01*
X61397869Y-122175012D01*
X60397869Y-123032155D02*
X60397869Y-122841679D01*
X60445489Y-122746441D01*
X60493108Y-122698822D01*
X60635965Y-122603584D01*
X60826441Y-122555965D01*
X61207393Y-122555965D01*
X61302631Y-122603584D01*
X61350250Y-122651203D01*
X61397869Y-122746441D01*
X61397869Y-122936917D01*
X61350250Y-123032155D01*
X61302631Y-123079774D01*
X61207393Y-123127393D01*
X60969298Y-123127393D01*
X60874060Y-123079774D01*
X60826441Y-123032155D01*
X60778822Y-122936917D01*
X60778822Y-122746441D01*
X60826441Y-122651203D01*
X60874060Y-122603584D01*
X60969298Y-122555965D01*
%TO.C,R27*%
X73738346Y-102067869D02*
X74071679Y-101591679D01*
X74309774Y-102067869D02*
X74309774Y-101067869D01*
X73928822Y-101067869D01*
X73833584Y-101115489D01*
X73785965Y-101163108D01*
X73738346Y-101258346D01*
X73738346Y-101401203D01*
X73785965Y-101496441D01*
X73833584Y-101544060D01*
X73928822Y-101591679D01*
X74309774Y-101591679D01*
X73357393Y-101163108D02*
X73309774Y-101115489D01*
X73214536Y-101067869D01*
X72976441Y-101067869D01*
X72881203Y-101115489D01*
X72833584Y-101163108D01*
X72785965Y-101258346D01*
X72785965Y-101353584D01*
X72833584Y-101496441D01*
X73405012Y-102067869D01*
X72785965Y-102067869D01*
X72452631Y-101067869D02*
X71785965Y-101067869D01*
X72214536Y-102067869D01*
%TO.C,R28*%
X50217869Y-102692631D02*
X49741679Y-102359298D01*
X50217869Y-102121203D02*
X49217869Y-102121203D01*
X49217869Y-102502155D01*
X49265489Y-102597393D01*
X49313108Y-102645012D01*
X49408346Y-102692631D01*
X49551203Y-102692631D01*
X49646441Y-102645012D01*
X49694060Y-102597393D01*
X49741679Y-102502155D01*
X49741679Y-102121203D01*
X49313108Y-103073584D02*
X49265489Y-103121203D01*
X49217869Y-103216441D01*
X49217869Y-103454536D01*
X49265489Y-103549774D01*
X49313108Y-103597393D01*
X49408346Y-103645012D01*
X49503584Y-103645012D01*
X49646441Y-103597393D01*
X50217869Y-103025965D01*
X50217869Y-103645012D01*
X49646441Y-104216441D02*
X49598822Y-104121203D01*
X49551203Y-104073584D01*
X49455965Y-104025965D01*
X49408346Y-104025965D01*
X49313108Y-104073584D01*
X49265489Y-104121203D01*
X49217869Y-104216441D01*
X49217869Y-104406917D01*
X49265489Y-104502155D01*
X49313108Y-104549774D01*
X49408346Y-104597393D01*
X49455965Y-104597393D01*
X49551203Y-104549774D01*
X49598822Y-104502155D01*
X49646441Y-104406917D01*
X49646441Y-104216441D01*
X49694060Y-104121203D01*
X49741679Y-104073584D01*
X49836917Y-104025965D01*
X50027393Y-104025965D01*
X50122631Y-104073584D01*
X50170250Y-104121203D01*
X50217869Y-104216441D01*
X50217869Y-104406917D01*
X50170250Y-104502155D01*
X50122631Y-104549774D01*
X50027393Y-104597393D01*
X49836917Y-104597393D01*
X49741679Y-104549774D01*
X49694060Y-104502155D01*
X49646441Y-104406917D01*
%TO.C,R29*%
X96225764Y-102435046D02*
X95749574Y-102101713D01*
X96225764Y-101863618D02*
X95225764Y-101863618D01*
X95225764Y-102244570D01*
X95273384Y-102339808D01*
X95321003Y-102387427D01*
X95416241Y-102435046D01*
X95559098Y-102435046D01*
X95654336Y-102387427D01*
X95701955Y-102339808D01*
X95749574Y-102244570D01*
X95749574Y-101863618D01*
X95321003Y-102815999D02*
X95273384Y-102863618D01*
X95225764Y-102958856D01*
X95225764Y-103196951D01*
X95273384Y-103292189D01*
X95321003Y-103339808D01*
X95416241Y-103387427D01*
X95511479Y-103387427D01*
X95654336Y-103339808D01*
X96225764Y-102768380D01*
X96225764Y-103387427D01*
X96225764Y-103863618D02*
X96225764Y-104054094D01*
X96178145Y-104149332D01*
X96130526Y-104196951D01*
X95987669Y-104292189D01*
X95797193Y-104339808D01*
X95416241Y-104339808D01*
X95321003Y-104292189D01*
X95273384Y-104244570D01*
X95225764Y-104149332D01*
X95225764Y-103958856D01*
X95273384Y-103863618D01*
X95321003Y-103815999D01*
X95416241Y-103768380D01*
X95654336Y-103768380D01*
X95749574Y-103815999D01*
X95797193Y-103863618D01*
X95844812Y-103958856D01*
X95844812Y-104149332D01*
X95797193Y-104244570D01*
X95749574Y-104292189D01*
X95654336Y-104339808D01*
%TO.C,R30*%
X69928346Y-98167869D02*
X70261679Y-97691679D01*
X70499774Y-98167869D02*
X70499774Y-97167869D01*
X70118822Y-97167869D01*
X70023584Y-97215489D01*
X69975965Y-97263108D01*
X69928346Y-97358346D01*
X69928346Y-97501203D01*
X69975965Y-97596441D01*
X70023584Y-97644060D01*
X70118822Y-97691679D01*
X70499774Y-97691679D01*
X69595012Y-97167869D02*
X68975965Y-97167869D01*
X69309298Y-97548822D01*
X69166441Y-97548822D01*
X69071203Y-97596441D01*
X69023584Y-97644060D01*
X68975965Y-97739298D01*
X68975965Y-97977393D01*
X69023584Y-98072631D01*
X69071203Y-98120250D01*
X69166441Y-98167869D01*
X69452155Y-98167869D01*
X69547393Y-98120250D01*
X69595012Y-98072631D01*
X68356917Y-97167869D02*
X68261679Y-97167869D01*
X68166441Y-97215489D01*
X68118822Y-97263108D01*
X68071203Y-97358346D01*
X68023584Y-97548822D01*
X68023584Y-97786917D01*
X68071203Y-97977393D01*
X68118822Y-98072631D01*
X68166441Y-98120250D01*
X68261679Y-98167869D01*
X68356917Y-98167869D01*
X68452155Y-98120250D01*
X68499774Y-98072631D01*
X68547393Y-97977393D01*
X68595012Y-97786917D01*
X68595012Y-97548822D01*
X68547393Y-97358346D01*
X68499774Y-97263108D01*
X68452155Y-97215489D01*
X68356917Y-97167869D01*
%TO.C,R31*%
X90818346Y-56187869D02*
X91151679Y-55711679D01*
X91389774Y-56187869D02*
X91389774Y-55187869D01*
X91008822Y-55187869D01*
X90913584Y-55235489D01*
X90865965Y-55283108D01*
X90818346Y-55378346D01*
X90818346Y-55521203D01*
X90865965Y-55616441D01*
X90913584Y-55664060D01*
X91008822Y-55711679D01*
X91389774Y-55711679D01*
X90485012Y-55187869D02*
X89865965Y-55187869D01*
X90199298Y-55568822D01*
X90056441Y-55568822D01*
X89961203Y-55616441D01*
X89913584Y-55664060D01*
X89865965Y-55759298D01*
X89865965Y-55997393D01*
X89913584Y-56092631D01*
X89961203Y-56140250D01*
X90056441Y-56187869D01*
X90342155Y-56187869D01*
X90437393Y-56140250D01*
X90485012Y-56092631D01*
X88913584Y-56187869D02*
X89485012Y-56187869D01*
X89199298Y-56187869D02*
X89199298Y-55187869D01*
X89294536Y-55330727D01*
X89389774Y-55425965D01*
X89485012Y-55473584D01*
D13*
%TO.C,R33*%
X51841679Y-114374060D02*
X51603584Y-114207393D01*
X51841679Y-114088346D02*
X51341679Y-114088346D01*
X51341679Y-114278822D01*
X51365489Y-114326441D01*
X51389298Y-114350250D01*
X51436917Y-114374060D01*
X51508346Y-114374060D01*
X51555965Y-114350250D01*
X51579774Y-114326441D01*
X51603584Y-114278822D01*
X51603584Y-114088346D01*
X51341679Y-114540727D02*
X51341679Y-114850250D01*
X51532155Y-114683584D01*
X51532155Y-114755012D01*
X51555965Y-114802631D01*
X51579774Y-114826441D01*
X51627393Y-114850250D01*
X51746441Y-114850250D01*
X51794060Y-114826441D01*
X51817869Y-114802631D01*
X51841679Y-114755012D01*
X51841679Y-114612155D01*
X51817869Y-114564536D01*
X51794060Y-114540727D01*
X51341679Y-115016917D02*
X51341679Y-115326441D01*
X51532155Y-115159774D01*
X51532155Y-115231203D01*
X51555965Y-115278822D01*
X51579774Y-115302631D01*
X51627393Y-115326441D01*
X51746441Y-115326441D01*
X51794060Y-115302631D01*
X51817869Y-115278822D01*
X51841679Y-115231203D01*
X51841679Y-115088346D01*
X51817869Y-115040727D01*
X51794060Y-115016917D01*
%TO.C,R34*%
X51451679Y-112054060D02*
X51213584Y-111887393D01*
X51451679Y-111768346D02*
X50951679Y-111768346D01*
X50951679Y-111958822D01*
X50975489Y-112006441D01*
X50999298Y-112030250D01*
X51046917Y-112054060D01*
X51118346Y-112054060D01*
X51165965Y-112030250D01*
X51189774Y-112006441D01*
X51213584Y-111958822D01*
X51213584Y-111768346D01*
X50951679Y-112220727D02*
X50951679Y-112530250D01*
X51142155Y-112363584D01*
X51142155Y-112435012D01*
X51165965Y-112482631D01*
X51189774Y-112506441D01*
X51237393Y-112530250D01*
X51356441Y-112530250D01*
X51404060Y-112506441D01*
X51427869Y-112482631D01*
X51451679Y-112435012D01*
X51451679Y-112292155D01*
X51427869Y-112244536D01*
X51404060Y-112220727D01*
X51118346Y-112958822D02*
X51451679Y-112958822D01*
X50927869Y-112839774D02*
X51285012Y-112720727D01*
X51285012Y-113030250D01*
%TO.C,R35*%
X96970526Y-110978856D02*
X97103860Y-110788380D01*
X97199098Y-110978856D02*
X97199098Y-110578856D01*
X97046717Y-110578856D01*
X97008622Y-110597904D01*
X96989574Y-110616951D01*
X96970526Y-110655046D01*
X96970526Y-110712189D01*
X96989574Y-110750284D01*
X97008622Y-110769332D01*
X97046717Y-110788380D01*
X97199098Y-110788380D01*
X96837193Y-110578856D02*
X96589574Y-110578856D01*
X96722907Y-110731237D01*
X96665764Y-110731237D01*
X96627669Y-110750284D01*
X96608622Y-110769332D01*
X96589574Y-110807427D01*
X96589574Y-110902665D01*
X96608622Y-110940761D01*
X96627669Y-110959808D01*
X96665764Y-110978856D01*
X96780050Y-110978856D01*
X96818145Y-110959808D01*
X96837193Y-110940761D01*
X96227669Y-110578856D02*
X96418145Y-110578856D01*
X96437193Y-110769332D01*
X96418145Y-110750284D01*
X96380050Y-110731237D01*
X96284812Y-110731237D01*
X96246717Y-110750284D01*
X96227669Y-110769332D01*
X96208622Y-110807427D01*
X96208622Y-110902665D01*
X96227669Y-110940761D01*
X96246717Y-110959808D01*
X96284812Y-110978856D01*
X96380050Y-110978856D01*
X96418145Y-110959808D01*
X96437193Y-110940761D01*
D12*
%TO.C,R38*%
X75628346Y-56577869D02*
X75961679Y-56101679D01*
X76199774Y-56577869D02*
X76199774Y-55577869D01*
X75818822Y-55577869D01*
X75723584Y-55625489D01*
X75675965Y-55673108D01*
X75628346Y-55768346D01*
X75628346Y-55911203D01*
X75675965Y-56006441D01*
X75723584Y-56054060D01*
X75818822Y-56101679D01*
X76199774Y-56101679D01*
X75295012Y-55577869D02*
X74675965Y-55577869D01*
X75009298Y-55958822D01*
X74866441Y-55958822D01*
X74771203Y-56006441D01*
X74723584Y-56054060D01*
X74675965Y-56149298D01*
X74675965Y-56387393D01*
X74723584Y-56482631D01*
X74771203Y-56530250D01*
X74866441Y-56577869D01*
X75152155Y-56577869D01*
X75247393Y-56530250D01*
X75295012Y-56482631D01*
X74104536Y-56006441D02*
X74199774Y-55958822D01*
X74247393Y-55911203D01*
X74295012Y-55815965D01*
X74295012Y-55768346D01*
X74247393Y-55673108D01*
X74199774Y-55625489D01*
X74104536Y-55577869D01*
X73914060Y-55577869D01*
X73818822Y-55625489D01*
X73771203Y-55673108D01*
X73723584Y-55768346D01*
X73723584Y-55815965D01*
X73771203Y-55911203D01*
X73818822Y-55958822D01*
X73914060Y-56006441D01*
X74104536Y-56006441D01*
X74199774Y-56054060D01*
X74247393Y-56101679D01*
X74295012Y-56196917D01*
X74295012Y-56387393D01*
X74247393Y-56482631D01*
X74199774Y-56530250D01*
X74104536Y-56577869D01*
X73914060Y-56577869D01*
X73818822Y-56530250D01*
X73771203Y-56482631D01*
X73723584Y-56387393D01*
X73723584Y-56196917D01*
X73771203Y-56101679D01*
X73818822Y-56054060D01*
X73914060Y-56006441D01*
%TO.C,R40*%
X77150369Y-70398111D02*
X76674179Y-70064778D01*
X77150369Y-69826683D02*
X76150369Y-69826683D01*
X76150369Y-70207635D01*
X76197989Y-70302873D01*
X76245608Y-70350492D01*
X76340846Y-70398111D01*
X76483703Y-70398111D01*
X76578941Y-70350492D01*
X76626560Y-70302873D01*
X76674179Y-70207635D01*
X76674179Y-69826683D01*
X76483703Y-71255254D02*
X77150369Y-71255254D01*
X76102750Y-71017159D02*
X76817036Y-70779064D01*
X76817036Y-71398111D01*
X76150369Y-71969540D02*
X76150369Y-72064778D01*
X76197989Y-72160016D01*
X76245608Y-72207635D01*
X76340846Y-72255254D01*
X76531322Y-72302873D01*
X76769417Y-72302873D01*
X76959893Y-72255254D01*
X77055131Y-72207635D01*
X77102750Y-72160016D01*
X77150369Y-72064778D01*
X77150369Y-71969540D01*
X77102750Y-71874302D01*
X77055131Y-71826683D01*
X76959893Y-71779064D01*
X76769417Y-71731445D01*
X76531322Y-71731445D01*
X76340846Y-71779064D01*
X76245608Y-71826683D01*
X76197989Y-71874302D01*
X76150369Y-71969540D01*
%TO.C,R41*%
X77170369Y-67008111D02*
X76694179Y-66674778D01*
X77170369Y-66436683D02*
X76170369Y-66436683D01*
X76170369Y-66817635D01*
X76217989Y-66912873D01*
X76265608Y-66960492D01*
X76360846Y-67008111D01*
X76503703Y-67008111D01*
X76598941Y-66960492D01*
X76646560Y-66912873D01*
X76694179Y-66817635D01*
X76694179Y-66436683D01*
X76503703Y-67865254D02*
X77170369Y-67865254D01*
X76122750Y-67627159D02*
X76837036Y-67389064D01*
X76837036Y-68008111D01*
X77170369Y-68912873D02*
X77170369Y-68341445D01*
X77170369Y-68627159D02*
X76170369Y-68627159D01*
X76313227Y-68531921D01*
X76408465Y-68436683D01*
X76456084Y-68341445D01*
%TO.C,R42*%
X85398346Y-56527869D02*
X85731679Y-56051679D01*
X85969774Y-56527869D02*
X85969774Y-55527869D01*
X85588822Y-55527869D01*
X85493584Y-55575489D01*
X85445965Y-55623108D01*
X85398346Y-55718346D01*
X85398346Y-55861203D01*
X85445965Y-55956441D01*
X85493584Y-56004060D01*
X85588822Y-56051679D01*
X85969774Y-56051679D01*
X84541203Y-55861203D02*
X84541203Y-56527869D01*
X84779298Y-55480250D02*
X85017393Y-56194536D01*
X84398346Y-56194536D01*
X84065012Y-55623108D02*
X84017393Y-55575489D01*
X83922155Y-55527869D01*
X83684060Y-55527869D01*
X83588822Y-55575489D01*
X83541203Y-55623108D01*
X83493584Y-55718346D01*
X83493584Y-55813584D01*
X83541203Y-55956441D01*
X84112631Y-56527869D01*
X83493584Y-56527869D01*
%TO.C,R43*%
X77240369Y-63098111D02*
X76764179Y-62764778D01*
X77240369Y-62526683D02*
X76240369Y-62526683D01*
X76240369Y-62907635D01*
X76287989Y-63002873D01*
X76335608Y-63050492D01*
X76430846Y-63098111D01*
X76573703Y-63098111D01*
X76668941Y-63050492D01*
X76716560Y-63002873D01*
X76764179Y-62907635D01*
X76764179Y-62526683D01*
X76573703Y-63955254D02*
X77240369Y-63955254D01*
X76192750Y-63717159D02*
X76907036Y-63479064D01*
X76907036Y-64098111D01*
X76240369Y-64383826D02*
X76240369Y-65002873D01*
X76621322Y-64669540D01*
X76621322Y-64812397D01*
X76668941Y-64907635D01*
X76716560Y-64955254D01*
X76811798Y-65002873D01*
X77049893Y-65002873D01*
X77145131Y-64955254D01*
X77192750Y-64907635D01*
X77240369Y-64812397D01*
X77240369Y-64526683D01*
X77192750Y-64431445D01*
X77145131Y-64383826D01*
D13*
%TO.C,R44*%
X96940526Y-115108856D02*
X97073860Y-114918380D01*
X97169098Y-115108856D02*
X97169098Y-114708856D01*
X97016717Y-114708856D01*
X96978622Y-114727904D01*
X96959574Y-114746951D01*
X96940526Y-114785046D01*
X96940526Y-114842189D01*
X96959574Y-114880284D01*
X96978622Y-114899332D01*
X97016717Y-114918380D01*
X97169098Y-114918380D01*
X96597669Y-114842189D02*
X96597669Y-115108856D01*
X96692907Y-114689808D02*
X96788145Y-114975523D01*
X96540526Y-114975523D01*
X96216717Y-114842189D02*
X96216717Y-115108856D01*
X96311955Y-114689808D02*
X96407193Y-114975523D01*
X96159574Y-114975523D01*
D12*
%TO.C,U1*%
X89386917Y-62725085D02*
X89386917Y-63332228D01*
X89351203Y-63403657D01*
X89315489Y-63439371D01*
X89244060Y-63475085D01*
X89101203Y-63475085D01*
X89029774Y-63439371D01*
X88994060Y-63403657D01*
X88958346Y-63332228D01*
X88958346Y-62725085D01*
X88208346Y-63475085D02*
X88636917Y-63475085D01*
X88422631Y-63475085D02*
X88422631Y-62725085D01*
X88494060Y-62832228D01*
X88565489Y-62903657D01*
X88636917Y-62939371D01*
X88404774Y-71496514D02*
X88404774Y-71925085D01*
X89154774Y-71710800D02*
X88404774Y-71710800D01*
X89154774Y-72532228D02*
X89154774Y-72175085D01*
X88404774Y-72175085D01*
X88404774Y-72925085D02*
X88404774Y-72996514D01*
X88440489Y-73067942D01*
X88476203Y-73103657D01*
X88547631Y-73139371D01*
X88690489Y-73175085D01*
X88869060Y-73175085D01*
X89011917Y-73139371D01*
X89083346Y-73103657D01*
X89119060Y-73067942D01*
X89154774Y-72996514D01*
X89154774Y-72925085D01*
X89119060Y-72853657D01*
X89083346Y-72817942D01*
X89011917Y-72782228D01*
X88869060Y-72746514D01*
X88690489Y-72746514D01*
X88547631Y-72782228D01*
X88476203Y-72817942D01*
X88440489Y-72853657D01*
X88404774Y-72925085D01*
X88404774Y-73425085D02*
X88404774Y-73925085D01*
X89154774Y-73603657D01*
X88654774Y-74532228D02*
X89154774Y-74532228D01*
X88369060Y-74353657D02*
X88904774Y-74175085D01*
X88904774Y-74639371D01*
%TO.C,U2*%
X61376917Y-100559774D02*
X61376917Y-101166917D01*
X61341203Y-101238346D01*
X61305489Y-101274060D01*
X61234060Y-101309774D01*
X61091203Y-101309774D01*
X61019774Y-101274060D01*
X60984060Y-101238346D01*
X60948346Y-101166917D01*
X60948346Y-100559774D01*
X60626917Y-100631203D02*
X60591203Y-100595489D01*
X60519774Y-100559774D01*
X60341203Y-100559774D01*
X60269774Y-100595489D01*
X60234060Y-100631203D01*
X60198346Y-100702631D01*
X60198346Y-100774060D01*
X60234060Y-100881203D01*
X60662631Y-101309774D01*
X60198346Y-101309774D01*
X60394774Y-109331203D02*
X60394774Y-109759774D01*
X61144774Y-109545489D02*
X60394774Y-109545489D01*
X61144774Y-110366917D02*
X61144774Y-110009774D01*
X60394774Y-110009774D01*
X60394774Y-110759774D02*
X60394774Y-110831203D01*
X60430489Y-110902631D01*
X60466203Y-110938346D01*
X60537631Y-110974060D01*
X60680489Y-111009774D01*
X60859060Y-111009774D01*
X61001917Y-110974060D01*
X61073346Y-110938346D01*
X61109060Y-110902631D01*
X61144774Y-110831203D01*
X61144774Y-110759774D01*
X61109060Y-110688346D01*
X61073346Y-110652631D01*
X61001917Y-110616917D01*
X60859060Y-110581203D01*
X60680489Y-110581203D01*
X60537631Y-110616917D01*
X60466203Y-110652631D01*
X60430489Y-110688346D01*
X60394774Y-110759774D01*
X60394774Y-111259774D02*
X60394774Y-111759774D01*
X61144774Y-111438346D01*
X60644774Y-112366917D02*
X61144774Y-112366917D01*
X60359060Y-112188346D02*
X60894774Y-112009774D01*
X60894774Y-112474060D01*
%TO.C,U3*%
X54122274Y-66749540D02*
X54729417Y-66749540D01*
X54800846Y-66785254D01*
X54836560Y-66820969D01*
X54872274Y-66892397D01*
X54872274Y-67035254D01*
X54836560Y-67106683D01*
X54800846Y-67142397D01*
X54729417Y-67178111D01*
X54122274Y-67178111D01*
X54122274Y-67463826D02*
X54122274Y-67928111D01*
X54407989Y-67678111D01*
X54407989Y-67785254D01*
X54443703Y-67856683D01*
X54479417Y-67892397D01*
X54550846Y-67928111D01*
X54729417Y-67928111D01*
X54800846Y-67892397D01*
X54836560Y-67856683D01*
X54872274Y-67785254D01*
X54872274Y-67570969D01*
X54836560Y-67499540D01*
X54800846Y-67463826D01*
X66072274Y-66910254D02*
X65643703Y-66910254D01*
X65857989Y-67660254D02*
X65857989Y-66910254D01*
X65036560Y-67660254D02*
X65393703Y-67660254D01*
X65393703Y-66910254D01*
X64643703Y-66910254D02*
X64572274Y-66910254D01*
X64500846Y-66945969D01*
X64465131Y-66981683D01*
X64429417Y-67053111D01*
X64393703Y-67195969D01*
X64393703Y-67374540D01*
X64429417Y-67517397D01*
X64465131Y-67588826D01*
X64500846Y-67624540D01*
X64572274Y-67660254D01*
X64643703Y-67660254D01*
X64715131Y-67624540D01*
X64750846Y-67588826D01*
X64786560Y-67517397D01*
X64822274Y-67374540D01*
X64822274Y-67195969D01*
X64786560Y-67053111D01*
X64750846Y-66981683D01*
X64715131Y-66945969D01*
X64643703Y-66910254D01*
X64143703Y-66910254D02*
X63643703Y-66910254D01*
X63965131Y-67660254D01*
X63036560Y-67160254D02*
X63036560Y-67660254D01*
X63215131Y-66874540D02*
X63393703Y-67410254D01*
X62929417Y-67410254D01*
%TO.C,U4*%
X90034812Y-100397189D02*
X90034812Y-101004332D01*
X89999098Y-101075761D01*
X89963384Y-101111475D01*
X89891955Y-101147189D01*
X89749098Y-101147189D01*
X89677669Y-101111475D01*
X89641955Y-101075761D01*
X89606241Y-101004332D01*
X89606241Y-100397189D01*
X88927669Y-100647189D02*
X88927669Y-101147189D01*
X89106241Y-100361475D02*
X89284812Y-100897189D01*
X88820526Y-100897189D01*
X89588384Y-110063618D02*
X89588384Y-110420761D01*
X89802669Y-109992189D02*
X89052669Y-110242189D01*
X89802669Y-110492189D01*
X89766955Y-110706475D02*
X89802669Y-110813618D01*
X89802669Y-110992189D01*
X89766955Y-111063618D01*
X89731241Y-111099332D01*
X89659812Y-111135046D01*
X89588384Y-111135046D01*
X89516955Y-111099332D01*
X89481241Y-111063618D01*
X89445526Y-110992189D01*
X89409812Y-110849332D01*
X89374098Y-110777904D01*
X89338384Y-110742189D01*
X89266955Y-110706475D01*
X89195526Y-110706475D01*
X89124098Y-110742189D01*
X89088384Y-110777904D01*
X89052669Y-110849332D01*
X89052669Y-111027904D01*
X89088384Y-111135046D01*
X89052669Y-111385046D02*
X89052669Y-111849332D01*
X89338384Y-111599332D01*
X89338384Y-111706475D01*
X89374098Y-111777904D01*
X89409812Y-111813618D01*
X89481241Y-111849332D01*
X89659812Y-111849332D01*
X89731241Y-111813618D01*
X89766955Y-111777904D01*
X89802669Y-111706475D01*
X89802669Y-111492189D01*
X89766955Y-111420761D01*
X89731241Y-111385046D01*
X89052669Y-112099332D02*
X89052669Y-112563618D01*
X89338384Y-112313618D01*
X89338384Y-112420761D01*
X89374098Y-112492189D01*
X89409812Y-112527904D01*
X89481241Y-112563618D01*
X89659812Y-112563618D01*
X89731241Y-112527904D01*
X89766955Y-112492189D01*
X89802669Y-112420761D01*
X89802669Y-112206475D01*
X89766955Y-112135046D01*
X89731241Y-112099332D01*
X89802669Y-113277904D02*
X89802669Y-112849332D01*
X89802669Y-113063618D02*
X89052669Y-113063618D01*
X89159812Y-112992189D01*
X89231241Y-112920761D01*
X89266955Y-112849332D01*
X89052669Y-113742189D02*
X89052669Y-113813618D01*
X89088384Y-113885046D01*
X89124098Y-113920761D01*
X89195526Y-113956475D01*
X89338384Y-113992189D01*
X89516955Y-113992189D01*
X89659812Y-113956475D01*
X89731241Y-113920761D01*
X89766955Y-113885046D01*
X89802669Y-113813618D01*
X89802669Y-113742189D01*
X89766955Y-113670761D01*
X89731241Y-113635046D01*
X89659812Y-113599332D01*
X89516955Y-113563618D01*
X89338384Y-113563618D01*
X89195526Y-113599332D01*
X89124098Y-113635046D01*
X89088384Y-113670761D01*
X89052669Y-113742189D01*
%TO.C,D4*%
X77197869Y-125647393D02*
X76197869Y-125647393D01*
X76197869Y-125885489D01*
X76245489Y-126028346D01*
X76340727Y-126123584D01*
X76435965Y-126171203D01*
X76626441Y-126218822D01*
X76769298Y-126218822D01*
X76959774Y-126171203D01*
X77055012Y-126123584D01*
X77150250Y-126028346D01*
X77197869Y-125885489D01*
X77197869Y-125647393D01*
X76531203Y-127075965D02*
X77197869Y-127075965D01*
X76150250Y-126837869D02*
X76864536Y-126599774D01*
X76864536Y-127218822D01*
%TO.C,C12*%
X52087906Y-60898826D02*
X52123620Y-60863111D01*
X52159334Y-60755969D01*
X52159334Y-60684540D01*
X52123620Y-60577397D01*
X52052191Y-60505969D01*
X51980763Y-60470254D01*
X51837906Y-60434540D01*
X51730763Y-60434540D01*
X51587906Y-60470254D01*
X51516477Y-60505969D01*
X51445049Y-60577397D01*
X51409334Y-60684540D01*
X51409334Y-60755969D01*
X51445049Y-60863111D01*
X51480763Y-60898826D01*
X52159334Y-61613111D02*
X52159334Y-61184540D01*
X52159334Y-61398826D02*
X51409334Y-61398826D01*
X51516477Y-61327397D01*
X51587906Y-61255969D01*
X51623620Y-61184540D01*
X51480763Y-61898826D02*
X51445049Y-61934540D01*
X51409334Y-62005969D01*
X51409334Y-62184540D01*
X51445049Y-62255969D01*
X51480763Y-62291683D01*
X51552191Y-62327397D01*
X51623620Y-62327397D01*
X51730763Y-62291683D01*
X52159334Y-61863111D01*
X52159334Y-62327397D01*
%TO.C,R47*%
X50708346Y-93467869D02*
X51041679Y-92991679D01*
X51279774Y-93467869D02*
X51279774Y-92467869D01*
X50898822Y-92467869D01*
X50803584Y-92515489D01*
X50755965Y-92563108D01*
X50708346Y-92658346D01*
X50708346Y-92801203D01*
X50755965Y-92896441D01*
X50803584Y-92944060D01*
X50898822Y-92991679D01*
X51279774Y-92991679D01*
X49851203Y-92801203D02*
X49851203Y-93467869D01*
X50089298Y-92420250D02*
X50327393Y-93134536D01*
X49708346Y-93134536D01*
X49422631Y-92467869D02*
X48755965Y-92467869D01*
X49184536Y-93467869D01*
%TO.C,R48*%
X53648346Y-98487869D02*
X53981679Y-98011679D01*
X54219774Y-98487869D02*
X54219774Y-97487869D01*
X53838822Y-97487869D01*
X53743584Y-97535489D01*
X53695965Y-97583108D01*
X53648346Y-97678346D01*
X53648346Y-97821203D01*
X53695965Y-97916441D01*
X53743584Y-97964060D01*
X53838822Y-98011679D01*
X54219774Y-98011679D01*
X52791203Y-97821203D02*
X52791203Y-98487869D01*
X53029298Y-97440250D02*
X53267393Y-98154536D01*
X52648346Y-98154536D01*
X52124536Y-97916441D02*
X52219774Y-97868822D01*
X52267393Y-97821203D01*
X52315012Y-97725965D01*
X52315012Y-97678346D01*
X52267393Y-97583108D01*
X52219774Y-97535489D01*
X52124536Y-97487869D01*
X51934060Y-97487869D01*
X51838822Y-97535489D01*
X51791203Y-97583108D01*
X51743584Y-97678346D01*
X51743584Y-97725965D01*
X51791203Y-97821203D01*
X51838822Y-97868822D01*
X51934060Y-97916441D01*
X52124536Y-97916441D01*
X52219774Y-97964060D01*
X52267393Y-98011679D01*
X52315012Y-98106917D01*
X52315012Y-98297393D01*
X52267393Y-98392631D01*
X52219774Y-98440250D01*
X52124536Y-98487869D01*
X51934060Y-98487869D01*
X51838822Y-98440250D01*
X51791203Y-98392631D01*
X51743584Y-98297393D01*
X51743584Y-98106917D01*
X51791203Y-98011679D01*
X51838822Y-97964060D01*
X51934060Y-97916441D01*
%TO.C,U5*%
X59450399Y-94795574D02*
X59450399Y-95402717D01*
X59414685Y-95474146D01*
X59378971Y-95509860D01*
X59307542Y-95545574D01*
X59164685Y-95545574D01*
X59093256Y-95509860D01*
X59057542Y-95474146D01*
X59021828Y-95402717D01*
X59021828Y-94795574D01*
X58307542Y-94795574D02*
X58664685Y-94795574D01*
X58700399Y-95152717D01*
X58664685Y-95117003D01*
X58593256Y-95081289D01*
X58414685Y-95081289D01*
X58343256Y-95117003D01*
X58307542Y-95152717D01*
X58271828Y-95224146D01*
X58271828Y-95402717D01*
X58307542Y-95474146D01*
X58343256Y-95509860D01*
X58414685Y-95545574D01*
X58593256Y-95545574D01*
X58664685Y-95509860D01*
X58700399Y-95474146D01*
X60478256Y-87767003D02*
X60478256Y-88195574D01*
X61228256Y-87981289D02*
X60478256Y-87981289D01*
X61228256Y-88802717D02*
X61228256Y-88445574D01*
X60478256Y-88445574D01*
X60478256Y-89195574D02*
X60478256Y-89267003D01*
X60513971Y-89338431D01*
X60549685Y-89374146D01*
X60621113Y-89409860D01*
X60763971Y-89445574D01*
X60942542Y-89445574D01*
X61085399Y-89409860D01*
X61156828Y-89374146D01*
X61192542Y-89338431D01*
X61228256Y-89267003D01*
X61228256Y-89195574D01*
X61192542Y-89124146D01*
X61156828Y-89088431D01*
X61085399Y-89052717D01*
X60942542Y-89017003D01*
X60763971Y-89017003D01*
X60621113Y-89052717D01*
X60549685Y-89088431D01*
X60513971Y-89124146D01*
X60478256Y-89195574D01*
X60478256Y-89695574D02*
X60478256Y-90195574D01*
X61228256Y-89874146D01*
X60549685Y-90445574D02*
X60513971Y-90481289D01*
X60478256Y-90552717D01*
X60478256Y-90731289D01*
X60513971Y-90802717D01*
X60549685Y-90838431D01*
X60621113Y-90874146D01*
X60692542Y-90874146D01*
X60799685Y-90838431D01*
X61228256Y-90409860D01*
X61228256Y-90874146D01*
%TO.C,C13*%
X53057631Y-73473346D02*
X53093346Y-73509060D01*
X53200489Y-73544774D01*
X53271917Y-73544774D01*
X53379060Y-73509060D01*
X53450489Y-73437631D01*
X53486203Y-73366203D01*
X53521917Y-73223346D01*
X53521917Y-73116203D01*
X53486203Y-72973346D01*
X53450489Y-72901917D01*
X53379060Y-72830489D01*
X53271917Y-72794774D01*
X53200489Y-72794774D01*
X53093346Y-72830489D01*
X53057631Y-72866203D01*
X52343346Y-73544774D02*
X52771917Y-73544774D01*
X52557631Y-73544774D02*
X52557631Y-72794774D01*
X52629060Y-72901917D01*
X52700489Y-72973346D01*
X52771917Y-73009060D01*
X52093346Y-72794774D02*
X51629060Y-72794774D01*
X51879060Y-73080489D01*
X51771917Y-73080489D01*
X51700489Y-73116203D01*
X51664774Y-73151917D01*
X51629060Y-73223346D01*
X51629060Y-73401917D01*
X51664774Y-73473346D01*
X51700489Y-73509060D01*
X51771917Y-73544774D01*
X51986203Y-73544774D01*
X52057631Y-73509060D01*
X52093346Y-73473346D01*
D15*
%TO.C,C1*%
X88457489Y-137876489D02*
X89965489Y-137876489D01*
X87775489Y-135875489D02*
X94235489Y-135875489D01*
X92045489Y-137996489D02*
X93455489Y-137996489D01*
X92045489Y-136636489D02*
X94146489Y-136636489D01*
X87919489Y-136836489D02*
X89965489Y-136836489D01*
X92045489Y-138116489D02*
X93348489Y-138116489D01*
X87987489Y-137036489D02*
X89965489Y-137036489D01*
X88109489Y-137316489D02*
X89965489Y-137316489D01*
X92045489Y-136155489D02*
X94223489Y-136155489D01*
X89424489Y-138716489D02*
X92586489Y-138716489D01*
X88662489Y-138116489D02*
X89965489Y-138116489D01*
X88315489Y-137676489D02*
X89965489Y-137676489D01*
X87799489Y-136275489D02*
X89965489Y-136275489D01*
X87790489Y-136195489D02*
X89965489Y-136195489D01*
X92045489Y-136195489D02*
X94220489Y-136195489D01*
X88215489Y-137516489D02*
X89965489Y-137516489D01*
X92045489Y-137476489D02*
X93817489Y-137476489D01*
X88341489Y-137716489D02*
X89965489Y-137716489D01*
X89840489Y-138916489D02*
X92170489Y-138916489D01*
X92045489Y-137836489D02*
X93583489Y-137836489D01*
X92045489Y-136676489D02*
X94136489Y-136676489D01*
X92045489Y-137756489D02*
X93641489Y-137756489D01*
X87816489Y-136395489D02*
X89965489Y-136395489D01*
X92045489Y-137036489D02*
X94023489Y-137036489D01*
X87781489Y-136075489D02*
X94229489Y-136075489D01*
X88089489Y-137276489D02*
X89965489Y-137276489D01*
X92045489Y-137276489D02*
X93921489Y-137276489D01*
X92045489Y-136115489D02*
X94227489Y-136115489D01*
X87958489Y-136956489D02*
X89965489Y-136956489D01*
X92045489Y-136275489D02*
X94211489Y-136275489D01*
X92045489Y-137236489D02*
X93939489Y-137236489D01*
X89291489Y-138636489D02*
X92719489Y-138636489D01*
X87830489Y-136475489D02*
X89965489Y-136475489D01*
X92045489Y-136876489D02*
X94079489Y-136876489D01*
X87874489Y-136676489D02*
X89965489Y-136676489D01*
X88239489Y-137556489D02*
X89965489Y-137556489D01*
X92045489Y-136315489D02*
X94206489Y-136315489D01*
X88589489Y-138036489D02*
X89965489Y-138036489D01*
X88263489Y-137596489D02*
X89965489Y-137596489D01*
X88369489Y-137756489D02*
X89965489Y-137756489D01*
X89496489Y-138756489D02*
X92514489Y-138756489D01*
X88019489Y-137116489D02*
X89965489Y-137116489D01*
X87884489Y-136716489D02*
X89965489Y-136716489D01*
X88035489Y-137156489D02*
X89965489Y-137156489D01*
X92045489Y-136435489D02*
X94187489Y-136435489D01*
X92045489Y-136235489D02*
X94216489Y-136235489D01*
X92045489Y-137796489D02*
X93612489Y-137796489D01*
X92045489Y-137956489D02*
X93489489Y-137956489D01*
X92045489Y-138076489D02*
X93385489Y-138076489D01*
X92045489Y-137636489D02*
X93721489Y-137636489D01*
X92045489Y-137676489D02*
X93695489Y-137676489D01*
X90065489Y-138996489D02*
X91945489Y-138996489D01*
X92045489Y-136515489D02*
X94172489Y-136515489D01*
X88289489Y-137636489D02*
X89965489Y-137636489D01*
X90203489Y-139036489D02*
X91807489Y-139036489D01*
X88740489Y-138196489D02*
X93270489Y-138196489D01*
X92045489Y-137516489D02*
X93795489Y-137516489D01*
X92045489Y-137356489D02*
X93881489Y-137356489D01*
X88149489Y-137396489D02*
X89965489Y-137396489D01*
X88193489Y-137476489D02*
X89965489Y-137476489D01*
X89010489Y-138436489D02*
X93000489Y-138436489D01*
X87907489Y-136796489D02*
X89965489Y-136796489D01*
X92045489Y-137716489D02*
X93669489Y-137716489D01*
X92045489Y-136996489D02*
X94038489Y-136996489D01*
X90603489Y-139116489D02*
X91407489Y-139116489D01*
X88071489Y-137236489D02*
X89965489Y-137236489D01*
X92045489Y-136916489D02*
X94066489Y-136916489D01*
X89743489Y-138876489D02*
X92267489Y-138876489D01*
X89655489Y-138836489D02*
X92355489Y-138836489D01*
X87972489Y-136996489D02*
X89965489Y-136996489D01*
X88398489Y-137796489D02*
X89965489Y-137796489D01*
X92045489Y-136956489D02*
X94052489Y-136956489D01*
X92045489Y-136475489D02*
X94180489Y-136475489D01*
X88003489Y-137076489D02*
X89965489Y-137076489D01*
X89229489Y-138596489D02*
X92781489Y-138596489D01*
X87838489Y-136515489D02*
X89965489Y-136515489D01*
X88851489Y-132690248D02*
X89481489Y-132690248D01*
X87778489Y-136035489D02*
X94232489Y-136035489D01*
X87895489Y-136756489D02*
X89965489Y-136756489D01*
X92045489Y-137876489D02*
X93553489Y-137876489D01*
X92045489Y-137596489D02*
X93747489Y-137596489D01*
X87804489Y-136315489D02*
X89965489Y-136315489D01*
X89166489Y-132375248D02*
X89166489Y-133005248D01*
X88521489Y-137956489D02*
X89965489Y-137956489D01*
X88171489Y-137436489D02*
X89965489Y-137436489D01*
X87777489Y-135995489D02*
X94233489Y-135995489D01*
X87775489Y-135915489D02*
X94235489Y-135915489D01*
X89061489Y-138476489D02*
X92949489Y-138476489D01*
X92045489Y-137436489D02*
X93839489Y-137436489D01*
X89946489Y-138956489D02*
X92064489Y-138956489D01*
X92045489Y-138036489D02*
X93421489Y-138036489D01*
X87783489Y-136115489D02*
X89965489Y-136115489D01*
X88129489Y-137356489D02*
X89965489Y-137356489D01*
X87846489Y-136555489D02*
X89965489Y-136555489D01*
X92045489Y-136716489D02*
X94126489Y-136716489D01*
X92045489Y-136796489D02*
X94103489Y-136796489D01*
X87794489Y-136235489D02*
X89965489Y-136235489D01*
X92045489Y-137196489D02*
X93957489Y-137196489D01*
X89171489Y-138556489D02*
X92839489Y-138556489D01*
X88781489Y-138236489D02*
X93229489Y-138236489D01*
X87864489Y-136636489D02*
X89965489Y-136636489D01*
X88625489Y-138076489D02*
X89965489Y-138076489D01*
X89355489Y-138676489D02*
X92655489Y-138676489D01*
X89573489Y-138796489D02*
X92437489Y-138796489D01*
X92045489Y-136756489D02*
X94115489Y-136756489D01*
X92045489Y-138156489D02*
X93310489Y-138156489D01*
X92045489Y-137916489D02*
X93521489Y-137916489D01*
X88053489Y-137196489D02*
X89965489Y-137196489D01*
X92045489Y-137396489D02*
X93861489Y-137396489D01*
X87944489Y-136916489D02*
X89965489Y-136916489D01*
X87823489Y-136435489D02*
X89965489Y-136435489D01*
X92045489Y-137116489D02*
X93991489Y-137116489D01*
X92045489Y-137556489D02*
X93771489Y-137556489D01*
X88868489Y-138316489D02*
X93142489Y-138316489D01*
X88913489Y-138356489D02*
X93097489Y-138356489D01*
X88489489Y-137916489D02*
X89965489Y-137916489D01*
X88961489Y-138396489D02*
X93049489Y-138396489D01*
X92045489Y-136395489D02*
X94194489Y-136395489D01*
X87855489Y-136596489D02*
X89965489Y-136596489D01*
X88427489Y-137836489D02*
X89965489Y-137836489D01*
X87775489Y-135955489D02*
X94235489Y-135955489D01*
X92045489Y-136555489D02*
X94164489Y-136555489D01*
X92045489Y-137156489D02*
X93975489Y-137156489D01*
X92045489Y-136355489D02*
X94200489Y-136355489D01*
X88823489Y-138276489D02*
X93187489Y-138276489D01*
X92045489Y-137316489D02*
X93901489Y-137316489D01*
X89115489Y-138516489D02*
X92895489Y-138516489D01*
X92045489Y-137076489D02*
X94007489Y-137076489D01*
X87931489Y-136876489D02*
X89965489Y-136876489D01*
X92045489Y-136836489D02*
X94091489Y-136836489D01*
X88700489Y-138156489D02*
X89965489Y-138156489D01*
X92045489Y-136596489D02*
X94155489Y-136596489D01*
X90372489Y-139076489D02*
X91638489Y-139076489D01*
X87787489Y-136155489D02*
X89965489Y-136155489D01*
X88555489Y-137996489D02*
X89965489Y-137996489D01*
X87810489Y-136355489D02*
X89965489Y-136355489D01*
X94275489Y-135875489D02*
G75*
G03*
X94275489Y-135875489I-3270000J0D01*
G01*
%TO.C,C2*%
X63058489Y-132274489D02*
X61792489Y-132274489D01*
X63484489Y-132394489D02*
X61366489Y-132394489D01*
X63590489Y-132434489D02*
X61260489Y-132434489D01*
X64006489Y-132634489D02*
X60844489Y-132634489D01*
X65655489Y-135395489D02*
X59195489Y-135395489D01*
X63934489Y-132594489D02*
X60916489Y-132594489D01*
X64562489Y-133034489D02*
X60288489Y-133034489D01*
X61385489Y-134955489D02*
X59236489Y-134955489D01*
X64875489Y-133354489D02*
X63465489Y-133354489D01*
X64469489Y-132954489D02*
X60381489Y-132954489D01*
X63365489Y-132354489D02*
X61485489Y-132354489D01*
X61385489Y-133594489D02*
X59789489Y-133594489D01*
X61385489Y-133994489D02*
X59549489Y-133994489D01*
X65443489Y-134314489D02*
X63465489Y-134314489D01*
X64768489Y-133234489D02*
X63465489Y-133234489D01*
X63775489Y-132514489D02*
X61075489Y-132514489D01*
X64259489Y-132794489D02*
X60591489Y-132794489D01*
X63857489Y-132554489D02*
X60993489Y-132554489D01*
X61385489Y-134634489D02*
X59304489Y-134634489D01*
X64607489Y-133074489D02*
X60243489Y-133074489D01*
X65061489Y-133594489D02*
X63465489Y-133594489D01*
X64973489Y-133474489D02*
X63465489Y-133474489D01*
X61385489Y-134474489D02*
X59351489Y-134474489D01*
X61385489Y-134875489D02*
X59250489Y-134875489D01*
X64941489Y-133434489D02*
X63465489Y-133434489D01*
X65115489Y-133674489D02*
X63465489Y-133674489D01*
X61385489Y-133634489D02*
X59761489Y-133634489D01*
X61385489Y-133554489D02*
X59818489Y-133554489D01*
X61385489Y-135195489D02*
X59207489Y-135195489D01*
X62827489Y-132234489D02*
X62023489Y-132234489D01*
X61385489Y-134714489D02*
X59284489Y-134714489D01*
X64139489Y-132714489D02*
X60711489Y-132714489D01*
X64201489Y-132754489D02*
X60649489Y-132754489D01*
X61385489Y-134754489D02*
X59275489Y-134754489D01*
X64369489Y-132874489D02*
X60481489Y-132874489D01*
X61385489Y-133354489D02*
X59975489Y-133354489D01*
X61385489Y-133834489D02*
X59635489Y-133834489D01*
X65237489Y-133874489D02*
X63465489Y-133874489D01*
X65631489Y-135075489D02*
X63465489Y-135075489D01*
X61385489Y-135155489D02*
X59210489Y-135155489D01*
X61385489Y-134835489D02*
X59258489Y-134835489D01*
X61385489Y-134354489D02*
X59392489Y-134354489D01*
X61385489Y-133714489D02*
X59709489Y-133714489D01*
X61385489Y-135115489D02*
X59214489Y-135115489D01*
X65523489Y-134554489D02*
X63465489Y-134554489D01*
X63227489Y-132314489D02*
X61623489Y-132314489D01*
X65486489Y-134434489D02*
X63465489Y-134434489D01*
X61385489Y-134434489D02*
X59364489Y-134434489D01*
X65556489Y-134674489D02*
X63465489Y-134674489D01*
X65592489Y-134835489D02*
X63465489Y-134835489D01*
X65301489Y-133994489D02*
X63465489Y-133994489D01*
X64909489Y-133394489D02*
X63465489Y-133394489D01*
X61385489Y-133754489D02*
X59683489Y-133754489D01*
X61385489Y-133394489D02*
X59941489Y-133394489D01*
X65626489Y-135035489D02*
X63465489Y-135035489D01*
X64805489Y-133274489D02*
X63465489Y-133274489D01*
X61385489Y-133514489D02*
X59847489Y-133514489D01*
X61385489Y-134394489D02*
X59378489Y-134394489D01*
X64649489Y-133114489D02*
X60201489Y-133114489D01*
X64420489Y-132914489D02*
X60430489Y-132914489D01*
X65636489Y-135115489D02*
X63465489Y-135115489D01*
X65427489Y-134274489D02*
X63465489Y-134274489D01*
X61385489Y-134554489D02*
X59327489Y-134554489D01*
X64315489Y-132834489D02*
X60535489Y-132834489D01*
X65653489Y-135355489D02*
X59197489Y-135355489D01*
X61385489Y-134034489D02*
X59529489Y-134034489D01*
X61385489Y-135035489D02*
X59224489Y-135035489D01*
X65511489Y-134514489D02*
X63465489Y-134514489D01*
X65620489Y-134995489D02*
X63465489Y-134995489D01*
X65607489Y-134915489D02*
X63465489Y-134915489D01*
X65535489Y-134594489D02*
X63465489Y-134594489D01*
X61385489Y-133674489D02*
X59735489Y-133674489D01*
X61385489Y-135075489D02*
X59219489Y-135075489D01*
X64730489Y-133194489D02*
X63465489Y-133194489D01*
X61385489Y-133274489D02*
X60045489Y-133274489D01*
X65652489Y-135315489D02*
X59198489Y-135315489D01*
X61385489Y-134074489D02*
X59509489Y-134074489D01*
X65341489Y-134074489D02*
X63465489Y-134074489D01*
X65259489Y-133914489D02*
X63465489Y-133914489D01*
X65499489Y-134474489D02*
X63465489Y-134474489D01*
X65089489Y-133634489D02*
X63465489Y-133634489D01*
X65458489Y-134354489D02*
X63465489Y-134354489D01*
X64264489Y-138975730D02*
X64264489Y-138345730D01*
X61385489Y-134194489D02*
X59455489Y-134194489D01*
X65649489Y-135275489D02*
X59201489Y-135275489D01*
X65600489Y-134875489D02*
X63465489Y-134875489D01*
X61385489Y-134995489D02*
X59230489Y-134995489D01*
X61385489Y-134114489D02*
X59491489Y-134114489D01*
X65655489Y-135475489D02*
X59195489Y-135475489D01*
X65215489Y-133834489D02*
X63465489Y-133834489D01*
X65647489Y-135235489D02*
X63465489Y-135235489D01*
X61385489Y-134234489D02*
X59439489Y-134234489D01*
X65321489Y-134034489D02*
X63465489Y-134034489D01*
X64579489Y-138660730D02*
X63949489Y-138660730D01*
X61385489Y-134674489D02*
X59294489Y-134674489D01*
X65472489Y-134394489D02*
X63465489Y-134394489D01*
X61385489Y-134594489D02*
X59315489Y-134594489D01*
X61385489Y-134795489D02*
X59266489Y-134795489D01*
X61385489Y-133434489D02*
X59909489Y-133434489D01*
X65281489Y-133954489D02*
X63465489Y-133954489D01*
X61385489Y-134274489D02*
X59423489Y-134274489D01*
X61385489Y-134314489D02*
X59407489Y-134314489D01*
X65643489Y-135195489D02*
X63465489Y-135195489D01*
X65141489Y-133714489D02*
X63465489Y-133714489D01*
X61385489Y-135235489D02*
X59203489Y-135235489D01*
X65575489Y-134754489D02*
X63465489Y-134754489D01*
X65566489Y-134714489D02*
X63465489Y-134714489D01*
X63687489Y-132474489D02*
X61163489Y-132474489D01*
X65546489Y-134634489D02*
X63465489Y-134634489D01*
X64841489Y-133314489D02*
X63465489Y-133314489D01*
X65655489Y-135435489D02*
X59195489Y-135435489D01*
X61385489Y-134154489D02*
X59473489Y-134154489D01*
X65191489Y-133794489D02*
X63465489Y-133794489D01*
X65614489Y-134955489D02*
X63465489Y-134955489D01*
X61385489Y-133194489D02*
X60120489Y-133194489D01*
X65584489Y-134795489D02*
X63465489Y-134795489D01*
X65411489Y-134234489D02*
X63465489Y-134234489D01*
X65167489Y-133754489D02*
X63465489Y-133754489D01*
X65395489Y-134194489D02*
X63465489Y-134194489D01*
X61385489Y-133874489D02*
X59613489Y-133874489D01*
X65003489Y-133514489D02*
X63465489Y-133514489D01*
X65032489Y-133554489D02*
X63465489Y-133554489D01*
X61385489Y-133794489D02*
X59659489Y-133794489D01*
X61385489Y-133234489D02*
X60082489Y-133234489D01*
X61385489Y-133954489D02*
X59569489Y-133954489D01*
X64075489Y-132674489D02*
X60775489Y-132674489D01*
X65359489Y-134114489D02*
X63465489Y-134114489D01*
X61385489Y-133914489D02*
X59591489Y-133914489D01*
X64690489Y-133154489D02*
X60160489Y-133154489D01*
X64517489Y-132994489D02*
X60333489Y-132994489D01*
X61385489Y-134915489D02*
X59243489Y-134915489D01*
X61385489Y-133314489D02*
X60009489Y-133314489D01*
X61385489Y-133474489D02*
X59877489Y-133474489D01*
X65640489Y-135155489D02*
X63465489Y-135155489D01*
X65377489Y-134154489D02*
X63465489Y-134154489D01*
X61385489Y-134514489D02*
X59339489Y-134514489D01*
X65695489Y-135475489D02*
G75*
G03*
X65695489Y-135475489I-3270000J0D01*
G01*
%TO.C,C3*%
X95345489Y-75144800D02*
X95345489Y-73886800D01*
X97185489Y-75144800D02*
X97185489Y-73886800D01*
%TO.C,C4*%
X67160489Y-112953429D02*
X67160489Y-111695429D01*
X69000489Y-112953429D02*
X69000489Y-111695429D01*
%TO.C,C5*%
X60949971Y-94986289D02*
X62207971Y-94986289D01*
X60949971Y-96826289D02*
X62207971Y-96826289D01*
%TO.C,C6*%
X81075489Y-74974800D02*
X81075489Y-73716800D01*
X82915489Y-74974800D02*
X82915489Y-73716800D01*
%TO.C,C7*%
X53250489Y-107875429D02*
X53250489Y-109133429D01*
X55090489Y-107875429D02*
X55090489Y-109133429D01*
%TO.C,C8*%
X54998971Y-83277289D02*
X54998971Y-84535289D01*
X53158971Y-83277289D02*
X53158971Y-84535289D01*
%TO.C,C9*%
X90776489Y-84625800D02*
X92034489Y-84625800D01*
X90776489Y-82785800D02*
X92034489Y-82785800D01*
%TO.C,C10*%
X97613384Y-119038904D02*
X97613384Y-120296904D01*
X95773384Y-119038904D02*
X95773384Y-120296904D01*
%TO.C,C11*%
X92395489Y-98396489D02*
X92395489Y-99654489D01*
X94235489Y-98396489D02*
X94235489Y-99654489D01*
%TO.C,D1*%
X96934238Y-136341464D02*
X101390425Y-133221208D01*
X101390425Y-133221208D02*
X103076740Y-135629515D01*
X98620552Y-138749771D02*
X96934238Y-136341464D01*
X96941860Y-138130665D02*
X97777395Y-137545617D01*
X100751486Y-133668598D02*
X102437801Y-136076905D01*
X100653188Y-133737427D02*
X102339503Y-136145734D01*
X100554890Y-133806256D02*
X102241204Y-136214563D01*
X103069117Y-133840313D02*
X102233582Y-134425361D01*
X103076740Y-135629515D02*
X98620552Y-138749771D01*
%TO.C,D3*%
X97800489Y-63790800D02*
X97800489Y-67675800D01*
X95530489Y-63790800D02*
X97800489Y-63790800D01*
X95530489Y-67675800D02*
X95530489Y-63790800D01*
%TO.C,D5*%
X56444424Y-137785489D02*
X55561078Y-137275489D01*
X54826078Y-138548546D02*
X50114900Y-135828546D01*
X55516655Y-135552432D02*
X54046655Y-138098546D01*
X55412732Y-135492432D02*
X53942732Y-138038546D01*
X50114900Y-135828546D02*
X51584900Y-133282432D01*
X55620578Y-135612432D02*
X54150578Y-138158546D01*
X49966554Y-134045489D02*
X50849900Y-134555489D01*
X56296078Y-136002432D02*
X54826078Y-138548546D01*
X51584900Y-133282432D02*
X56296078Y-136002432D01*
%TO.C,D6*%
X64397989Y-61215969D02*
X60512989Y-61215969D01*
X60512989Y-61215969D02*
X60512989Y-58945969D01*
X60512989Y-58945969D02*
X64397989Y-58945969D01*
%TO.C,D7*%
X71400489Y-105460489D02*
X69130489Y-105460489D01*
X71400489Y-101575489D02*
X71400489Y-105460489D01*
X69130489Y-105460489D02*
X69130489Y-101575489D01*
%TO.C,D10*%
X78082989Y-69885969D02*
X78082989Y-66000969D01*
X80352989Y-66000969D02*
X80352989Y-69885969D01*
X80352989Y-69885969D02*
X78082989Y-69885969D01*
%TO.C,D11*%
X74090489Y-125230489D02*
X74090489Y-127500489D01*
X70205489Y-125230489D02*
X74090489Y-125230489D01*
X74090489Y-127500489D02*
X70205489Y-127500489D01*
%TO.C,D12*%
X64380489Y-121900489D02*
X68265489Y-121900489D01*
X64380489Y-124170489D02*
X64380489Y-121900489D01*
X68265489Y-124170489D02*
X64380489Y-124170489D01*
%TO.C,D13*%
X64540489Y-125160489D02*
X68425489Y-125160489D01*
X64540489Y-127430489D02*
X64540489Y-125160489D01*
X68425489Y-127430489D02*
X64540489Y-127430489D01*
%TO.C,J1*%
X66490489Y-131465489D02*
X66490489Y-140315489D01*
X86290489Y-139765489D02*
X86290489Y-132015489D01*
X86840489Y-140315489D02*
X86840489Y-131465489D01*
X86290489Y-132015489D02*
X78940489Y-132015489D01*
X78920489Y-132015489D02*
X78920489Y-131505489D01*
X86290489Y-132015489D02*
X86790489Y-131515489D01*
X66240489Y-140560489D02*
X87100489Y-140560489D01*
X67040489Y-139765489D02*
X86290489Y-139765489D01*
X67040489Y-132015489D02*
X67040489Y-139765489D01*
X87100489Y-131210489D02*
X66240489Y-131210489D01*
X66490489Y-140315489D02*
X86840489Y-140315489D01*
X67040489Y-139765489D02*
X66490489Y-140315489D01*
X66490489Y-131465489D02*
X67040489Y-132015489D01*
X86290489Y-139765489D02*
X86840489Y-140315489D01*
X74420489Y-131515489D02*
X74420489Y-131995489D01*
X87100489Y-140560489D02*
X87100489Y-131210489D01*
X66240489Y-131210489D02*
X66240489Y-140560489D01*
X74420489Y-132015489D02*
X67040489Y-132015489D01*
X86840489Y-131465489D02*
X66490489Y-131465489D01*
%TO.C,Q1*%
X92255489Y-59355489D02*
X92255489Y-55755489D01*
X92255489Y-59355489D02*
G75*
G03*
X92982694Y-59879673I1849994J1799991D01*
G01*
X95204296Y-59911889D02*
G75*
G03*
X96705489Y-57555489I-1098804J2356399D01*
G01*
X92982694Y-55231305D02*
G75*
G03*
X92255489Y-55755489I1122789J-2324175D01*
G01*
X96705489Y-57555489D02*
G75*
G03*
X95204296Y-55199089I-2600002J-2D01*
G01*
%TO.C,Q2*%
X78299239Y-59485489D02*
X78299239Y-55885489D01*
X82749239Y-57685489D02*
G75*
G03*
X81248046Y-55329089I-2600002J-2D01*
G01*
X81248046Y-60041889D02*
G75*
G03*
X82749239Y-57685489I-1098804J2356399D01*
G01*
X79026444Y-55361305D02*
G75*
G03*
X78299239Y-55885489I1122789J-2324175D01*
G01*
X78299239Y-59485489D02*
G75*
G03*
X79026444Y-60009673I1849994J1799991D01*
G01*
%TO.C,R1*%
X68365489Y-103927365D02*
X68365489Y-104381493D01*
X66895489Y-103927365D02*
X66895489Y-104381493D01*
%TO.C,R2*%
X96148425Y-80290800D02*
X96602553Y-80290800D01*
X96148425Y-81760800D02*
X96602553Y-81760800D01*
%TO.C,R3*%
X102920489Y-125848425D02*
X102920489Y-126302553D01*
X101450489Y-125848425D02*
X101450489Y-126302553D01*
%TO.C,R4*%
X96188425Y-77550800D02*
X96642553Y-77550800D01*
X96188425Y-79020800D02*
X96642553Y-79020800D01*
%TO.C,R6*%
X100000489Y-78998736D02*
X100000489Y-79452864D01*
X98530489Y-78998736D02*
X98530489Y-79452864D01*
%TO.C,R7*%
X95740489Y-70328736D02*
X95740489Y-70782864D01*
X97210489Y-70328736D02*
X97210489Y-70782864D01*
%TO.C,R8*%
X99340489Y-74942864D02*
X99340489Y-74488736D01*
X97870489Y-74942864D02*
X97870489Y-74488736D01*
%TO.C,R10*%
X82880489Y-79622553D02*
X82880489Y-79168425D01*
X81410489Y-79622553D02*
X81410489Y-79168425D01*
%TO.C,R11*%
X69020489Y-117392553D02*
X69020489Y-116938425D01*
X67550489Y-117392553D02*
X67550489Y-116938425D01*
%TO.C,R12*%
X57910925Y-60685969D02*
X58365053Y-60685969D01*
X57910925Y-59215969D02*
X58365053Y-59215969D01*
%TO.C,R13*%
X71115053Y-61195969D02*
X70660925Y-61195969D01*
X71115053Y-59725969D02*
X70660925Y-59725969D01*
%TO.C,R17*%
X67065053Y-59725969D02*
X66610925Y-59725969D01*
X67065053Y-61195969D02*
X66610925Y-61195969D01*
%TO.C,R18*%
X69272553Y-57650489D02*
X68818425Y-57650489D01*
X69272553Y-59120489D02*
X68818425Y-59120489D01*
%TO.C,R22*%
X55620489Y-96582553D02*
X55620489Y-96128425D01*
X57090489Y-96582553D02*
X57090489Y-96128425D01*
%TO.C,R23*%
X54965489Y-102987365D02*
X54965489Y-103441493D01*
X53495489Y-102987365D02*
X53495489Y-103441493D01*
%TO.C,R24*%
X81550489Y-66318425D02*
X81550489Y-66772553D01*
X83020489Y-66318425D02*
X83020489Y-66772553D01*
%TO.C,R26*%
X60120489Y-121648425D02*
X60120489Y-122102553D01*
X58650489Y-121648425D02*
X58650489Y-122102553D01*
%TO.C,R27*%
X73482553Y-100450489D02*
X73028425Y-100450489D01*
X73482553Y-98980489D02*
X73028425Y-98980489D01*
%TO.C,R28*%
X52220489Y-103512553D02*
X52220489Y-103058425D01*
X50750489Y-103512553D02*
X50750489Y-103058425D01*
%TO.C,R29*%
X96458384Y-106180840D02*
X96458384Y-106634968D01*
X94988384Y-106180840D02*
X94988384Y-106634968D01*
%TO.C,R30*%
X69198425Y-99010489D02*
X69652553Y-99010489D01*
X69198425Y-100480489D02*
X69652553Y-100480489D01*
%TO.C,R31*%
X90492553Y-58140489D02*
X90038425Y-58140489D01*
X90492553Y-56670489D02*
X90038425Y-56670489D01*
%TO.C,R33*%
X53867553Y-115539429D02*
X53413425Y-115539429D01*
X53867553Y-114069429D02*
X53413425Y-114069429D01*
%TO.C,R34*%
X53413425Y-113139429D02*
X53867553Y-113139429D01*
X53413425Y-111669429D02*
X53867553Y-111669429D01*
%TO.C,R35*%
X97378384Y-110608340D02*
X97378384Y-111062468D01*
X95908384Y-110608340D02*
X95908384Y-111062468D01*
%TO.C,R38*%
X75306303Y-58330489D02*
X74852175Y-58330489D01*
X75306303Y-56860489D02*
X74852175Y-56860489D01*
%TO.C,R40*%
X74242989Y-71118033D02*
X74242989Y-70663905D01*
X75712989Y-71118033D02*
X75712989Y-70663905D01*
%TO.C,R41*%
X74172989Y-67508033D02*
X74172989Y-67053905D01*
X75642989Y-67508033D02*
X75642989Y-67053905D01*
%TO.C,R42*%
X86522553Y-56670489D02*
X86068425Y-56670489D01*
X86522553Y-58140489D02*
X86068425Y-58140489D01*
%TO.C,R43*%
X75602989Y-63888033D02*
X75602989Y-63433905D01*
X74132989Y-63888033D02*
X74132989Y-63433905D01*
%TO.C,R44*%
X95948384Y-115124968D02*
X95948384Y-114670840D01*
X97418384Y-115124968D02*
X97418384Y-114670840D01*
%TO.C,U1*%
X94065489Y-64075800D02*
X94065489Y-82095800D01*
X91065489Y-82035800D02*
X86565489Y-82035800D01*
X86565489Y-64135800D02*
X87815489Y-64135800D01*
X94065489Y-82095800D02*
X83565489Y-82095800D01*
X83565489Y-64075800D02*
X94065489Y-64075800D01*
X83565489Y-82095800D02*
X83565489Y-64075800D01*
X86565489Y-82035800D02*
X86565489Y-64135800D01*
X91065489Y-64135800D02*
X91065489Y-82035800D01*
X89815489Y-64135800D02*
X91065489Y-64135800D01*
X87815489Y-64135800D02*
G75*
G03*
X89815489Y-64135800I1000000J0D01*
G01*
%TO.C,U2*%
X63055489Y-119870489D02*
X58555489Y-119870489D01*
X61805489Y-101970489D02*
X63055489Y-101970489D01*
X63055489Y-101970489D02*
X63055489Y-119870489D01*
X55555489Y-101910489D02*
X66055489Y-101910489D01*
X66055489Y-119930489D02*
X55555489Y-119930489D01*
X58555489Y-101970489D02*
X59805489Y-101970489D01*
X55555489Y-119930489D02*
X55555489Y-101910489D01*
X66055489Y-101910489D02*
X66055489Y-119930489D01*
X58555489Y-119870489D02*
X58555489Y-101970489D01*
X59805489Y-101970489D02*
G75*
G03*
X61805489Y-101970489I1000000J0D01*
G01*
%TO.C,U3*%
X55472989Y-72570969D02*
X55472989Y-62070969D01*
X73432989Y-69570969D02*
X55532989Y-69570969D01*
X55472989Y-62070969D02*
X73492989Y-62070969D01*
X55532989Y-65070969D02*
X73432989Y-65070969D01*
X55532989Y-69570969D02*
X55532989Y-68320969D01*
X73432989Y-65070969D02*
X73432989Y-69570969D01*
X73492989Y-72570969D02*
X55472989Y-72570969D01*
X55532989Y-66320969D02*
X55532989Y-65070969D01*
X73492989Y-62070969D02*
X73492989Y-72570969D01*
X55532989Y-68320969D02*
G75*
G03*
X55532989Y-66320969I0J1000000D01*
G01*
%TO.C,U4*%
X87213384Y-101807904D02*
X88463384Y-101807904D01*
X87213384Y-122247904D02*
X87213384Y-101807904D01*
X91713384Y-101807904D02*
X91713384Y-122247904D01*
X84213384Y-122307904D02*
X84213384Y-101747904D01*
X94713384Y-101747904D02*
X94713384Y-122307904D01*
X84213384Y-101747904D02*
X94713384Y-101747904D01*
X90463384Y-101807904D02*
X91713384Y-101807904D01*
X91713384Y-122247904D02*
X87213384Y-122247904D01*
X94713384Y-122307904D02*
X84213384Y-122307904D01*
X88463384Y-101807904D02*
G75*
G03*
X90463384Y-101807904I1000000J0D01*
G01*
%TO.C,D4*%
X78385489Y-127500489D02*
X74500489Y-127500489D01*
X74500489Y-127500489D02*
X74500489Y-125230489D01*
X74500489Y-125230489D02*
X78385489Y-125230489D01*
%TO.C,C12*%
X52837989Y-64281969D02*
X52837989Y-65539969D01*
X50997989Y-64281969D02*
X50997989Y-65539969D01*
%TO.C,R47*%
X52738425Y-93710489D02*
X53192553Y-93710489D01*
X52738425Y-92240489D02*
X53192553Y-92240489D01*
%TO.C,R48*%
X52728425Y-94990489D02*
X53182553Y-94990489D01*
X52728425Y-96460489D02*
X53182553Y-96460489D01*
%TO.C,U5*%
X66138971Y-84156289D02*
X66138971Y-94556289D01*
X55638971Y-84156289D02*
X66138971Y-84156289D01*
X63138971Y-94496289D02*
X61888971Y-94496289D01*
X58638971Y-94496289D02*
X58638971Y-84216289D01*
X58638971Y-84216289D02*
X63138971Y-84216289D01*
X66138971Y-94556289D02*
X55638971Y-94556289D01*
X55638971Y-94556289D02*
X55638971Y-84156289D01*
X63138971Y-84216289D02*
X63138971Y-94496289D01*
X59888971Y-94496289D02*
X58638971Y-94496289D01*
X61888971Y-94496289D02*
G75*
G03*
X59888971Y-94496289I-1000000J0D01*
G01*
%TO.C,C13*%
X51926489Y-72125489D02*
X53184489Y-72125489D01*
X51926489Y-70285489D02*
X53184489Y-70285489D01*
%TD*%
M02*
