%TF.GenerationSoftware,KiCad,Pcbnew,(5.99.0-13086-gffd1139cfe)*%
%TF.CreationDate,2021-11-22T18:43:28+08:00*%
%TF.ProjectId,Farini_EURO,46617269-6e69-45f4-9555-524f2e6b6963,rev?*%
%TF.SameCoordinates,Original*%
%TF.FileFunction,Soldermask,Bot*%
%TF.FilePolarity,Negative*%
%FSLAX46Y46*%
G04 Gerber Fmt 4.6, Leading zero omitted, Abs format (unit mm)*
G04 Created by KiCad (PCBNEW (5.99.0-13086-gffd1139cfe)) date 2021-11-22 18:43:28*
%MOMM*%
%LPD*%
G01*
G04 APERTURE LIST*
G04 Aperture macros list*
%AMRoundRect*
0 Rectangle with rounded corners*
0 $1 Rounding radius*
0 $2 $3 $4 $5 $6 $7 $8 $9 X,Y pos of 4 corners*
0 Add a 4 corners polygon primitive as box body*
4,1,4,$2,$3,$4,$5,$6,$7,$8,$9,$2,$3,0*
0 Add four circle primitives for the rounded corners*
1,1,$1+$1,$2,$3*
1,1,$1+$1,$4,$5*
1,1,$1+$1,$6,$7*
1,1,$1+$1,$8,$9*
0 Add four rect primitives between the rounded corners*
20,1,$1+$1,$2,$3,$4,$5,0*
20,1,$1+$1,$4,$5,$6,$7,0*
20,1,$1+$1,$6,$7,$8,$9,0*
20,1,$1+$1,$8,$9,$2,$3,0*%
%AMHorizOval*
0 Thick line with rounded ends*
0 $1 width*
0 $2 $3 position (X,Y) of the first rounded end (center of the circle)*
0 $4 $5 position (X,Y) of the second rounded end (center of the circle)*
0 Add line between two ends*
20,1,$1,$2,$3,$4,$5,0*
0 Add two circle primitives to create the rounded ends*
1,1,$1,$2,$3*
1,1,$1,$4,$5*%
%AMRotRect*
0 Rectangle, with rotation*
0 The origin of the aperture is its center*
0 $1 length*
0 $2 width*
0 $3 Rotation angle, in degrees counterclockwise*
0 Add horizontal line*
21,1,$1,$2,0,0,$3*%
G04 Aperture macros list end*
%TA.AperFunction,Profile*%
%ADD10C,0.150000*%
%TD*%
%ADD11R,1.700000X1.700000*%
%ADD12O,1.700000X1.700000*%
%ADD13R,1.600000X1.600000*%
%ADD14C,1.600000*%
%ADD15RotRect,2.200000X2.200000X215.000000*%
%ADD16HorizOval,2.200000X0.000000X0.000000X0.000000X0.000000X0*%
%ADD17RoundRect,0.250000X-0.625000X0.375000X-0.625000X-0.375000X0.625000X-0.375000X0.625000X0.375000X0*%
%ADD18RotRect,2.200000X2.200000X150.000000*%
%ADD19HorizOval,2.200000X0.000000X0.000000X0.000000X0.000000X0*%
%ADD20RoundRect,0.250000X-0.375000X-0.625000X0.375000X-0.625000X0.375000X0.625000X-0.375000X0.625000X0*%
%ADD21RoundRect,0.250000X0.625000X-0.375000X0.625000X0.375000X-0.625000X0.375000X-0.625000X-0.375000X0*%
%ADD22RoundRect,0.250000X0.375000X0.625000X-0.375000X0.625000X-0.375000X-0.625000X0.375000X-0.625000X0*%
%ADD23R,1.727200X1.727200*%
%ADD24O,1.727200X1.727200*%
%ADD25R,1.500000X1.500000*%
%ADD26C,1.500000*%
%ADD27RoundRect,0.250000X-0.450000X0.262500X-0.450000X-0.262500X0.450000X-0.262500X0.450000X0.262500X0*%
%ADD28RoundRect,0.250000X-0.262500X-0.450000X0.262500X-0.450000X0.262500X0.450000X-0.262500X0.450000X0*%
%ADD29RoundRect,0.250000X0.450000X-0.262500X0.450000X0.262500X-0.450000X0.262500X-0.450000X-0.262500X0*%
%ADD30RoundRect,0.250000X0.262500X0.450000X-0.262500X0.450000X-0.262500X-0.450000X0.262500X-0.450000X0*%
%ADD31R,2.400000X1.600000*%
%ADD32O,2.400000X1.600000*%
%ADD33R,1.600000X2.400000*%
%ADD34O,1.600000X2.400000*%
G04 APERTURE END LIST*
D10*
X47205489Y-140455901D02*
X106135489Y-140455901D01*
X47205489Y-48154626D02*
X47205489Y-140455901D01*
X106135489Y-48154626D02*
X47205489Y-48154626D01*
X106135489Y-140455901D02*
X106135489Y-48154626D01*
D11*
%TO.C,J2*%
X48917318Y-50955489D03*
D12*
X51457318Y-50955489D03*
X53997318Y-50955489D03*
X56537318Y-50955489D03*
X59077318Y-50955489D03*
X61617318Y-50955489D03*
X64157318Y-50955489D03*
X66697318Y-50955489D03*
X69237318Y-50955489D03*
X71777318Y-50955489D03*
X74317318Y-50955489D03*
X76857318Y-50955489D03*
X79397318Y-50955489D03*
X81937318Y-50955489D03*
X84477318Y-50955489D03*
X87017318Y-50955489D03*
X89557318Y-50955489D03*
X92097318Y-50955489D03*
X94637318Y-50955489D03*
X97177318Y-50955489D03*
X99717318Y-50955489D03*
X102257318Y-50955489D03*
X104797318Y-50955489D03*
%TD*%
D11*
%TO.C,J2*%
X48790489Y-129705489D03*
D12*
X51330489Y-129705489D03*
X53870489Y-129705489D03*
X56410489Y-129705489D03*
X58950489Y-129705489D03*
X61490489Y-129705489D03*
X64030489Y-129705489D03*
X66570489Y-129705489D03*
X69110489Y-129705489D03*
X71650489Y-129705489D03*
X74190489Y-129705489D03*
X76730489Y-129705489D03*
X79270489Y-129705489D03*
X81810489Y-129705489D03*
X84350489Y-129705489D03*
X86890489Y-129705489D03*
X89430489Y-129705489D03*
X91970489Y-129705489D03*
X94510489Y-129705489D03*
X97050489Y-129705489D03*
X99590489Y-129705489D03*
X102130489Y-129705489D03*
X104670489Y-129705489D03*
%TD*%
D13*
%TO.C,C1*%
X91005489Y-134625489D03*
D14*
X91005489Y-137125489D03*
%TD*%
D13*
%TO.C,C2*%
X62425489Y-136725489D03*
D14*
X62425489Y-134225489D03*
%TD*%
%TO.C,C3*%
X96265489Y-75765800D03*
X96265489Y-73265800D03*
%TD*%
%TO.C,C4*%
X68080489Y-113574429D03*
X68080489Y-111074429D03*
%TD*%
%TO.C,C5*%
X60328971Y-95906289D03*
X62828971Y-95906289D03*
%TD*%
%TO.C,C6*%
X81995489Y-75595800D03*
X81995489Y-73095800D03*
%TD*%
%TO.C,C7*%
X54170489Y-107254429D03*
X54170489Y-109754429D03*
%TD*%
%TO.C,C8*%
X54078971Y-82656289D03*
X54078971Y-85156289D03*
%TD*%
%TO.C,C9*%
X90155489Y-83705800D03*
X92655489Y-83705800D03*
%TD*%
%TO.C,C10*%
X96693384Y-118417904D03*
X96693384Y-120917904D03*
%TD*%
%TO.C,C11*%
X93315489Y-97775489D03*
X93315489Y-100275489D03*
%TD*%
D15*
%TO.C,D1*%
X104166781Y-133071721D03*
D16*
X95844196Y-138899258D03*
%TD*%
D17*
%TO.C,D3*%
X96665489Y-64675800D03*
X96665489Y-67475800D03*
%TD*%
D18*
%TO.C,D5*%
X57604898Y-138455489D03*
D19*
X48806080Y-133375489D03*
%TD*%
D20*
%TO.C,D6*%
X61397989Y-60080969D03*
X64197989Y-60080969D03*
%TD*%
D21*
%TO.C,D7*%
X70265489Y-104575489D03*
X70265489Y-101775489D03*
%TD*%
%TO.C,D10*%
X79217989Y-69000969D03*
X79217989Y-66200969D03*
%TD*%
D22*
%TO.C,D11*%
X73205489Y-126365489D03*
X70405489Y-126365489D03*
%TD*%
D20*
%TO.C,D12*%
X65265489Y-123035489D03*
X68065489Y-123035489D03*
%TD*%
%TO.C,D13*%
X65425489Y-126295489D03*
X68225489Y-126295489D03*
%TD*%
D23*
%TO.C,J1*%
X71590489Y-134615489D03*
D24*
X71590489Y-137155489D03*
X74130489Y-134615489D03*
X74130489Y-137155489D03*
X76670489Y-134615489D03*
X76670489Y-137155489D03*
X79210489Y-134615489D03*
X79210489Y-137155489D03*
X81750489Y-134615489D03*
X81750489Y-137155489D03*
%TD*%
D25*
%TO.C,Q1*%
X94105489Y-60095489D03*
D26*
X94105489Y-57555489D03*
X94105489Y-55015489D03*
%TD*%
D25*
%TO.C,Q2*%
X80149239Y-60225489D03*
D26*
X80149239Y-57685489D03*
X80149239Y-55145489D03*
%TD*%
D27*
%TO.C,R1*%
X67630489Y-103241929D03*
X67630489Y-105066929D03*
%TD*%
D28*
%TO.C,R2*%
X95462989Y-81025800D03*
X97287989Y-81025800D03*
%TD*%
D27*
%TO.C,R3*%
X102185489Y-125162989D03*
X102185489Y-126987989D03*
%TD*%
D28*
%TO.C,R4*%
X95502989Y-78285800D03*
X97327989Y-78285800D03*
%TD*%
D27*
%TO.C,R6*%
X99265489Y-78313300D03*
X99265489Y-80138300D03*
%TD*%
%TO.C,R7*%
X96475489Y-69643300D03*
X96475489Y-71468300D03*
%TD*%
D29*
%TO.C,R8*%
X98605489Y-75628300D03*
X98605489Y-73803300D03*
%TD*%
%TO.C,R10*%
X82145489Y-80307989D03*
X82145489Y-78482989D03*
%TD*%
%TO.C,R11*%
X68285489Y-118077989D03*
X68285489Y-116252989D03*
%TD*%
D28*
%TO.C,R12*%
X57225489Y-59950969D03*
X59050489Y-59950969D03*
%TD*%
D30*
%TO.C,R13*%
X71800489Y-60460969D03*
X69975489Y-60460969D03*
%TD*%
%TO.C,R17*%
X67750489Y-60460969D03*
X65925489Y-60460969D03*
%TD*%
%TO.C,R18*%
X69957989Y-58385489D03*
X68132989Y-58385489D03*
%TD*%
D29*
%TO.C,R22*%
X56355489Y-97267989D03*
X56355489Y-95442989D03*
%TD*%
D27*
%TO.C,R23*%
X54230489Y-102301929D03*
X54230489Y-104126929D03*
%TD*%
%TO.C,R24*%
X82285489Y-65632989D03*
X82285489Y-67457989D03*
%TD*%
%TO.C,R26*%
X59385489Y-120962989D03*
X59385489Y-122787989D03*
%TD*%
D30*
%TO.C,R27*%
X74167989Y-99715489D03*
X72342989Y-99715489D03*
%TD*%
D29*
%TO.C,R28*%
X51485489Y-104197989D03*
X51485489Y-102372989D03*
%TD*%
D27*
%TO.C,R29*%
X95723384Y-105495404D03*
X95723384Y-107320404D03*
%TD*%
D28*
%TO.C,R30*%
X68512989Y-99745489D03*
X70337989Y-99745489D03*
%TD*%
D30*
%TO.C,R31*%
X91177989Y-57405489D03*
X89352989Y-57405489D03*
%TD*%
%TO.C,R33*%
X54552989Y-114804429D03*
X52727989Y-114804429D03*
%TD*%
D28*
%TO.C,R34*%
X52727989Y-112404429D03*
X54552989Y-112404429D03*
%TD*%
D27*
%TO.C,R35*%
X96643384Y-109922904D03*
X96643384Y-111747904D03*
%TD*%
D30*
%TO.C,R38*%
X75991739Y-57595489D03*
X74166739Y-57595489D03*
%TD*%
D29*
%TO.C,R40*%
X74977989Y-71803469D03*
X74977989Y-69978469D03*
%TD*%
%TO.C,R41*%
X74907989Y-68193469D03*
X74907989Y-66368469D03*
%TD*%
D30*
%TO.C,R42*%
X87207989Y-57405489D03*
X85382989Y-57405489D03*
%TD*%
D29*
%TO.C,R43*%
X74867989Y-64573469D03*
X74867989Y-62748469D03*
%TD*%
%TO.C,R44*%
X96683384Y-115810404D03*
X96683384Y-113985404D03*
%TD*%
D31*
%TO.C,U1*%
X92625489Y-65465800D03*
D32*
X92625489Y-68005800D03*
X92625489Y-70545800D03*
X92625489Y-73085800D03*
X92625489Y-75625800D03*
X92625489Y-78165800D03*
X92625489Y-80705800D03*
X85005489Y-80705800D03*
X85005489Y-78165800D03*
X85005489Y-75625800D03*
X85005489Y-73085800D03*
X85005489Y-70545800D03*
X85005489Y-68005800D03*
X85005489Y-65465800D03*
%TD*%
D31*
%TO.C,U2*%
X64615489Y-103300489D03*
D32*
X64615489Y-105840489D03*
X64615489Y-108380489D03*
X64615489Y-110920489D03*
X64615489Y-113460489D03*
X64615489Y-116000489D03*
X64615489Y-118540489D03*
X56995489Y-118540489D03*
X56995489Y-116000489D03*
X56995489Y-113460489D03*
X56995489Y-110920489D03*
X56995489Y-108380489D03*
X56995489Y-105840489D03*
X56995489Y-103300489D03*
%TD*%
D33*
%TO.C,U3*%
X56862989Y-63510969D03*
D34*
X59402989Y-63510969D03*
X61942989Y-63510969D03*
X64482989Y-63510969D03*
X67022989Y-63510969D03*
X69562989Y-63510969D03*
X72102989Y-63510969D03*
X72102989Y-71130969D03*
X69562989Y-71130969D03*
X67022989Y-71130969D03*
X64482989Y-71130969D03*
X61942989Y-71130969D03*
X59402989Y-71130969D03*
X56862989Y-71130969D03*
%TD*%
D31*
%TO.C,U4*%
X93273384Y-103137904D03*
D32*
X93273384Y-105677904D03*
X93273384Y-108217904D03*
X93273384Y-110757904D03*
X93273384Y-113297904D03*
X93273384Y-115837904D03*
X93273384Y-118377904D03*
X93273384Y-120917904D03*
X85653384Y-120917904D03*
X85653384Y-118377904D03*
X85653384Y-115837904D03*
X85653384Y-113297904D03*
X85653384Y-110757904D03*
X85653384Y-108217904D03*
X85653384Y-105677904D03*
X85653384Y-103137904D03*
%TD*%
D20*
%TO.C,D4*%
X75385489Y-126365489D03*
X78185489Y-126365489D03*
%TD*%
D14*
%TO.C,C12*%
X51917989Y-63660969D03*
X51917989Y-66160969D03*
%TD*%
D28*
%TO.C,R47*%
X52052989Y-92975489D03*
X53877989Y-92975489D03*
%TD*%
%TO.C,R48*%
X52042989Y-95725489D03*
X53867989Y-95725489D03*
%TD*%
D31*
%TO.C,U5*%
X57078971Y-93166289D03*
D32*
X57078971Y-90626289D03*
X57078971Y-88086289D03*
X57078971Y-85546289D03*
X64698971Y-85546289D03*
X64698971Y-88086289D03*
X64698971Y-90626289D03*
X64698971Y-93166289D03*
%TD*%
D14*
%TO.C,C13*%
X51305489Y-71205489D03*
X53805489Y-71205489D03*
%TD*%
M02*
