M48
; DRILL file {KiCad (5.99.0-13086-gffd1139cfe)} date Mon Nov 22 18:43:25 2021
; FORMAT={-:-/ absolute / metric / decimal}
; #@! TF.CreationDate,2021-11-22T18:43:25+08:00
; #@! TF.GenerationSoftware,Kicad,Pcbnew,(5.99.0-13086-gffd1139cfe)
; #@! TF.FileFunction,Plated,1,2,PTH
FMAT,2
METRIC
; #@! TA.AperFunction,Plated,PTH,ViaDrill
T1C0.400
; #@! TA.AperFunction,Plated,PTH,ComponentDrill
T2C0.800
; #@! TA.AperFunction,Plated,PTH,ComponentDrill
T3C1.000
; #@! TA.AperFunction,Plated,PTH,ComponentDrill
T4C1.016
; #@! TA.AperFunction,Plated,PTH,ComponentDrill
T5C1.100
%
G90
G05
T1
X52.105Y-121.765
X54.545Y-87.565
X54.605Y-68.825
X56.625Y-123.975
X56.825Y-55.535
X58.955Y-76.325
X59.755Y-110.565
X61.635Y-56.055
X70.435Y-56.435
X72.505Y-67.145
X79.155Y-71.655
X84.805Y-85.225
X88.225Y-79.735
X94.955Y-112.015
X99.485Y-72.125
X100.175Y-54.195
X101.363Y-68.523
T2
X51.305Y-71.205
X51.918Y-63.661
X51.918Y-66.161
X53.805Y-71.205
X54.079Y-82.656
X54.079Y-85.156
X54.17Y-107.254
X54.17Y-109.754
X56.863Y-63.511
X56.863Y-71.131
X56.995Y-103.3
X56.995Y-105.84
X56.995Y-108.38
X56.995Y-110.92
X56.995Y-113.46
X56.995Y-116.0
X56.995Y-118.54
X57.079Y-85.546
X57.079Y-88.086
X57.079Y-90.626
X57.079Y-93.166
X59.403Y-63.511
X59.403Y-71.131
X60.329Y-95.906
X61.943Y-63.511
X61.943Y-71.131
X62.425Y-134.225
X62.425Y-136.725
X62.829Y-95.906
X64.483Y-63.511
X64.483Y-71.131
X64.615Y-103.3
X64.615Y-105.84
X64.615Y-108.38
X64.615Y-110.92
X64.615Y-113.46
X64.615Y-116.0
X64.615Y-118.54
X64.699Y-85.546
X64.699Y-88.086
X64.699Y-90.626
X64.699Y-93.166
X67.023Y-63.511
X67.023Y-71.131
X68.08Y-111.074
X68.08Y-113.574
X69.563Y-63.511
X69.563Y-71.131
X72.103Y-63.511
X72.103Y-71.131
X80.149Y-55.145
X80.149Y-57.685
X80.149Y-60.225
X81.995Y-73.096
X81.995Y-75.596
X85.005Y-65.466
X85.005Y-68.006
X85.005Y-70.546
X85.005Y-73.086
X85.005Y-75.626
X85.005Y-78.166
X85.005Y-80.706
X85.653Y-103.138
X85.653Y-105.678
X85.653Y-108.218
X85.653Y-110.758
X85.653Y-113.298
X85.653Y-115.838
X85.653Y-118.378
X85.653Y-120.918
X90.155Y-83.706
X91.005Y-134.625
X91.005Y-137.125
X92.625Y-65.466
X92.625Y-68.006
X92.625Y-70.546
X92.625Y-73.086
X92.625Y-75.626
X92.625Y-78.166
X92.625Y-80.706
X92.655Y-83.706
X93.273Y-103.138
X93.273Y-105.678
X93.273Y-108.218
X93.273Y-110.758
X93.273Y-113.298
X93.273Y-115.838
X93.273Y-118.378
X93.273Y-120.918
X93.315Y-97.775
X93.315Y-100.275
X94.105Y-55.015
X94.105Y-57.555
X94.105Y-60.095
X96.265Y-73.266
X96.265Y-75.766
X96.693Y-118.418
X96.693Y-120.918
T3
X48.79Y-129.705
X48.917Y-50.955
X51.33Y-129.705
X51.457Y-50.955
X53.87Y-129.705
X53.997Y-50.955
X56.41Y-129.705
X56.537Y-50.955
X58.95Y-129.705
X59.077Y-50.955
X61.49Y-129.705
X61.617Y-50.955
X64.03Y-129.705
X64.157Y-50.955
X66.57Y-129.705
X66.697Y-50.955
X69.11Y-129.705
X69.237Y-50.955
X71.65Y-129.705
X71.777Y-50.955
X74.19Y-129.705
X74.317Y-50.955
X76.73Y-129.705
X76.857Y-50.955
X79.27Y-129.705
X79.397Y-50.955
X81.81Y-129.705
X81.937Y-50.955
X84.35Y-129.705
X84.477Y-50.955
X86.89Y-129.705
X87.017Y-50.955
X89.43Y-129.705
X89.557Y-50.955
X91.97Y-129.705
X92.097Y-50.955
X94.51Y-129.705
X94.637Y-50.955
X97.05Y-129.705
X97.177Y-50.955
X99.59Y-129.705
X99.717Y-50.955
X102.13Y-129.705
X102.257Y-50.955
X104.67Y-129.705
X104.797Y-50.955
T4
X71.59Y-134.615
X71.59Y-137.155
X74.13Y-134.615
X74.13Y-137.155
X76.67Y-134.615
X76.67Y-137.155
X79.21Y-134.615
X79.21Y-137.155
X81.75Y-134.615
X81.75Y-137.155
T5
X48.806Y-133.375
X57.605Y-138.455
X95.844Y-138.899
X104.167Y-133.072
T0
M30
