%TF.GenerationSoftware,KiCad,Pcbnew,(5.99.0-13086-gffd1139cfe)*%
%TF.CreationDate,2021-11-22T18:43:28+08:00*%
%TF.ProjectId,Farini_EURO,46617269-6e69-45f4-9555-524f2e6b6963,rev?*%
%TF.SameCoordinates,Original*%
%TF.FileFunction,Soldermask,Top*%
%TF.FilePolarity,Negative*%
%FSLAX46Y46*%
G04 Gerber Fmt 4.6, Leading zero omitted, Abs format (unit mm)*
G04 Created by KiCad (PCBNEW (5.99.0-13086-gffd1139cfe)) date 2021-11-22 18:43:28*
%MOMM*%
%LPD*%
G01*
G04 APERTURE LIST*
G04 Aperture macros list*
%AMHorizOval*
0 Thick line with rounded ends*
0 $1 width*
0 $2 $3 position (X,Y) of the first rounded end (center of the circle)*
0 $4 $5 position (X,Y) of the second rounded end (center of the circle)*
0 Add line between two ends*
20,1,$1,$2,$3,$4,$5,0*
0 Add two circle primitives to create the rounded ends*
1,1,$1,$2,$3*
1,1,$1,$4,$5*%
%AMRotRect*
0 Rectangle, with rotation*
0 The origin of the aperture is its center*
0 $1 length*
0 $2 width*
0 $3 Rotation angle, in degrees counterclockwise*
0 Add horizontal line*
21,1,$1,$2,0,0,$3*%
G04 Aperture macros list end*
%TA.AperFunction,Profile*%
%ADD10C,0.150000*%
%TD*%
%ADD11R,1.700000X1.700000*%
%ADD12O,1.700000X1.700000*%
%ADD13R,1.600000X1.600000*%
%ADD14C,1.600000*%
%ADD15RotRect,2.200000X2.200000X215.000000*%
%ADD16HorizOval,2.200000X0.000000X0.000000X0.000000X0.000000X0*%
%ADD17RotRect,2.200000X2.200000X150.000000*%
%ADD18HorizOval,2.200000X0.000000X0.000000X0.000000X0.000000X0*%
%ADD19R,1.727200X1.727200*%
%ADD20O,1.727200X1.727200*%
%ADD21R,1.500000X1.500000*%
%ADD22C,1.500000*%
%ADD23R,2.400000X1.600000*%
%ADD24O,2.400000X1.600000*%
%ADD25R,1.600000X2.400000*%
%ADD26O,1.600000X2.400000*%
G04 APERTURE END LIST*
D10*
X47205489Y-140455901D02*
X106135489Y-140455901D01*
X47205489Y-48154626D02*
X47205489Y-140455901D01*
X106135489Y-48154626D02*
X47205489Y-48154626D01*
X106135489Y-140455901D02*
X106135489Y-48154626D01*
D11*
%TO.C,J2*%
X48917318Y-50955489D03*
D12*
X51457318Y-50955489D03*
X53997318Y-50955489D03*
X56537318Y-50955489D03*
X59077318Y-50955489D03*
X61617318Y-50955489D03*
X64157318Y-50955489D03*
X66697318Y-50955489D03*
X69237318Y-50955489D03*
X71777318Y-50955489D03*
X74317318Y-50955489D03*
X76857318Y-50955489D03*
X79397318Y-50955489D03*
X81937318Y-50955489D03*
X84477318Y-50955489D03*
X87017318Y-50955489D03*
X89557318Y-50955489D03*
X92097318Y-50955489D03*
X94637318Y-50955489D03*
X97177318Y-50955489D03*
X99717318Y-50955489D03*
X102257318Y-50955489D03*
X104797318Y-50955489D03*
%TD*%
D11*
%TO.C,J2*%
X48790489Y-129705489D03*
D12*
X51330489Y-129705489D03*
X53870489Y-129705489D03*
X56410489Y-129705489D03*
X58950489Y-129705489D03*
X61490489Y-129705489D03*
X64030489Y-129705489D03*
X66570489Y-129705489D03*
X69110489Y-129705489D03*
X71650489Y-129705489D03*
X74190489Y-129705489D03*
X76730489Y-129705489D03*
X79270489Y-129705489D03*
X81810489Y-129705489D03*
X84350489Y-129705489D03*
X86890489Y-129705489D03*
X89430489Y-129705489D03*
X91970489Y-129705489D03*
X94510489Y-129705489D03*
X97050489Y-129705489D03*
X99590489Y-129705489D03*
X102130489Y-129705489D03*
X104670489Y-129705489D03*
%TD*%
D13*
%TO.C,C1*%
X91005489Y-134625489D03*
D14*
X91005489Y-137125489D03*
%TD*%
D13*
%TO.C,C2*%
X62425489Y-136725489D03*
D14*
X62425489Y-134225489D03*
%TD*%
%TO.C,C3*%
X96265489Y-75765800D03*
X96265489Y-73265800D03*
%TD*%
%TO.C,C4*%
X68080489Y-113574429D03*
X68080489Y-111074429D03*
%TD*%
%TO.C,C5*%
X60328971Y-95906289D03*
X62828971Y-95906289D03*
%TD*%
%TO.C,C6*%
X81995489Y-75595800D03*
X81995489Y-73095800D03*
%TD*%
%TO.C,C7*%
X54170489Y-107254429D03*
X54170489Y-109754429D03*
%TD*%
%TO.C,C8*%
X54078971Y-82656289D03*
X54078971Y-85156289D03*
%TD*%
%TO.C,C9*%
X90155489Y-83705800D03*
X92655489Y-83705800D03*
%TD*%
%TO.C,C10*%
X96693384Y-118417904D03*
X96693384Y-120917904D03*
%TD*%
%TO.C,C11*%
X93315489Y-97775489D03*
X93315489Y-100275489D03*
%TD*%
D15*
%TO.C,D1*%
X104166781Y-133071721D03*
D16*
X95844196Y-138899258D03*
%TD*%
D17*
%TO.C,D5*%
X57604898Y-138455489D03*
D18*
X48806080Y-133375489D03*
%TD*%
D19*
%TO.C,J1*%
X71590489Y-134615489D03*
D20*
X71590489Y-137155489D03*
X74130489Y-134615489D03*
X74130489Y-137155489D03*
X76670489Y-134615489D03*
X76670489Y-137155489D03*
X79210489Y-134615489D03*
X79210489Y-137155489D03*
X81750489Y-134615489D03*
X81750489Y-137155489D03*
%TD*%
D21*
%TO.C,Q1*%
X94105489Y-60095489D03*
D22*
X94105489Y-57555489D03*
X94105489Y-55015489D03*
%TD*%
D21*
%TO.C,Q2*%
X80149239Y-60225489D03*
D22*
X80149239Y-57685489D03*
X80149239Y-55145489D03*
%TD*%
D23*
%TO.C,U1*%
X92625489Y-65465800D03*
D24*
X92625489Y-68005800D03*
X92625489Y-70545800D03*
X92625489Y-73085800D03*
X92625489Y-75625800D03*
X92625489Y-78165800D03*
X92625489Y-80705800D03*
X85005489Y-80705800D03*
X85005489Y-78165800D03*
X85005489Y-75625800D03*
X85005489Y-73085800D03*
X85005489Y-70545800D03*
X85005489Y-68005800D03*
X85005489Y-65465800D03*
%TD*%
D23*
%TO.C,U2*%
X64615489Y-103300489D03*
D24*
X64615489Y-105840489D03*
X64615489Y-108380489D03*
X64615489Y-110920489D03*
X64615489Y-113460489D03*
X64615489Y-116000489D03*
X64615489Y-118540489D03*
X56995489Y-118540489D03*
X56995489Y-116000489D03*
X56995489Y-113460489D03*
X56995489Y-110920489D03*
X56995489Y-108380489D03*
X56995489Y-105840489D03*
X56995489Y-103300489D03*
%TD*%
D25*
%TO.C,U3*%
X56862989Y-63510969D03*
D26*
X59402989Y-63510969D03*
X61942989Y-63510969D03*
X64482989Y-63510969D03*
X67022989Y-63510969D03*
X69562989Y-63510969D03*
X72102989Y-63510969D03*
X72102989Y-71130969D03*
X69562989Y-71130969D03*
X67022989Y-71130969D03*
X64482989Y-71130969D03*
X61942989Y-71130969D03*
X59402989Y-71130969D03*
X56862989Y-71130969D03*
%TD*%
D23*
%TO.C,U4*%
X93273384Y-103137904D03*
D24*
X93273384Y-105677904D03*
X93273384Y-108217904D03*
X93273384Y-110757904D03*
X93273384Y-113297904D03*
X93273384Y-115837904D03*
X93273384Y-118377904D03*
X93273384Y-120917904D03*
X85653384Y-120917904D03*
X85653384Y-118377904D03*
X85653384Y-115837904D03*
X85653384Y-113297904D03*
X85653384Y-110757904D03*
X85653384Y-108217904D03*
X85653384Y-105677904D03*
X85653384Y-103137904D03*
%TD*%
D14*
%TO.C,C12*%
X51917989Y-63660969D03*
X51917989Y-66160969D03*
%TD*%
D23*
%TO.C,U5*%
X57078971Y-93166289D03*
D24*
X57078971Y-90626289D03*
X57078971Y-88086289D03*
X57078971Y-85546289D03*
X64698971Y-85546289D03*
X64698971Y-88086289D03*
X64698971Y-90626289D03*
X64698971Y-93166289D03*
%TD*%
D14*
%TO.C,C13*%
X51305489Y-71205489D03*
X53805489Y-71205489D03*
%TD*%
M02*
