%TF.GenerationSoftware,KiCad,Pcbnew,(5.99.0-13086-gffd1139cfe)*%
%TF.CreationDate,2021-11-22T18:43:28+08:00*%
%TF.ProjectId,Farini_EURO,46617269-6e69-45f4-9555-524f2e6b6963,rev?*%
%TF.SameCoordinates,Original*%
%TF.FileFunction,AssemblyDrawing,Bot*%
%FSLAX46Y46*%
G04 Gerber Fmt 4.6, Leading zero omitted, Abs format (unit mm)*
G04 Created by KiCad (PCBNEW (5.99.0-13086-gffd1139cfe)) date 2021-11-22 18:43:28*
%MOMM*%
%LPD*%
G01*
G04 APERTURE LIST*
%TA.AperFunction,Profile*%
%ADD10C,0.150000*%
%TD*%
%ADD11C,0.150000*%
%ADD12C,0.090000*%
%ADD13C,0.120000*%
%ADD14C,0.080000*%
%ADD15C,0.100000*%
G04 APERTURE END LIST*
D10*
X47205489Y-140455901D02*
X106135489Y-140455901D01*
X47205489Y-48154626D02*
X47205489Y-140455901D01*
X106135489Y-48154626D02*
X47205489Y-48154626D01*
X106135489Y-140455901D02*
X106135489Y-48154626D01*
D11*
%TO.C,C1*%
X95857869Y-134804060D02*
X95857869Y-134232631D01*
X95857869Y-134518346D02*
X94857869Y-134518346D01*
X95000727Y-134423108D01*
X95095965Y-134327869D01*
X95143584Y-134232631D01*
X94857869Y-135423108D02*
X94857869Y-135518346D01*
X94905489Y-135613584D01*
X94953108Y-135661203D01*
X95048346Y-135708822D01*
X95238822Y-135756441D01*
X95476917Y-135756441D01*
X95667393Y-135708822D01*
X95762631Y-135661203D01*
X95810250Y-135613584D01*
X95857869Y-135518346D01*
X95857869Y-135423108D01*
X95810250Y-135327869D01*
X95762631Y-135280250D01*
X95667393Y-135232631D01*
X95476917Y-135185012D01*
X95238822Y-135185012D01*
X95048346Y-135232631D01*
X94953108Y-135280250D01*
X94905489Y-135327869D01*
X94857869Y-135423108D01*
X95191203Y-136613584D02*
X95857869Y-136613584D01*
X95191203Y-136185012D02*
X95715012Y-136185012D01*
X95810250Y-136232631D01*
X95857869Y-136327869D01*
X95857869Y-136470727D01*
X95810250Y-136565965D01*
X95762631Y-136613584D01*
X95334060Y-137423108D02*
X95334060Y-137089774D01*
X95857869Y-137089774D02*
X94857869Y-137089774D01*
X94857869Y-137565965D01*
X91362631Y-135708822D02*
X91410250Y-135661203D01*
X91457869Y-135518346D01*
X91457869Y-135423108D01*
X91410250Y-135280250D01*
X91315012Y-135185012D01*
X91219774Y-135137393D01*
X91029298Y-135089774D01*
X90886441Y-135089774D01*
X90695965Y-135137393D01*
X90600727Y-135185012D01*
X90505489Y-135280250D01*
X90457869Y-135423108D01*
X90457869Y-135518346D01*
X90505489Y-135661203D01*
X90553108Y-135708822D01*
X91457869Y-136661203D02*
X91457869Y-136089774D01*
X91457869Y-136375489D02*
X90457869Y-136375489D01*
X90600727Y-136280250D01*
X90695965Y-136185012D01*
X90743584Y-136089774D01*
%TO.C,C2*%
X58477869Y-134404060D02*
X58477869Y-133832631D01*
X58477869Y-134118346D02*
X57477869Y-134118346D01*
X57620727Y-134023108D01*
X57715965Y-133927869D01*
X57763584Y-133832631D01*
X57477869Y-135023108D02*
X57477869Y-135118346D01*
X57525489Y-135213584D01*
X57573108Y-135261203D01*
X57668346Y-135308822D01*
X57858822Y-135356441D01*
X58096917Y-135356441D01*
X58287393Y-135308822D01*
X58382631Y-135261203D01*
X58430250Y-135213584D01*
X58477869Y-135118346D01*
X58477869Y-135023108D01*
X58430250Y-134927869D01*
X58382631Y-134880250D01*
X58287393Y-134832631D01*
X58096917Y-134785012D01*
X57858822Y-134785012D01*
X57668346Y-134832631D01*
X57573108Y-134880250D01*
X57525489Y-134927869D01*
X57477869Y-135023108D01*
X57811203Y-136213584D02*
X58477869Y-136213584D01*
X57811203Y-135785012D02*
X58335012Y-135785012D01*
X58430250Y-135832631D01*
X58477869Y-135927869D01*
X58477869Y-136070727D01*
X58430250Y-136165965D01*
X58382631Y-136213584D01*
X57954060Y-137023108D02*
X57954060Y-136689774D01*
X58477869Y-136689774D02*
X57477869Y-136689774D01*
X57477869Y-137165965D01*
X62782631Y-135308822D02*
X62830250Y-135261203D01*
X62877869Y-135118346D01*
X62877869Y-135023108D01*
X62830250Y-134880250D01*
X62735012Y-134785012D01*
X62639774Y-134737393D01*
X62449298Y-134689774D01*
X62306441Y-134689774D01*
X62115965Y-134737393D01*
X62020727Y-134785012D01*
X61925489Y-134880250D01*
X61877869Y-135023108D01*
X61877869Y-135118346D01*
X61925489Y-135261203D01*
X61973108Y-135308822D01*
X61973108Y-135689774D02*
X61925489Y-135737393D01*
X61877869Y-135832631D01*
X61877869Y-136070727D01*
X61925489Y-136165965D01*
X61973108Y-136213584D01*
X62068346Y-136261203D01*
X62163584Y-136261203D01*
X62306441Y-136213584D01*
X62877869Y-135642155D01*
X62877869Y-136261203D01*
%TO.C,C3*%
X93667869Y-72872942D02*
X93667869Y-72968180D01*
X93715489Y-73063419D01*
X93763108Y-73111038D01*
X93858346Y-73158657D01*
X94048822Y-73206276D01*
X94286917Y-73206276D01*
X94477393Y-73158657D01*
X94572631Y-73111038D01*
X94620250Y-73063419D01*
X94667869Y-72968180D01*
X94667869Y-72872942D01*
X94620250Y-72777704D01*
X94572631Y-72730085D01*
X94477393Y-72682466D01*
X94286917Y-72634847D01*
X94048822Y-72634847D01*
X93858346Y-72682466D01*
X93763108Y-72730085D01*
X93715489Y-72777704D01*
X93667869Y-72872942D01*
X94572631Y-73634847D02*
X94620250Y-73682466D01*
X94667869Y-73634847D01*
X94620250Y-73587228D01*
X94572631Y-73634847D01*
X94667869Y-73634847D01*
X94667869Y-74634847D02*
X94667869Y-74063419D01*
X94667869Y-74349133D02*
X93667869Y-74349133D01*
X93810727Y-74253895D01*
X93905965Y-74158657D01*
X93953584Y-74063419D01*
X94001203Y-75491990D02*
X94667869Y-75491990D01*
X94001203Y-75063419D02*
X94525012Y-75063419D01*
X94620250Y-75111038D01*
X94667869Y-75206276D01*
X94667869Y-75349133D01*
X94620250Y-75444371D01*
X94572631Y-75491990D01*
X94144060Y-76301514D02*
X94144060Y-75968180D01*
X94667869Y-75968180D02*
X93667869Y-75968180D01*
X93667869Y-76444371D01*
D12*
X96479774Y-74415800D02*
X96508346Y-74387228D01*
X96536917Y-74301514D01*
X96536917Y-74244371D01*
X96508346Y-74158657D01*
X96451203Y-74101514D01*
X96394060Y-74072942D01*
X96279774Y-74044371D01*
X96194060Y-74044371D01*
X96079774Y-74072942D01*
X96022631Y-74101514D01*
X95965489Y-74158657D01*
X95936917Y-74244371D01*
X95936917Y-74301514D01*
X95965489Y-74387228D01*
X95994060Y-74415800D01*
X95936917Y-74615800D02*
X95936917Y-74987228D01*
X96165489Y-74787228D01*
X96165489Y-74872942D01*
X96194060Y-74930085D01*
X96222631Y-74958657D01*
X96279774Y-74987228D01*
X96422631Y-74987228D01*
X96479774Y-74958657D01*
X96508346Y-74930085D01*
X96536917Y-74872942D01*
X96536917Y-74701514D01*
X96508346Y-74644371D01*
X96479774Y-74615800D01*
D11*
%TO.C,C4*%
X65482869Y-110681571D02*
X65482869Y-110776809D01*
X65530489Y-110872048D01*
X65578108Y-110919667D01*
X65673346Y-110967286D01*
X65863822Y-111014905D01*
X66101917Y-111014905D01*
X66292393Y-110967286D01*
X66387631Y-110919667D01*
X66435250Y-110872048D01*
X66482869Y-110776809D01*
X66482869Y-110681571D01*
X66435250Y-110586333D01*
X66387631Y-110538714D01*
X66292393Y-110491095D01*
X66101917Y-110443476D01*
X65863822Y-110443476D01*
X65673346Y-110491095D01*
X65578108Y-110538714D01*
X65530489Y-110586333D01*
X65482869Y-110681571D01*
X66387631Y-111443476D02*
X66435250Y-111491095D01*
X66482869Y-111443476D01*
X66435250Y-111395857D01*
X66387631Y-111443476D01*
X66482869Y-111443476D01*
X66482869Y-112443476D02*
X66482869Y-111872048D01*
X66482869Y-112157762D02*
X65482869Y-112157762D01*
X65625727Y-112062524D01*
X65720965Y-111967286D01*
X65768584Y-111872048D01*
X65816203Y-113300619D02*
X66482869Y-113300619D01*
X65816203Y-112872048D02*
X66340012Y-112872048D01*
X66435250Y-112919667D01*
X66482869Y-113014905D01*
X66482869Y-113157762D01*
X66435250Y-113253000D01*
X66387631Y-113300619D01*
X65959060Y-114110143D02*
X65959060Y-113776809D01*
X66482869Y-113776809D02*
X65482869Y-113776809D01*
X65482869Y-114253000D01*
D12*
X68294774Y-112224429D02*
X68323346Y-112195857D01*
X68351917Y-112110143D01*
X68351917Y-112053000D01*
X68323346Y-111967286D01*
X68266203Y-111910143D01*
X68209060Y-111881571D01*
X68094774Y-111853000D01*
X68009060Y-111853000D01*
X67894774Y-111881571D01*
X67837631Y-111910143D01*
X67780489Y-111967286D01*
X67751917Y-112053000D01*
X67751917Y-112110143D01*
X67780489Y-112195857D01*
X67809060Y-112224429D01*
X67951917Y-112738714D02*
X68351917Y-112738714D01*
X67723346Y-112595857D02*
X68151917Y-112453000D01*
X68151917Y-112824429D01*
D11*
%TO.C,C5*%
X63221828Y-93308669D02*
X63126590Y-93308669D01*
X63031351Y-93356289D01*
X62983732Y-93403908D01*
X62936113Y-93499146D01*
X62888494Y-93689622D01*
X62888494Y-93927717D01*
X62936113Y-94118193D01*
X62983732Y-94213431D01*
X63031351Y-94261050D01*
X63126590Y-94308669D01*
X63221828Y-94308669D01*
X63317066Y-94261050D01*
X63364685Y-94213431D01*
X63412304Y-94118193D01*
X63459923Y-93927717D01*
X63459923Y-93689622D01*
X63412304Y-93499146D01*
X63364685Y-93403908D01*
X63317066Y-93356289D01*
X63221828Y-93308669D01*
X62459923Y-94213431D02*
X62412304Y-94261050D01*
X62459923Y-94308669D01*
X62507542Y-94261050D01*
X62459923Y-94213431D01*
X62459923Y-94308669D01*
X61459923Y-94308669D02*
X62031351Y-94308669D01*
X61745637Y-94308669D02*
X61745637Y-93308669D01*
X61840875Y-93451527D01*
X61936113Y-93546765D01*
X62031351Y-93594384D01*
X60602780Y-93642003D02*
X60602780Y-94308669D01*
X61031351Y-93642003D02*
X61031351Y-94165812D01*
X60983732Y-94261050D01*
X60888494Y-94308669D01*
X60745637Y-94308669D01*
X60650399Y-94261050D01*
X60602780Y-94213431D01*
X59793256Y-93784860D02*
X60126590Y-93784860D01*
X60126590Y-94308669D02*
X60126590Y-93308669D01*
X59650399Y-93308669D01*
D12*
X61678971Y-96120574D02*
X61707542Y-96149146D01*
X61793256Y-96177717D01*
X61850399Y-96177717D01*
X61936113Y-96149146D01*
X61993256Y-96092003D01*
X62021828Y-96034860D01*
X62050399Y-95920574D01*
X62050399Y-95834860D01*
X62021828Y-95720574D01*
X61993256Y-95663431D01*
X61936113Y-95606289D01*
X61850399Y-95577717D01*
X61793256Y-95577717D01*
X61707542Y-95606289D01*
X61678971Y-95634860D01*
X61136113Y-95577717D02*
X61421828Y-95577717D01*
X61450399Y-95863431D01*
X61421828Y-95834860D01*
X61364685Y-95806289D01*
X61221828Y-95806289D01*
X61164685Y-95834860D01*
X61136113Y-95863431D01*
X61107542Y-95920574D01*
X61107542Y-96063431D01*
X61136113Y-96120574D01*
X61164685Y-96149146D01*
X61221828Y-96177717D01*
X61364685Y-96177717D01*
X61421828Y-96149146D01*
X61450399Y-96120574D01*
D11*
%TO.C,C6*%
X79397869Y-72702942D02*
X79397869Y-72798180D01*
X79445489Y-72893419D01*
X79493108Y-72941038D01*
X79588346Y-72988657D01*
X79778822Y-73036276D01*
X80016917Y-73036276D01*
X80207393Y-72988657D01*
X80302631Y-72941038D01*
X80350250Y-72893419D01*
X80397869Y-72798180D01*
X80397869Y-72702942D01*
X80350250Y-72607704D01*
X80302631Y-72560085D01*
X80207393Y-72512466D01*
X80016917Y-72464847D01*
X79778822Y-72464847D01*
X79588346Y-72512466D01*
X79493108Y-72560085D01*
X79445489Y-72607704D01*
X79397869Y-72702942D01*
X80302631Y-73464847D02*
X80350250Y-73512466D01*
X80397869Y-73464847D01*
X80350250Y-73417228D01*
X80302631Y-73464847D01*
X80397869Y-73464847D01*
X80397869Y-74464847D02*
X80397869Y-73893419D01*
X80397869Y-74179133D02*
X79397869Y-74179133D01*
X79540727Y-74083895D01*
X79635965Y-73988657D01*
X79683584Y-73893419D01*
X79731203Y-75321990D02*
X80397869Y-75321990D01*
X79731203Y-74893419D02*
X80255012Y-74893419D01*
X80350250Y-74941038D01*
X80397869Y-75036276D01*
X80397869Y-75179133D01*
X80350250Y-75274371D01*
X80302631Y-75321990D01*
X79874060Y-76131514D02*
X79874060Y-75798180D01*
X80397869Y-75798180D02*
X79397869Y-75798180D01*
X79397869Y-76274371D01*
D12*
X82209774Y-74245800D02*
X82238346Y-74217228D01*
X82266917Y-74131514D01*
X82266917Y-74074371D01*
X82238346Y-73988657D01*
X82181203Y-73931514D01*
X82124060Y-73902942D01*
X82009774Y-73874371D01*
X81924060Y-73874371D01*
X81809774Y-73902942D01*
X81752631Y-73931514D01*
X81695489Y-73988657D01*
X81666917Y-74074371D01*
X81666917Y-74131514D01*
X81695489Y-74217228D01*
X81724060Y-74245800D01*
X81666917Y-74760085D02*
X81666917Y-74645800D01*
X81695489Y-74588657D01*
X81724060Y-74560085D01*
X81809774Y-74502942D01*
X81924060Y-74474371D01*
X82152631Y-74474371D01*
X82209774Y-74502942D01*
X82238346Y-74531514D01*
X82266917Y-74588657D01*
X82266917Y-74702942D01*
X82238346Y-74760085D01*
X82209774Y-74788657D01*
X82152631Y-74817228D01*
X82009774Y-74817228D01*
X81952631Y-74788657D01*
X81924060Y-74760085D01*
X81895489Y-74702942D01*
X81895489Y-74588657D01*
X81924060Y-74531514D01*
X81952631Y-74502942D01*
X82009774Y-74474371D01*
D11*
%TO.C,C7*%
X55672869Y-106861571D02*
X55672869Y-106956809D01*
X55720489Y-107052048D01*
X55768108Y-107099667D01*
X55863346Y-107147286D01*
X56053822Y-107194905D01*
X56291917Y-107194905D01*
X56482393Y-107147286D01*
X56577631Y-107099667D01*
X56625250Y-107052048D01*
X56672869Y-106956809D01*
X56672869Y-106861571D01*
X56625250Y-106766333D01*
X56577631Y-106718714D01*
X56482393Y-106671095D01*
X56291917Y-106623476D01*
X56053822Y-106623476D01*
X55863346Y-106671095D01*
X55768108Y-106718714D01*
X55720489Y-106766333D01*
X55672869Y-106861571D01*
X56577631Y-107623476D02*
X56625250Y-107671095D01*
X56672869Y-107623476D01*
X56625250Y-107575857D01*
X56577631Y-107623476D01*
X56672869Y-107623476D01*
X56672869Y-108623476D02*
X56672869Y-108052048D01*
X56672869Y-108337762D02*
X55672869Y-108337762D01*
X55815727Y-108242524D01*
X55910965Y-108147286D01*
X55958584Y-108052048D01*
X56006203Y-109480619D02*
X56672869Y-109480619D01*
X56006203Y-109052048D02*
X56530012Y-109052048D01*
X56625250Y-109099667D01*
X56672869Y-109194905D01*
X56672869Y-109337762D01*
X56625250Y-109433000D01*
X56577631Y-109480619D01*
X56149060Y-110290143D02*
X56149060Y-109956809D01*
X56672869Y-109956809D02*
X55672869Y-109956809D01*
X55672869Y-110433000D01*
D12*
X54384774Y-108404429D02*
X54413346Y-108375857D01*
X54441917Y-108290143D01*
X54441917Y-108233000D01*
X54413346Y-108147286D01*
X54356203Y-108090143D01*
X54299060Y-108061571D01*
X54184774Y-108033000D01*
X54099060Y-108033000D01*
X53984774Y-108061571D01*
X53927631Y-108090143D01*
X53870489Y-108147286D01*
X53841917Y-108233000D01*
X53841917Y-108290143D01*
X53870489Y-108375857D01*
X53899060Y-108404429D01*
X53841917Y-108604429D02*
X53841917Y-109004429D01*
X54441917Y-108747286D01*
D11*
%TO.C,C8*%
X55581351Y-82263431D02*
X55581351Y-82358669D01*
X55628971Y-82453908D01*
X55676590Y-82501527D01*
X55771828Y-82549146D01*
X55962304Y-82596765D01*
X56200399Y-82596765D01*
X56390875Y-82549146D01*
X56486113Y-82501527D01*
X56533732Y-82453908D01*
X56581351Y-82358669D01*
X56581351Y-82263431D01*
X56533732Y-82168193D01*
X56486113Y-82120574D01*
X56390875Y-82072955D01*
X56200399Y-82025336D01*
X55962304Y-82025336D01*
X55771828Y-82072955D01*
X55676590Y-82120574D01*
X55628971Y-82168193D01*
X55581351Y-82263431D01*
X56486113Y-83025336D02*
X56533732Y-83072955D01*
X56581351Y-83025336D01*
X56533732Y-82977717D01*
X56486113Y-83025336D01*
X56581351Y-83025336D01*
X56581351Y-84025336D02*
X56581351Y-83453908D01*
X56581351Y-83739622D02*
X55581351Y-83739622D01*
X55724209Y-83644384D01*
X55819447Y-83549146D01*
X55867066Y-83453908D01*
X55914685Y-84882479D02*
X56581351Y-84882479D01*
X55914685Y-84453908D02*
X56438494Y-84453908D01*
X56533732Y-84501527D01*
X56581351Y-84596765D01*
X56581351Y-84739622D01*
X56533732Y-84834860D01*
X56486113Y-84882479D01*
X56057542Y-85692003D02*
X56057542Y-85358669D01*
X56581351Y-85358669D02*
X55581351Y-85358669D01*
X55581351Y-85834860D01*
D12*
X54293256Y-83806289D02*
X54321828Y-83777717D01*
X54350399Y-83692003D01*
X54350399Y-83634860D01*
X54321828Y-83549146D01*
X54264685Y-83492003D01*
X54207542Y-83463431D01*
X54093256Y-83434860D01*
X54007542Y-83434860D01*
X53893256Y-83463431D01*
X53836113Y-83492003D01*
X53778971Y-83549146D01*
X53750399Y-83634860D01*
X53750399Y-83692003D01*
X53778971Y-83777717D01*
X53807542Y-83806289D01*
X54007542Y-84149146D02*
X53978971Y-84092003D01*
X53950399Y-84063431D01*
X53893256Y-84034860D01*
X53864685Y-84034860D01*
X53807542Y-84063431D01*
X53778971Y-84092003D01*
X53750399Y-84149146D01*
X53750399Y-84263431D01*
X53778971Y-84320574D01*
X53807542Y-84349146D01*
X53864685Y-84377717D01*
X53893256Y-84377717D01*
X53950399Y-84349146D01*
X53978971Y-84320574D01*
X54007542Y-84263431D01*
X54007542Y-84149146D01*
X54036113Y-84092003D01*
X54064685Y-84063431D01*
X54121828Y-84034860D01*
X54236113Y-84034860D01*
X54293256Y-84063431D01*
X54321828Y-84092003D01*
X54350399Y-84149146D01*
X54350399Y-84263431D01*
X54321828Y-84320574D01*
X54293256Y-84349146D01*
X54236113Y-84377717D01*
X54121828Y-84377717D01*
X54064685Y-84349146D01*
X54036113Y-84320574D01*
X54007542Y-84263431D01*
D11*
%TO.C,C9*%
X94000727Y-81108180D02*
X93905489Y-81108180D01*
X93810250Y-81155800D01*
X93762631Y-81203419D01*
X93715012Y-81298657D01*
X93667393Y-81489133D01*
X93667393Y-81727228D01*
X93715012Y-81917704D01*
X93762631Y-82012942D01*
X93810250Y-82060561D01*
X93905489Y-82108180D01*
X94000727Y-82108180D01*
X94095965Y-82060561D01*
X94143584Y-82012942D01*
X94191203Y-81917704D01*
X94238822Y-81727228D01*
X94238822Y-81489133D01*
X94191203Y-81298657D01*
X94143584Y-81203419D01*
X94095965Y-81155800D01*
X94000727Y-81108180D01*
X93238822Y-82012942D02*
X93191203Y-82060561D01*
X93238822Y-82108180D01*
X93286441Y-82060561D01*
X93238822Y-82012942D01*
X93238822Y-82108180D01*
X92572155Y-81108180D02*
X92476917Y-81108180D01*
X92381679Y-81155800D01*
X92334060Y-81203419D01*
X92286441Y-81298657D01*
X92238822Y-81489133D01*
X92238822Y-81727228D01*
X92286441Y-81917704D01*
X92334060Y-82012942D01*
X92381679Y-82060561D01*
X92476917Y-82108180D01*
X92572155Y-82108180D01*
X92667393Y-82060561D01*
X92715012Y-82012942D01*
X92762631Y-81917704D01*
X92810250Y-81727228D01*
X92810250Y-81489133D01*
X92762631Y-81298657D01*
X92715012Y-81203419D01*
X92667393Y-81155800D01*
X92572155Y-81108180D01*
X91619774Y-81108180D02*
X91524536Y-81108180D01*
X91429298Y-81155800D01*
X91381679Y-81203419D01*
X91334060Y-81298657D01*
X91286441Y-81489133D01*
X91286441Y-81727228D01*
X91334060Y-81917704D01*
X91381679Y-82012942D01*
X91429298Y-82060561D01*
X91524536Y-82108180D01*
X91619774Y-82108180D01*
X91715012Y-82060561D01*
X91762631Y-82012942D01*
X91810250Y-81917704D01*
X91857869Y-81727228D01*
X91857869Y-81489133D01*
X91810250Y-81298657D01*
X91762631Y-81203419D01*
X91715012Y-81155800D01*
X91619774Y-81108180D01*
X90334060Y-82108180D02*
X90905489Y-82108180D01*
X90619774Y-82108180D02*
X90619774Y-81108180D01*
X90715012Y-81251038D01*
X90810250Y-81346276D01*
X90905489Y-81393895D01*
X89476917Y-81441514D02*
X89476917Y-82108180D01*
X89905489Y-81441514D02*
X89905489Y-81965323D01*
X89857869Y-82060561D01*
X89762631Y-82108180D01*
X89619774Y-82108180D01*
X89524536Y-82060561D01*
X89476917Y-82012942D01*
X88667393Y-81584371D02*
X89000727Y-81584371D01*
X89000727Y-82108180D02*
X89000727Y-81108180D01*
X88524536Y-81108180D01*
D12*
X91505489Y-83920085D02*
X91534060Y-83948657D01*
X91619774Y-83977228D01*
X91676917Y-83977228D01*
X91762631Y-83948657D01*
X91819774Y-83891514D01*
X91848346Y-83834371D01*
X91876917Y-83720085D01*
X91876917Y-83634371D01*
X91848346Y-83520085D01*
X91819774Y-83462942D01*
X91762631Y-83405800D01*
X91676917Y-83377228D01*
X91619774Y-83377228D01*
X91534060Y-83405800D01*
X91505489Y-83434371D01*
X91219774Y-83977228D02*
X91105489Y-83977228D01*
X91048346Y-83948657D01*
X91019774Y-83920085D01*
X90962631Y-83834371D01*
X90934060Y-83720085D01*
X90934060Y-83491514D01*
X90962631Y-83434371D01*
X90991203Y-83405800D01*
X91048346Y-83377228D01*
X91162631Y-83377228D01*
X91219774Y-83405800D01*
X91248346Y-83434371D01*
X91276917Y-83491514D01*
X91276917Y-83634371D01*
X91248346Y-83691514D01*
X91219774Y-83720085D01*
X91162631Y-83748657D01*
X91048346Y-83748657D01*
X90991203Y-83720085D01*
X90962631Y-83691514D01*
X90934060Y-83634371D01*
D11*
%TO.C,C10*%
X98195764Y-117548856D02*
X98195764Y-117644094D01*
X98243384Y-117739332D01*
X98291003Y-117786951D01*
X98386241Y-117834570D01*
X98576717Y-117882189D01*
X98814812Y-117882189D01*
X99005288Y-117834570D01*
X99100526Y-117786951D01*
X99148145Y-117739332D01*
X99195764Y-117644094D01*
X99195764Y-117548856D01*
X99148145Y-117453618D01*
X99100526Y-117405999D01*
X99005288Y-117358380D01*
X98814812Y-117310761D01*
X98576717Y-117310761D01*
X98386241Y-117358380D01*
X98291003Y-117405999D01*
X98243384Y-117453618D01*
X98195764Y-117548856D01*
X99100526Y-118310761D02*
X99148145Y-118358380D01*
X99195764Y-118310761D01*
X99148145Y-118263142D01*
X99100526Y-118310761D01*
X99195764Y-118310761D01*
X98195764Y-118977427D02*
X98195764Y-119072665D01*
X98243384Y-119167904D01*
X98291003Y-119215523D01*
X98386241Y-119263142D01*
X98576717Y-119310761D01*
X98814812Y-119310761D01*
X99005288Y-119263142D01*
X99100526Y-119215523D01*
X99148145Y-119167904D01*
X99195764Y-119072665D01*
X99195764Y-118977427D01*
X99148145Y-118882189D01*
X99100526Y-118834570D01*
X99005288Y-118786951D01*
X98814812Y-118739332D01*
X98576717Y-118739332D01*
X98386241Y-118786951D01*
X98291003Y-118834570D01*
X98243384Y-118882189D01*
X98195764Y-118977427D01*
X99195764Y-120263142D02*
X99195764Y-119691713D01*
X99195764Y-119977427D02*
X98195764Y-119977427D01*
X98338622Y-119882189D01*
X98433860Y-119786951D01*
X98481479Y-119691713D01*
X98529098Y-121120284D02*
X99195764Y-121120284D01*
X98529098Y-120691713D02*
X99052907Y-120691713D01*
X99148145Y-120739332D01*
X99195764Y-120834570D01*
X99195764Y-120977427D01*
X99148145Y-121072665D01*
X99100526Y-121120284D01*
X98671955Y-121929808D02*
X98671955Y-121596475D01*
X99195764Y-121596475D02*
X98195764Y-121596475D01*
X98195764Y-122072665D01*
D12*
X96907669Y-119282189D02*
X96936241Y-119253618D01*
X96964812Y-119167904D01*
X96964812Y-119110761D01*
X96936241Y-119025046D01*
X96879098Y-118967904D01*
X96821955Y-118939332D01*
X96707669Y-118910761D01*
X96621955Y-118910761D01*
X96507669Y-118939332D01*
X96450526Y-118967904D01*
X96393384Y-119025046D01*
X96364812Y-119110761D01*
X96364812Y-119167904D01*
X96393384Y-119253618D01*
X96421955Y-119282189D01*
X96964812Y-119853618D02*
X96964812Y-119510761D01*
X96964812Y-119682189D02*
X96364812Y-119682189D01*
X96450526Y-119625046D01*
X96507669Y-119567904D01*
X96536241Y-119510761D01*
X96364812Y-120225046D02*
X96364812Y-120282189D01*
X96393384Y-120339332D01*
X96421955Y-120367904D01*
X96479098Y-120396475D01*
X96593384Y-120425046D01*
X96736241Y-120425046D01*
X96850526Y-120396475D01*
X96907669Y-120367904D01*
X96936241Y-120339332D01*
X96964812Y-120282189D01*
X96964812Y-120225046D01*
X96936241Y-120167904D01*
X96907669Y-120139332D01*
X96850526Y-120110761D01*
X96736241Y-120082189D01*
X96593384Y-120082189D01*
X96479098Y-120110761D01*
X96421955Y-120139332D01*
X96393384Y-120167904D01*
X96364812Y-120225046D01*
D11*
%TO.C,C11*%
X94817869Y-96906441D02*
X94817869Y-97001679D01*
X94865489Y-97096917D01*
X94913108Y-97144536D01*
X95008346Y-97192155D01*
X95198822Y-97239774D01*
X95436917Y-97239774D01*
X95627393Y-97192155D01*
X95722631Y-97144536D01*
X95770250Y-97096917D01*
X95817869Y-97001679D01*
X95817869Y-96906441D01*
X95770250Y-96811203D01*
X95722631Y-96763584D01*
X95627393Y-96715965D01*
X95436917Y-96668346D01*
X95198822Y-96668346D01*
X95008346Y-96715965D01*
X94913108Y-96763584D01*
X94865489Y-96811203D01*
X94817869Y-96906441D01*
X95722631Y-97668346D02*
X95770250Y-97715965D01*
X95817869Y-97668346D01*
X95770250Y-97620727D01*
X95722631Y-97668346D01*
X95817869Y-97668346D01*
X94817869Y-98335012D02*
X94817869Y-98430250D01*
X94865489Y-98525489D01*
X94913108Y-98573108D01*
X95008346Y-98620727D01*
X95198822Y-98668346D01*
X95436917Y-98668346D01*
X95627393Y-98620727D01*
X95722631Y-98573108D01*
X95770250Y-98525489D01*
X95817869Y-98430250D01*
X95817869Y-98335012D01*
X95770250Y-98239774D01*
X95722631Y-98192155D01*
X95627393Y-98144536D01*
X95436917Y-98096917D01*
X95198822Y-98096917D01*
X95008346Y-98144536D01*
X94913108Y-98192155D01*
X94865489Y-98239774D01*
X94817869Y-98335012D01*
X94817869Y-99001679D02*
X94817869Y-99620727D01*
X95198822Y-99287393D01*
X95198822Y-99430250D01*
X95246441Y-99525489D01*
X95294060Y-99573108D01*
X95389298Y-99620727D01*
X95627393Y-99620727D01*
X95722631Y-99573108D01*
X95770250Y-99525489D01*
X95817869Y-99430250D01*
X95817869Y-99144536D01*
X95770250Y-99049298D01*
X95722631Y-99001679D01*
X95151203Y-100477869D02*
X95817869Y-100477869D01*
X95151203Y-100049298D02*
X95675012Y-100049298D01*
X95770250Y-100096917D01*
X95817869Y-100192155D01*
X95817869Y-100335012D01*
X95770250Y-100430250D01*
X95722631Y-100477869D01*
X95294060Y-101287393D02*
X95294060Y-100954060D01*
X95817869Y-100954060D02*
X94817869Y-100954060D01*
X94817869Y-101430250D01*
D12*
X93529774Y-98639774D02*
X93558346Y-98611203D01*
X93586917Y-98525489D01*
X93586917Y-98468346D01*
X93558346Y-98382631D01*
X93501203Y-98325489D01*
X93444060Y-98296917D01*
X93329774Y-98268346D01*
X93244060Y-98268346D01*
X93129774Y-98296917D01*
X93072631Y-98325489D01*
X93015489Y-98382631D01*
X92986917Y-98468346D01*
X92986917Y-98525489D01*
X93015489Y-98611203D01*
X93044060Y-98639774D01*
X93586917Y-99211203D02*
X93586917Y-98868346D01*
X93586917Y-99039774D02*
X92986917Y-99039774D01*
X93072631Y-98982631D01*
X93129774Y-98925489D01*
X93158346Y-98868346D01*
X93586917Y-99782631D02*
X93586917Y-99439774D01*
X93586917Y-99611203D02*
X92986917Y-99611203D01*
X93072631Y-99554060D01*
X93129774Y-99496917D01*
X93158346Y-99439774D01*
D11*
%TO.C,D1*%
X103437022Y-137150271D02*
X103905109Y-136822513D01*
X103671066Y-136986392D02*
X103097489Y-136167240D01*
X103257443Y-136229635D01*
X103390084Y-136253023D01*
X103495412Y-136237404D01*
X103085957Y-137396089D02*
X102512381Y-136576937D01*
X102617870Y-137723847D01*
X102044294Y-136904695D01*
X101264149Y-137450959D02*
X101654221Y-137177827D01*
X101966360Y-137540586D01*
X101900040Y-137528892D01*
X101794712Y-137544511D01*
X101599676Y-137681077D01*
X101548975Y-137774711D01*
X101537281Y-137841031D01*
X101552900Y-137946359D01*
X101689466Y-138141395D01*
X101783099Y-138192096D01*
X101849420Y-138203790D01*
X101954747Y-138188171D01*
X102149783Y-138051605D01*
X102200485Y-137957972D01*
X102212179Y-137891651D01*
X101002873Y-138157095D02*
X101053575Y-138063461D01*
X101065269Y-137997141D01*
X101049650Y-137891813D01*
X101022337Y-137852806D01*
X100928703Y-137802105D01*
X100862383Y-137790411D01*
X100757055Y-137806030D01*
X100601026Y-137915282D01*
X100550325Y-138008916D01*
X100538631Y-138075236D01*
X100554250Y-138180564D01*
X100581563Y-138219571D01*
X100675196Y-138270273D01*
X100741517Y-138281967D01*
X100846844Y-138266348D01*
X101002873Y-138157095D01*
X101108201Y-138141476D01*
X101174521Y-138153170D01*
X101268155Y-138203871D01*
X101377408Y-138359900D01*
X101393027Y-138465228D01*
X101381333Y-138531548D01*
X101330631Y-138625182D01*
X101174602Y-138734434D01*
X101069275Y-138750053D01*
X101002954Y-138738359D01*
X100909321Y-138687658D01*
X100800068Y-138531629D01*
X100784449Y-138426301D01*
X100796143Y-138359981D01*
X100846844Y-138266348D01*
X100238429Y-139389950D02*
X100706516Y-139062192D01*
X100472472Y-139226071D02*
X99898896Y-138406919D01*
X100058850Y-138469315D01*
X100191490Y-138492703D01*
X100296818Y-138477084D01*
X99391802Y-138761990D02*
X98845700Y-139144375D01*
X99770342Y-139717708D01*
X103436284Y-131571848D02*
X102862708Y-130752696D01*
X102968197Y-131899606D02*
X102991505Y-131185700D01*
X102394621Y-131080454D02*
X103190466Y-131220783D01*
X100550106Y-136156398D02*
X99976529Y-135337246D01*
X99781493Y-135473812D01*
X99691785Y-135594759D01*
X99668396Y-135727400D01*
X99684016Y-135832727D01*
X99754261Y-136016069D01*
X99836200Y-136133091D01*
X99984460Y-136261807D01*
X100078094Y-136312508D01*
X100210735Y-136335896D01*
X100355070Y-136292964D01*
X100550106Y-136156398D01*
X99301874Y-137030419D02*
X99769961Y-136702662D01*
X99535918Y-136866541D02*
X98962341Y-136047388D01*
X99122295Y-136109784D01*
X99254936Y-136133172D01*
X99360264Y-136117553D01*
%TO.C,D3*%
X98937869Y-63932942D02*
X98937869Y-63361514D01*
X98937869Y-63647228D02*
X97937869Y-63647228D01*
X98080727Y-63551990D01*
X98175965Y-63456752D01*
X98223584Y-63361514D01*
X98937869Y-64361514D02*
X97937869Y-64361514D01*
X98937869Y-64932942D01*
X97937869Y-64932942D01*
X98271203Y-65837704D02*
X98937869Y-65837704D01*
X97890250Y-65599609D02*
X98604536Y-65361514D01*
X98604536Y-65980561D01*
X98937869Y-66885323D02*
X98937869Y-66313895D01*
X98937869Y-66599609D02*
X97937869Y-66599609D01*
X98080727Y-66504371D01*
X98175965Y-66409133D01*
X98223584Y-66313895D01*
X98271203Y-67742466D02*
X98937869Y-67742466D01*
X97890250Y-67504371D02*
X98604536Y-67266276D01*
X98604536Y-67885323D01*
X98366441Y-68409133D02*
X98318822Y-68313895D01*
X98271203Y-68266276D01*
X98175965Y-68218657D01*
X98128346Y-68218657D01*
X98033108Y-68266276D01*
X97985489Y-68313895D01*
X97937869Y-68409133D01*
X97937869Y-68599609D01*
X97985489Y-68694847D01*
X98033108Y-68742466D01*
X98128346Y-68790085D01*
X98175965Y-68790085D01*
X98271203Y-68742466D01*
X98318822Y-68694847D01*
X98366441Y-68599609D01*
X98366441Y-68409133D01*
X98414060Y-68313895D01*
X98461679Y-68266276D01*
X98556917Y-68218657D01*
X98747393Y-68218657D01*
X98842631Y-68266276D01*
X98890250Y-68313895D01*
X98937869Y-68409133D01*
X98937869Y-68599609D01*
X98890250Y-68694847D01*
X98842631Y-68742466D01*
X98747393Y-68790085D01*
X98556917Y-68790085D01*
X98461679Y-68742466D01*
X98414060Y-68694847D01*
X98366441Y-68599609D01*
D13*
X97027393Y-65485323D02*
X96227393Y-65485323D01*
X96227393Y-65675800D01*
X96265489Y-65790085D01*
X96341679Y-65866276D01*
X96417869Y-65904371D01*
X96570250Y-65942466D01*
X96684536Y-65942466D01*
X96836917Y-65904371D01*
X96913108Y-65866276D01*
X96989298Y-65790085D01*
X97027393Y-65675800D01*
X97027393Y-65485323D01*
X96227393Y-66209133D02*
X96227393Y-66704371D01*
X96532155Y-66437704D01*
X96532155Y-66551990D01*
X96570250Y-66628180D01*
X96608346Y-66666276D01*
X96684536Y-66704371D01*
X96875012Y-66704371D01*
X96951203Y-66666276D01*
X96989298Y-66628180D01*
X97027393Y-66551990D01*
X97027393Y-66323419D01*
X96989298Y-66247228D01*
X96951203Y-66209133D01*
D11*
X95317869Y-65813895D02*
X94317869Y-65813895D01*
X95317869Y-66385323D02*
X94746441Y-65956752D01*
X94317869Y-66385323D02*
X94889298Y-65813895D01*
%TO.C,D5*%
X50340910Y-136591370D02*
X49846039Y-136305655D01*
X50093474Y-136448512D02*
X49593474Y-137314538D01*
X49582424Y-137143201D01*
X49547565Y-137013103D01*
X49488896Y-136924245D01*
X50712064Y-136805655D02*
X50212064Y-137671681D01*
X51206936Y-137091370D01*
X50706936Y-137957395D01*
X51531722Y-138433585D02*
X51119329Y-138195490D01*
X51316185Y-137759288D01*
X51333614Y-137824336D01*
X51392284Y-137913195D01*
X51598480Y-138032242D01*
X51704768Y-138038622D01*
X51769817Y-138021192D01*
X51858675Y-137962523D01*
X51977723Y-137756327D01*
X51984103Y-137650039D01*
X51966673Y-137584990D01*
X51908004Y-137496131D01*
X51701807Y-137377084D01*
X51595519Y-137370704D01*
X51530470Y-137388134D01*
X52282118Y-138371955D02*
X52175830Y-138365576D01*
X52110781Y-138383006D01*
X52021923Y-138441675D01*
X51998114Y-138482914D01*
X51991734Y-138589202D01*
X52009164Y-138654251D01*
X52067833Y-138743109D01*
X52232790Y-138838347D01*
X52339078Y-138844727D01*
X52404127Y-138827297D01*
X52492985Y-138768628D01*
X52516795Y-138727389D01*
X52523175Y-138621101D01*
X52505745Y-138556052D01*
X52447076Y-138467194D01*
X52282118Y-138371955D01*
X52223449Y-138283097D01*
X52206020Y-138218048D01*
X52212399Y-138111760D01*
X52307637Y-137946803D01*
X52396496Y-137888134D01*
X52461545Y-137870704D01*
X52567833Y-137877084D01*
X52732790Y-137972322D01*
X52791459Y-138061180D01*
X52808889Y-138126229D01*
X52802509Y-138232517D01*
X52707271Y-138397474D01*
X52618413Y-138456144D01*
X52553364Y-138473573D01*
X52447076Y-138467194D01*
X53722533Y-138543750D02*
X53227662Y-138258036D01*
X53475097Y-138400893D02*
X52975097Y-139266919D01*
X52964047Y-139095582D01*
X52929188Y-138965484D01*
X52870519Y-138876626D01*
X53511208Y-139576443D02*
X54088559Y-139909776D01*
X54217405Y-138829465D01*
X52454720Y-134959667D02*
X51954720Y-135825693D01*
X52160916Y-135944741D01*
X52308444Y-135974930D01*
X52438541Y-135940070D01*
X52527400Y-135881401D01*
X52663877Y-135740253D01*
X52735306Y-135616536D01*
X52789304Y-135427769D01*
X52795684Y-135321481D01*
X52760825Y-135191383D01*
X52660916Y-135078715D01*
X52454720Y-134959667D01*
X53233138Y-136563788D02*
X52820745Y-136325693D01*
X53017601Y-135889490D01*
X53035031Y-135954539D01*
X53093700Y-136043397D01*
X53299896Y-136162445D01*
X53406185Y-136168825D01*
X53471233Y-136151395D01*
X53560092Y-136092726D01*
X53679139Y-135886529D01*
X53685519Y-135780241D01*
X53668089Y-135715193D01*
X53609420Y-135626334D01*
X53403224Y-135507287D01*
X53296936Y-135500907D01*
X53231887Y-135518337D01*
X58654272Y-136114110D02*
X58154272Y-136980135D01*
X59149143Y-136399824D02*
X58492275Y-136680410D01*
X58649143Y-137265849D02*
X58439986Y-136485263D01*
%TO.C,D6*%
X64940846Y-58713349D02*
X65512274Y-58713349D01*
X65226560Y-58713349D02*
X65226560Y-57713349D01*
X65321798Y-57856207D01*
X65417036Y-57951445D01*
X65512274Y-57999064D01*
X64512274Y-58713349D02*
X64512274Y-57713349D01*
X63940846Y-58713349D01*
X63940846Y-57713349D01*
X63036084Y-58046683D02*
X63036084Y-58713349D01*
X63274179Y-57665730D02*
X63512274Y-58380016D01*
X62893227Y-58380016D01*
X61988465Y-58713349D02*
X62559893Y-58713349D01*
X62274179Y-58713349D02*
X62274179Y-57713349D01*
X62369417Y-57856207D01*
X62464655Y-57951445D01*
X62559893Y-57999064D01*
X61131322Y-58046683D02*
X61131322Y-58713349D01*
X61369417Y-57665730D02*
X61607512Y-58380016D01*
X60988465Y-58380016D01*
X60464655Y-58141921D02*
X60559893Y-58094302D01*
X60607512Y-58046683D01*
X60655131Y-57951445D01*
X60655131Y-57903826D01*
X60607512Y-57808588D01*
X60559893Y-57760969D01*
X60464655Y-57713349D01*
X60274179Y-57713349D01*
X60178941Y-57760969D01*
X60131322Y-57808588D01*
X60083703Y-57903826D01*
X60083703Y-57951445D01*
X60131322Y-58046683D01*
X60178941Y-58094302D01*
X60274179Y-58141921D01*
X60464655Y-58141921D01*
X60559893Y-58189540D01*
X60607512Y-58237159D01*
X60655131Y-58332397D01*
X60655131Y-58522873D01*
X60607512Y-58618111D01*
X60559893Y-58665730D01*
X60464655Y-58713349D01*
X60274179Y-58713349D01*
X60178941Y-58665730D01*
X60131322Y-58618111D01*
X60083703Y-58522873D01*
X60083703Y-58332397D01*
X60131322Y-58237159D01*
X60178941Y-58189540D01*
X60274179Y-58141921D01*
D13*
X63388465Y-60442873D02*
X63388465Y-59642873D01*
X63197989Y-59642873D01*
X63083703Y-59680969D01*
X63007512Y-59757159D01*
X62969417Y-59833349D01*
X62931322Y-59985730D01*
X62931322Y-60100016D01*
X62969417Y-60252397D01*
X63007512Y-60328588D01*
X63083703Y-60404778D01*
X63197989Y-60442873D01*
X63388465Y-60442873D01*
X62245608Y-59642873D02*
X62397989Y-59642873D01*
X62474179Y-59680969D01*
X62512274Y-59719064D01*
X62588465Y-59833349D01*
X62626560Y-59985730D01*
X62626560Y-60290492D01*
X62588465Y-60366683D01*
X62550369Y-60404778D01*
X62474179Y-60442873D01*
X62321798Y-60442873D01*
X62245608Y-60404778D01*
X62207512Y-60366683D01*
X62169417Y-60290492D01*
X62169417Y-60100016D01*
X62207512Y-60023826D01*
X62245608Y-59985730D01*
X62321798Y-59947635D01*
X62474179Y-59947635D01*
X62550369Y-59985730D01*
X62588465Y-60023826D01*
X62626560Y-60100016D01*
D11*
X63059893Y-62333349D02*
X63059893Y-61333349D01*
X62488465Y-62333349D02*
X62917036Y-61761921D01*
X62488465Y-61333349D02*
X63059893Y-61904778D01*
%TO.C,D7*%
X68897869Y-101032631D02*
X68897869Y-100461203D01*
X68897869Y-100746917D02*
X67897869Y-100746917D01*
X68040727Y-100651679D01*
X68135965Y-100556441D01*
X68183584Y-100461203D01*
X68897869Y-101461203D02*
X67897869Y-101461203D01*
X68897869Y-102032631D01*
X67897869Y-102032631D01*
X68231203Y-102937393D02*
X68897869Y-102937393D01*
X67850250Y-102699298D02*
X68564536Y-102461203D01*
X68564536Y-103080250D01*
X68897869Y-103985012D02*
X68897869Y-103413584D01*
X68897869Y-103699298D02*
X67897869Y-103699298D01*
X68040727Y-103604060D01*
X68135965Y-103508822D01*
X68183584Y-103413584D01*
X68231203Y-104842155D02*
X68897869Y-104842155D01*
X67850250Y-104604060D02*
X68564536Y-104365965D01*
X68564536Y-104985012D01*
X68326441Y-105508822D02*
X68278822Y-105413584D01*
X68231203Y-105365965D01*
X68135965Y-105318346D01*
X68088346Y-105318346D01*
X67993108Y-105365965D01*
X67945489Y-105413584D01*
X67897869Y-105508822D01*
X67897869Y-105699298D01*
X67945489Y-105794536D01*
X67993108Y-105842155D01*
X68088346Y-105889774D01*
X68135965Y-105889774D01*
X68231203Y-105842155D01*
X68278822Y-105794536D01*
X68326441Y-105699298D01*
X68326441Y-105508822D01*
X68374060Y-105413584D01*
X68421679Y-105365965D01*
X68516917Y-105318346D01*
X68707393Y-105318346D01*
X68802631Y-105365965D01*
X68850250Y-105413584D01*
X68897869Y-105508822D01*
X68897869Y-105699298D01*
X68850250Y-105794536D01*
X68802631Y-105842155D01*
X68707393Y-105889774D01*
X68516917Y-105889774D01*
X68421679Y-105842155D01*
X68374060Y-105794536D01*
X68326441Y-105699298D01*
X72517869Y-102913584D02*
X71517869Y-102913584D01*
X72517869Y-103485012D02*
X71946441Y-103056441D01*
X71517869Y-103485012D02*
X72089298Y-102913584D01*
D13*
X70627393Y-102585012D02*
X69827393Y-102585012D01*
X69827393Y-102775489D01*
X69865489Y-102889774D01*
X69941679Y-102965965D01*
X70017869Y-103004060D01*
X70170250Y-103042155D01*
X70284536Y-103042155D01*
X70436917Y-103004060D01*
X70513108Y-102965965D01*
X70589298Y-102889774D01*
X70627393Y-102775489D01*
X70627393Y-102585012D01*
X69827393Y-103308822D02*
X69827393Y-103842155D01*
X70627393Y-103499298D01*
D11*
%TO.C,D10*%
X77850369Y-65458111D02*
X77850369Y-64886683D01*
X77850369Y-65172397D02*
X76850369Y-65172397D01*
X76993227Y-65077159D01*
X77088465Y-64981921D01*
X77136084Y-64886683D01*
X77850369Y-65886683D02*
X76850369Y-65886683D01*
X77850369Y-66458111D01*
X76850369Y-66458111D01*
X77183703Y-67362873D02*
X77850369Y-67362873D01*
X76802750Y-67124778D02*
X77517036Y-66886683D01*
X77517036Y-67505730D01*
X77850369Y-68410492D02*
X77850369Y-67839064D01*
X77850369Y-68124778D02*
X76850369Y-68124778D01*
X76993227Y-68029540D01*
X77088465Y-67934302D01*
X77136084Y-67839064D01*
X77183703Y-69267635D02*
X77850369Y-69267635D01*
X76802750Y-69029540D02*
X77517036Y-68791445D01*
X77517036Y-69410492D01*
X77278941Y-69934302D02*
X77231322Y-69839064D01*
X77183703Y-69791445D01*
X77088465Y-69743826D01*
X77040846Y-69743826D01*
X76945608Y-69791445D01*
X76897989Y-69839064D01*
X76850369Y-69934302D01*
X76850369Y-70124778D01*
X76897989Y-70220016D01*
X76945608Y-70267635D01*
X77040846Y-70315254D01*
X77088465Y-70315254D01*
X77183703Y-70267635D01*
X77231322Y-70220016D01*
X77278941Y-70124778D01*
X77278941Y-69934302D01*
X77326560Y-69839064D01*
X77374179Y-69791445D01*
X77469417Y-69743826D01*
X77659893Y-69743826D01*
X77755131Y-69791445D01*
X77802750Y-69839064D01*
X77850369Y-69934302D01*
X77850369Y-70124778D01*
X77802750Y-70220016D01*
X77755131Y-70267635D01*
X77659893Y-70315254D01*
X77469417Y-70315254D01*
X77374179Y-70267635D01*
X77326560Y-70220016D01*
X77278941Y-70124778D01*
X81470369Y-67339064D02*
X80470369Y-67339064D01*
X81470369Y-67910492D02*
X80898941Y-67481921D01*
X80470369Y-67910492D02*
X81041798Y-67339064D01*
D13*
X79579893Y-66629540D02*
X78779893Y-66629540D01*
X78779893Y-66820016D01*
X78817989Y-66934302D01*
X78894179Y-67010492D01*
X78970369Y-67048588D01*
X79122750Y-67086683D01*
X79237036Y-67086683D01*
X79389417Y-67048588D01*
X79465608Y-67010492D01*
X79541798Y-66934302D01*
X79579893Y-66820016D01*
X79579893Y-66629540D01*
X79579893Y-67848588D02*
X79579893Y-67391445D01*
X79579893Y-67620016D02*
X78779893Y-67620016D01*
X78894179Y-67543826D01*
X78970369Y-67467635D01*
X79008465Y-67391445D01*
X78779893Y-68343826D02*
X78779893Y-68420016D01*
X78817989Y-68496207D01*
X78856084Y-68534302D01*
X78932274Y-68572397D01*
X79084655Y-68610492D01*
X79275131Y-68610492D01*
X79427512Y-68572397D01*
X79503703Y-68534302D01*
X79541798Y-68496207D01*
X79579893Y-68420016D01*
X79579893Y-68343826D01*
X79541798Y-68267635D01*
X79503703Y-68229540D01*
X79427512Y-68191445D01*
X79275131Y-68153349D01*
X79084655Y-68153349D01*
X78932274Y-68191445D01*
X78856084Y-68229540D01*
X78817989Y-68267635D01*
X78779893Y-68343826D01*
D11*
%TO.C,D11*%
X73948346Y-128637869D02*
X74519774Y-128637869D01*
X74234060Y-128637869D02*
X74234060Y-127637869D01*
X74329298Y-127780727D01*
X74424536Y-127875965D01*
X74519774Y-127923584D01*
X73519774Y-128637869D02*
X73519774Y-127637869D01*
X72948346Y-128637869D01*
X72948346Y-127637869D01*
X72043584Y-127971203D02*
X72043584Y-128637869D01*
X72281679Y-127590250D02*
X72519774Y-128304536D01*
X71900727Y-128304536D01*
X70995965Y-128637869D02*
X71567393Y-128637869D01*
X71281679Y-128637869D02*
X71281679Y-127637869D01*
X71376917Y-127780727D01*
X71472155Y-127875965D01*
X71567393Y-127923584D01*
X70138822Y-127971203D02*
X70138822Y-128637869D01*
X70376917Y-127590250D02*
X70615012Y-128304536D01*
X69995965Y-128304536D01*
X69472155Y-128066441D02*
X69567393Y-128018822D01*
X69615012Y-127971203D01*
X69662631Y-127875965D01*
X69662631Y-127828346D01*
X69615012Y-127733108D01*
X69567393Y-127685489D01*
X69472155Y-127637869D01*
X69281679Y-127637869D01*
X69186441Y-127685489D01*
X69138822Y-127733108D01*
X69091203Y-127828346D01*
X69091203Y-127875965D01*
X69138822Y-127971203D01*
X69186441Y-128018822D01*
X69281679Y-128066441D01*
X69472155Y-128066441D01*
X69567393Y-128114060D01*
X69615012Y-128161679D01*
X69662631Y-128256917D01*
X69662631Y-128447393D01*
X69615012Y-128542631D01*
X69567393Y-128590250D01*
X69472155Y-128637869D01*
X69281679Y-128637869D01*
X69186441Y-128590250D01*
X69138822Y-128542631D01*
X69091203Y-128447393D01*
X69091203Y-128256917D01*
X69138822Y-128161679D01*
X69186441Y-128114060D01*
X69281679Y-128066441D01*
D13*
X72776917Y-126727393D02*
X72776917Y-125927393D01*
X72586441Y-125927393D01*
X72472155Y-125965489D01*
X72395965Y-126041679D01*
X72357869Y-126117869D01*
X72319774Y-126270250D01*
X72319774Y-126384536D01*
X72357869Y-126536917D01*
X72395965Y-126613108D01*
X72472155Y-126689298D01*
X72586441Y-126727393D01*
X72776917Y-126727393D01*
X71557869Y-126727393D02*
X72015012Y-126727393D01*
X71786441Y-126727393D02*
X71786441Y-125927393D01*
X71862631Y-126041679D01*
X71938822Y-126117869D01*
X72015012Y-126155965D01*
X70795965Y-126727393D02*
X71253108Y-126727393D01*
X71024536Y-126727393D02*
X71024536Y-125927393D01*
X71100727Y-126041679D01*
X71176917Y-126117869D01*
X71253108Y-126155965D01*
D11*
X72067393Y-125017869D02*
X72067393Y-124017869D01*
X71495965Y-125017869D02*
X71924536Y-124446441D01*
X71495965Y-124017869D02*
X72067393Y-124589298D01*
%TO.C,D12*%
X68808346Y-121667869D02*
X69379774Y-121667869D01*
X69094060Y-121667869D02*
X69094060Y-120667869D01*
X69189298Y-120810727D01*
X69284536Y-120905965D01*
X69379774Y-120953584D01*
X68379774Y-121667869D02*
X68379774Y-120667869D01*
X67808346Y-121667869D01*
X67808346Y-120667869D01*
X66903584Y-121001203D02*
X66903584Y-121667869D01*
X67141679Y-120620250D02*
X67379774Y-121334536D01*
X66760727Y-121334536D01*
X65855965Y-121667869D02*
X66427393Y-121667869D01*
X66141679Y-121667869D02*
X66141679Y-120667869D01*
X66236917Y-120810727D01*
X66332155Y-120905965D01*
X66427393Y-120953584D01*
X64998822Y-121001203D02*
X64998822Y-121667869D01*
X65236917Y-120620250D02*
X65475012Y-121334536D01*
X64855965Y-121334536D01*
X64332155Y-121096441D02*
X64427393Y-121048822D01*
X64475012Y-121001203D01*
X64522631Y-120905965D01*
X64522631Y-120858346D01*
X64475012Y-120763108D01*
X64427393Y-120715489D01*
X64332155Y-120667869D01*
X64141679Y-120667869D01*
X64046441Y-120715489D01*
X63998822Y-120763108D01*
X63951203Y-120858346D01*
X63951203Y-120905965D01*
X63998822Y-121001203D01*
X64046441Y-121048822D01*
X64141679Y-121096441D01*
X64332155Y-121096441D01*
X64427393Y-121144060D01*
X64475012Y-121191679D01*
X64522631Y-121286917D01*
X64522631Y-121477393D01*
X64475012Y-121572631D01*
X64427393Y-121620250D01*
X64332155Y-121667869D01*
X64141679Y-121667869D01*
X64046441Y-121620250D01*
X63998822Y-121572631D01*
X63951203Y-121477393D01*
X63951203Y-121286917D01*
X63998822Y-121191679D01*
X64046441Y-121144060D01*
X64141679Y-121096441D01*
X66927393Y-125287869D02*
X66927393Y-124287869D01*
X66355965Y-125287869D02*
X66784536Y-124716441D01*
X66355965Y-124287869D02*
X66927393Y-124859298D01*
D13*
X67636917Y-123397393D02*
X67636917Y-122597393D01*
X67446441Y-122597393D01*
X67332155Y-122635489D01*
X67255965Y-122711679D01*
X67217869Y-122787869D01*
X67179774Y-122940250D01*
X67179774Y-123054536D01*
X67217869Y-123206917D01*
X67255965Y-123283108D01*
X67332155Y-123359298D01*
X67446441Y-123397393D01*
X67636917Y-123397393D01*
X66417869Y-123397393D02*
X66875012Y-123397393D01*
X66646441Y-123397393D02*
X66646441Y-122597393D01*
X66722631Y-122711679D01*
X66798822Y-122787869D01*
X66875012Y-122825965D01*
X66113108Y-122673584D02*
X66075012Y-122635489D01*
X65998822Y-122597393D01*
X65808346Y-122597393D01*
X65732155Y-122635489D01*
X65694060Y-122673584D01*
X65655965Y-122749774D01*
X65655965Y-122825965D01*
X65694060Y-122940250D01*
X66151203Y-123397393D01*
X65655965Y-123397393D01*
D11*
%TO.C,D13*%
X68968346Y-124927869D02*
X69539774Y-124927869D01*
X69254060Y-124927869D02*
X69254060Y-123927869D01*
X69349298Y-124070727D01*
X69444536Y-124165965D01*
X69539774Y-124213584D01*
X68539774Y-124927869D02*
X68539774Y-123927869D01*
X67968346Y-124927869D01*
X67968346Y-123927869D01*
X67063584Y-124261203D02*
X67063584Y-124927869D01*
X67301679Y-123880250D02*
X67539774Y-124594536D01*
X66920727Y-124594536D01*
X66015965Y-124927869D02*
X66587393Y-124927869D01*
X66301679Y-124927869D02*
X66301679Y-123927869D01*
X66396917Y-124070727D01*
X66492155Y-124165965D01*
X66587393Y-124213584D01*
X65158822Y-124261203D02*
X65158822Y-124927869D01*
X65396917Y-123880250D02*
X65635012Y-124594536D01*
X65015965Y-124594536D01*
X64492155Y-124356441D02*
X64587393Y-124308822D01*
X64635012Y-124261203D01*
X64682631Y-124165965D01*
X64682631Y-124118346D01*
X64635012Y-124023108D01*
X64587393Y-123975489D01*
X64492155Y-123927869D01*
X64301679Y-123927869D01*
X64206441Y-123975489D01*
X64158822Y-124023108D01*
X64111203Y-124118346D01*
X64111203Y-124165965D01*
X64158822Y-124261203D01*
X64206441Y-124308822D01*
X64301679Y-124356441D01*
X64492155Y-124356441D01*
X64587393Y-124404060D01*
X64635012Y-124451679D01*
X64682631Y-124546917D01*
X64682631Y-124737393D01*
X64635012Y-124832631D01*
X64587393Y-124880250D01*
X64492155Y-124927869D01*
X64301679Y-124927869D01*
X64206441Y-124880250D01*
X64158822Y-124832631D01*
X64111203Y-124737393D01*
X64111203Y-124546917D01*
X64158822Y-124451679D01*
X64206441Y-124404060D01*
X64301679Y-124356441D01*
X67087393Y-128547869D02*
X67087393Y-127547869D01*
X66515965Y-128547869D02*
X66944536Y-127976441D01*
X66515965Y-127547869D02*
X67087393Y-128119298D01*
D13*
X67796917Y-126657393D02*
X67796917Y-125857393D01*
X67606441Y-125857393D01*
X67492155Y-125895489D01*
X67415965Y-125971679D01*
X67377869Y-126047869D01*
X67339774Y-126200250D01*
X67339774Y-126314536D01*
X67377869Y-126466917D01*
X67415965Y-126543108D01*
X67492155Y-126619298D01*
X67606441Y-126657393D01*
X67796917Y-126657393D01*
X66577869Y-126657393D02*
X67035012Y-126657393D01*
X66806441Y-126657393D02*
X66806441Y-125857393D01*
X66882631Y-125971679D01*
X66958822Y-126047869D01*
X67035012Y-126085965D01*
X66311203Y-125857393D02*
X65815965Y-125857393D01*
X66082631Y-126162155D01*
X65968346Y-126162155D01*
X65892155Y-126200250D01*
X65854060Y-126238346D01*
X65815965Y-126314536D01*
X65815965Y-126505012D01*
X65854060Y-126581203D01*
X65892155Y-126619298D01*
X65968346Y-126657393D01*
X66196917Y-126657393D01*
X66273108Y-126619298D01*
X66311203Y-126581203D01*
D11*
%TO.C,J1*%
X90335250Y-129742631D02*
X90382869Y-129885489D01*
X90382869Y-130123584D01*
X90335250Y-130218822D01*
X90287631Y-130266441D01*
X90192393Y-130314060D01*
X90097155Y-130314060D01*
X90001917Y-130266441D01*
X89954298Y-130218822D01*
X89906679Y-130123584D01*
X89859060Y-129933108D01*
X89811441Y-129837869D01*
X89763822Y-129790250D01*
X89668584Y-129742631D01*
X89573346Y-129742631D01*
X89478108Y-129790250D01*
X89430489Y-129837869D01*
X89382869Y-129933108D01*
X89382869Y-130171203D01*
X89430489Y-130314060D01*
X89716203Y-130647393D02*
X90382869Y-130885489D01*
X89716203Y-131123584D02*
X90382869Y-130885489D01*
X90620965Y-130790250D01*
X90668584Y-130742631D01*
X90716203Y-130647393D01*
X89716203Y-131504536D02*
X90382869Y-131504536D01*
X89811441Y-131504536D02*
X89763822Y-131552155D01*
X89716203Y-131647393D01*
X89716203Y-131790250D01*
X89763822Y-131885489D01*
X89859060Y-131933108D01*
X90382869Y-131933108D01*
X89716203Y-132266441D02*
X89716203Y-132647393D01*
X89382869Y-132409298D02*
X90240012Y-132409298D01*
X90335250Y-132456917D01*
X90382869Y-132552155D01*
X90382869Y-132647393D01*
X90382869Y-132980727D02*
X89382869Y-132980727D01*
X90382869Y-133409298D02*
X89859060Y-133409298D01*
X89763822Y-133361679D01*
X89716203Y-133266441D01*
X89716203Y-133123584D01*
X89763822Y-133028346D01*
X89811441Y-132980727D01*
X90478108Y-133647393D02*
X90478108Y-134409298D01*
X89716203Y-134647393D02*
X90716203Y-134647393D01*
X89763822Y-134647393D02*
X89716203Y-134742631D01*
X89716203Y-134933108D01*
X89763822Y-135028346D01*
X89811441Y-135075965D01*
X89906679Y-135123584D01*
X90192393Y-135123584D01*
X90287631Y-135075965D01*
X90335250Y-135028346D01*
X90382869Y-134933108D01*
X90382869Y-134742631D01*
X90335250Y-134647393D01*
X90382869Y-135695012D02*
X90335250Y-135599774D01*
X90287631Y-135552155D01*
X90192393Y-135504536D01*
X89906679Y-135504536D01*
X89811441Y-135552155D01*
X89763822Y-135599774D01*
X89716203Y-135695012D01*
X89716203Y-135837869D01*
X89763822Y-135933108D01*
X89811441Y-135980727D01*
X89906679Y-136028346D01*
X90192393Y-136028346D01*
X90287631Y-135980727D01*
X90335250Y-135933108D01*
X90382869Y-135837869D01*
X90382869Y-135695012D01*
X89716203Y-136361679D02*
X90382869Y-136552155D01*
X89906679Y-136742631D01*
X90382869Y-136933108D01*
X89716203Y-137123584D01*
X90335250Y-137885489D02*
X90382869Y-137790250D01*
X90382869Y-137599774D01*
X90335250Y-137504536D01*
X90240012Y-137456917D01*
X89859060Y-137456917D01*
X89763822Y-137504536D01*
X89716203Y-137599774D01*
X89716203Y-137790250D01*
X89763822Y-137885489D01*
X89859060Y-137933108D01*
X89954298Y-137933108D01*
X90049536Y-137456917D01*
X90382869Y-138361679D02*
X89716203Y-138361679D01*
X89906679Y-138361679D02*
X89811441Y-138409298D01*
X89763822Y-138456917D01*
X89716203Y-138552155D01*
X89716203Y-138647393D01*
X90478108Y-138742631D02*
X90478108Y-139504536D01*
X89478108Y-139695012D02*
X89430489Y-139742631D01*
X89382869Y-139837869D01*
X89382869Y-140075965D01*
X89430489Y-140171203D01*
X89478108Y-140218822D01*
X89573346Y-140266441D01*
X89668584Y-140266441D01*
X89811441Y-140218822D01*
X90382869Y-139647393D01*
X90382869Y-140266441D01*
X90382869Y-140599774D02*
X89716203Y-141123584D01*
X89716203Y-140599774D02*
X90382869Y-141123584D01*
X89382869Y-141980727D02*
X89382869Y-141504536D01*
X89859060Y-141456917D01*
X89811441Y-141504536D01*
X89763822Y-141599774D01*
X89763822Y-141837869D01*
X89811441Y-141933108D01*
X89859060Y-141980727D01*
X89954298Y-142028346D01*
X90192393Y-142028346D01*
X90287631Y-141980727D01*
X90335250Y-141933108D01*
X90382869Y-141837869D01*
X90382869Y-141599774D01*
X90335250Y-141504536D01*
X90287631Y-141456917D01*
X76122869Y-135552155D02*
X76837155Y-135552155D01*
X76980012Y-135504536D01*
X77075250Y-135409298D01*
X77122869Y-135266441D01*
X77122869Y-135171203D01*
X77122869Y-136552155D02*
X77122869Y-135980727D01*
X77122869Y-136266441D02*
X76122869Y-136266441D01*
X76265727Y-136171203D01*
X76360965Y-136075965D01*
X76408584Y-135980727D01*
%TO.C,Q1*%
X90863108Y-54841203D02*
X90815489Y-54888822D01*
X90767869Y-54984060D01*
X90767869Y-55222155D01*
X90815489Y-55317393D01*
X90863108Y-55365012D01*
X90958346Y-55412631D01*
X91053584Y-55412631D01*
X91196441Y-55365012D01*
X91767869Y-54793584D01*
X91767869Y-55412631D01*
X91767869Y-55841203D02*
X90767869Y-55841203D01*
X91767869Y-56412631D01*
X90767869Y-56412631D01*
X90767869Y-56793584D02*
X90767869Y-57412631D01*
X91148822Y-57079298D01*
X91148822Y-57222155D01*
X91196441Y-57317393D01*
X91244060Y-57365012D01*
X91339298Y-57412631D01*
X91577393Y-57412631D01*
X91672631Y-57365012D01*
X91720250Y-57317393D01*
X91767869Y-57222155D01*
X91767869Y-56936441D01*
X91720250Y-56841203D01*
X91672631Y-56793584D01*
X91767869Y-57888822D02*
X91767869Y-58079298D01*
X91720250Y-58174536D01*
X91672631Y-58222155D01*
X91529774Y-58317393D01*
X91339298Y-58365012D01*
X90958346Y-58365012D01*
X90863108Y-58317393D01*
X90815489Y-58269774D01*
X90767869Y-58174536D01*
X90767869Y-57984060D01*
X90815489Y-57888822D01*
X90863108Y-57841203D01*
X90958346Y-57793584D01*
X91196441Y-57793584D01*
X91291679Y-57841203D01*
X91339298Y-57888822D01*
X91386917Y-57984060D01*
X91386917Y-58174536D01*
X91339298Y-58269774D01*
X91291679Y-58317393D01*
X91196441Y-58365012D01*
X90767869Y-58984060D02*
X90767869Y-59079298D01*
X90815489Y-59174536D01*
X90863108Y-59222155D01*
X90958346Y-59269774D01*
X91148822Y-59317393D01*
X91386917Y-59317393D01*
X91577393Y-59269774D01*
X91672631Y-59222155D01*
X91720250Y-59174536D01*
X91767869Y-59079298D01*
X91767869Y-58984060D01*
X91720250Y-58888822D01*
X91672631Y-58841203D01*
X91577393Y-58793584D01*
X91386917Y-58745965D01*
X91148822Y-58745965D01*
X90958346Y-58793584D01*
X90863108Y-58841203D01*
X90815489Y-58888822D01*
X90767869Y-58984060D01*
X91101203Y-60174536D02*
X91767869Y-60174536D01*
X90720250Y-59936441D02*
X91434536Y-59698346D01*
X91434536Y-60317393D01*
X98213108Y-57460250D02*
X98165489Y-57365012D01*
X98070250Y-57269774D01*
X97927393Y-57126917D01*
X97879774Y-57031679D01*
X97879774Y-56936441D01*
X98117869Y-56984060D02*
X98070250Y-56888822D01*
X97975012Y-56793584D01*
X97784536Y-56745965D01*
X97451203Y-56745965D01*
X97260727Y-56793584D01*
X97165489Y-56888822D01*
X97117869Y-56984060D01*
X97117869Y-57174536D01*
X97165489Y-57269774D01*
X97260727Y-57365012D01*
X97451203Y-57412631D01*
X97784536Y-57412631D01*
X97975012Y-57365012D01*
X98070250Y-57269774D01*
X98117869Y-57174536D01*
X98117869Y-56984060D01*
X98117869Y-58365012D02*
X98117869Y-57793584D01*
X98117869Y-58079298D02*
X97117869Y-58079298D01*
X97260727Y-57984060D01*
X97355965Y-57888822D01*
X97403584Y-57793584D01*
%TO.C,Q2*%
X76906858Y-54971203D02*
X76859239Y-55018822D01*
X76811619Y-55114060D01*
X76811619Y-55352155D01*
X76859239Y-55447393D01*
X76906858Y-55495012D01*
X77002096Y-55542631D01*
X77097334Y-55542631D01*
X77240191Y-55495012D01*
X77811619Y-54923584D01*
X77811619Y-55542631D01*
X77811619Y-55971203D02*
X76811619Y-55971203D01*
X77811619Y-56542631D01*
X76811619Y-56542631D01*
X76811619Y-56923584D02*
X76811619Y-57542631D01*
X77192572Y-57209298D01*
X77192572Y-57352155D01*
X77240191Y-57447393D01*
X77287810Y-57495012D01*
X77383048Y-57542631D01*
X77621143Y-57542631D01*
X77716381Y-57495012D01*
X77764000Y-57447393D01*
X77811619Y-57352155D01*
X77811619Y-57066441D01*
X77764000Y-56971203D01*
X77716381Y-56923584D01*
X77811619Y-58018822D02*
X77811619Y-58209298D01*
X77764000Y-58304536D01*
X77716381Y-58352155D01*
X77573524Y-58447393D01*
X77383048Y-58495012D01*
X77002096Y-58495012D01*
X76906858Y-58447393D01*
X76859239Y-58399774D01*
X76811619Y-58304536D01*
X76811619Y-58114060D01*
X76859239Y-58018822D01*
X76906858Y-57971203D01*
X77002096Y-57923584D01*
X77240191Y-57923584D01*
X77335429Y-57971203D01*
X77383048Y-58018822D01*
X77430667Y-58114060D01*
X77430667Y-58304536D01*
X77383048Y-58399774D01*
X77335429Y-58447393D01*
X77240191Y-58495012D01*
X76811619Y-59114060D02*
X76811619Y-59209298D01*
X76859239Y-59304536D01*
X76906858Y-59352155D01*
X77002096Y-59399774D01*
X77192572Y-59447393D01*
X77430667Y-59447393D01*
X77621143Y-59399774D01*
X77716381Y-59352155D01*
X77764000Y-59304536D01*
X77811619Y-59209298D01*
X77811619Y-59114060D01*
X77764000Y-59018822D01*
X77716381Y-58971203D01*
X77621143Y-58923584D01*
X77430667Y-58875965D01*
X77192572Y-58875965D01*
X77002096Y-58923584D01*
X76906858Y-58971203D01*
X76859239Y-59018822D01*
X76811619Y-59114060D01*
X77144953Y-60304536D02*
X77811619Y-60304536D01*
X76764000Y-60066441D02*
X77478286Y-59828346D01*
X77478286Y-60447393D01*
X84256858Y-57590250D02*
X84209239Y-57495012D01*
X84114000Y-57399774D01*
X83971143Y-57256917D01*
X83923524Y-57161679D01*
X83923524Y-57066441D01*
X84161619Y-57114060D02*
X84114000Y-57018822D01*
X84018762Y-56923584D01*
X83828286Y-56875965D01*
X83494953Y-56875965D01*
X83304477Y-56923584D01*
X83209239Y-57018822D01*
X83161619Y-57114060D01*
X83161619Y-57304536D01*
X83209239Y-57399774D01*
X83304477Y-57495012D01*
X83494953Y-57542631D01*
X83828286Y-57542631D01*
X84018762Y-57495012D01*
X84114000Y-57399774D01*
X84161619Y-57304536D01*
X84161619Y-57114060D01*
X83256858Y-57923584D02*
X83209239Y-57971203D01*
X83161619Y-58066441D01*
X83161619Y-58304536D01*
X83209239Y-58399774D01*
X83256858Y-58447393D01*
X83352096Y-58495012D01*
X83447334Y-58495012D01*
X83590191Y-58447393D01*
X84161619Y-57875965D01*
X84161619Y-58495012D01*
%TO.C,R1*%
X68732869Y-103463952D02*
X68732869Y-103273476D01*
X68780489Y-103178238D01*
X68828108Y-103130619D01*
X68970965Y-103035381D01*
X69161441Y-102987762D01*
X69542393Y-102987762D01*
X69637631Y-103035381D01*
X69685250Y-103083000D01*
X69732869Y-103178238D01*
X69732869Y-103368714D01*
X69685250Y-103463952D01*
X69637631Y-103511571D01*
X69542393Y-103559190D01*
X69304298Y-103559190D01*
X69209060Y-103511571D01*
X69161441Y-103463952D01*
X69113822Y-103368714D01*
X69113822Y-103178238D01*
X69161441Y-103083000D01*
X69209060Y-103035381D01*
X69304298Y-102987762D01*
X69732869Y-103987762D02*
X68732869Y-103987762D01*
X69351917Y-104083000D02*
X69732869Y-104368714D01*
X69066203Y-104368714D02*
X69447155Y-103987762D01*
X68828108Y-104749667D02*
X68780489Y-104797286D01*
X68732869Y-104892524D01*
X68732869Y-105130619D01*
X68780489Y-105225857D01*
X68828108Y-105273476D01*
X68923346Y-105321095D01*
X69018584Y-105321095D01*
X69161441Y-105273476D01*
X69732869Y-104702048D01*
X69732869Y-105321095D01*
D14*
X67856679Y-104071095D02*
X67618584Y-103904429D01*
X67856679Y-103785381D02*
X67356679Y-103785381D01*
X67356679Y-103975857D01*
X67380489Y-104023476D01*
X67404298Y-104047286D01*
X67451917Y-104071095D01*
X67523346Y-104071095D01*
X67570965Y-104047286D01*
X67594774Y-104023476D01*
X67618584Y-103975857D01*
X67618584Y-103785381D01*
X67856679Y-104547286D02*
X67856679Y-104261571D01*
X67856679Y-104404429D02*
X67356679Y-104404429D01*
X67428108Y-104356809D01*
X67475727Y-104309190D01*
X67499536Y-104261571D01*
D11*
%TO.C,R2*%
X97025965Y-83791514D02*
X97025965Y-84458180D01*
X97264060Y-83410561D02*
X97502155Y-84124847D01*
X96883108Y-84124847D01*
X96597393Y-83458180D02*
X95930727Y-83458180D01*
X96359298Y-84458180D01*
X95549774Y-84458180D02*
X95549774Y-83458180D01*
X95454536Y-84077228D02*
X95168822Y-84458180D01*
X95168822Y-83791514D02*
X95549774Y-84172466D01*
D14*
X96458822Y-81251990D02*
X96625489Y-81013895D01*
X96744536Y-81251990D02*
X96744536Y-80751990D01*
X96554060Y-80751990D01*
X96506441Y-80775800D01*
X96482631Y-80799609D01*
X96458822Y-80847228D01*
X96458822Y-80918657D01*
X96482631Y-80966276D01*
X96506441Y-80990085D01*
X96554060Y-81013895D01*
X96744536Y-81013895D01*
X96268346Y-80799609D02*
X96244536Y-80775800D01*
X96196917Y-80751990D01*
X96077869Y-80751990D01*
X96030250Y-80775800D01*
X96006441Y-80799609D01*
X95982631Y-80847228D01*
X95982631Y-80894847D01*
X96006441Y-80966276D01*
X96292155Y-81251990D01*
X95982631Y-81251990D01*
D11*
%TO.C,R3*%
X104287869Y-125004060D02*
X104287869Y-124432631D01*
X104287869Y-124718346D02*
X103287869Y-124718346D01*
X103430727Y-124623108D01*
X103525965Y-124527869D01*
X103573584Y-124432631D01*
X103287869Y-125623108D02*
X103287869Y-125718346D01*
X103335489Y-125813584D01*
X103383108Y-125861203D01*
X103478346Y-125908822D01*
X103668822Y-125956441D01*
X103906917Y-125956441D01*
X104097393Y-125908822D01*
X104192631Y-125861203D01*
X104240250Y-125813584D01*
X104287869Y-125718346D01*
X104287869Y-125623108D01*
X104240250Y-125527869D01*
X104192631Y-125480250D01*
X104097393Y-125432631D01*
X103906917Y-125385012D01*
X103668822Y-125385012D01*
X103478346Y-125432631D01*
X103383108Y-125480250D01*
X103335489Y-125527869D01*
X103287869Y-125623108D01*
X103287869Y-126575489D02*
X103287869Y-126670727D01*
X103335489Y-126765965D01*
X103383108Y-126813584D01*
X103478346Y-126861203D01*
X103668822Y-126908822D01*
X103906917Y-126908822D01*
X104097393Y-126861203D01*
X104192631Y-126813584D01*
X104240250Y-126765965D01*
X104287869Y-126670727D01*
X104287869Y-126575489D01*
X104240250Y-126480250D01*
X104192631Y-126432631D01*
X104097393Y-126385012D01*
X103906917Y-126337393D01*
X103668822Y-126337393D01*
X103478346Y-126385012D01*
X103383108Y-126432631D01*
X103335489Y-126480250D01*
X103287869Y-126575489D01*
X104287869Y-127337393D02*
X103287869Y-127337393D01*
X103906917Y-127432631D02*
X104287869Y-127718346D01*
X103621203Y-127718346D02*
X104002155Y-127337393D01*
D14*
X102411679Y-125992155D02*
X102173584Y-125825489D01*
X102411679Y-125706441D02*
X101911679Y-125706441D01*
X101911679Y-125896917D01*
X101935489Y-125944536D01*
X101959298Y-125968346D01*
X102006917Y-125992155D01*
X102078346Y-125992155D01*
X102125965Y-125968346D01*
X102149774Y-125944536D01*
X102173584Y-125896917D01*
X102173584Y-125706441D01*
X101911679Y-126158822D02*
X101911679Y-126468346D01*
X102102155Y-126301679D01*
X102102155Y-126373108D01*
X102125965Y-126420727D01*
X102149774Y-126444536D01*
X102197393Y-126468346D01*
X102316441Y-126468346D01*
X102364060Y-126444536D01*
X102387869Y-126420727D01*
X102411679Y-126373108D01*
X102411679Y-126230250D01*
X102387869Y-126182631D01*
X102364060Y-126158822D01*
D11*
%TO.C,R4*%
X97486917Y-77088180D02*
X98058346Y-77088180D01*
X97772631Y-77088180D02*
X97772631Y-76088180D01*
X97867869Y-76231038D01*
X97963108Y-76326276D01*
X98058346Y-76373895D01*
X96867869Y-76088180D02*
X96772631Y-76088180D01*
X96677393Y-76135800D01*
X96629774Y-76183419D01*
X96582155Y-76278657D01*
X96534536Y-76469133D01*
X96534536Y-76707228D01*
X96582155Y-76897704D01*
X96629774Y-76992942D01*
X96677393Y-77040561D01*
X96772631Y-77088180D01*
X96867869Y-77088180D01*
X96963108Y-77040561D01*
X97010727Y-76992942D01*
X97058346Y-76897704D01*
X97105965Y-76707228D01*
X97105965Y-76469133D01*
X97058346Y-76278657D01*
X97010727Y-76183419D01*
X96963108Y-76135800D01*
X96867869Y-76088180D01*
X95915489Y-76088180D02*
X95820250Y-76088180D01*
X95725012Y-76135800D01*
X95677393Y-76183419D01*
X95629774Y-76278657D01*
X95582155Y-76469133D01*
X95582155Y-76707228D01*
X95629774Y-76897704D01*
X95677393Y-76992942D01*
X95725012Y-77040561D01*
X95820250Y-77088180D01*
X95915489Y-77088180D01*
X96010727Y-77040561D01*
X96058346Y-76992942D01*
X96105965Y-76897704D01*
X96153584Y-76707228D01*
X96153584Y-76469133D01*
X96105965Y-76278657D01*
X96058346Y-76183419D01*
X96010727Y-76135800D01*
X95915489Y-76088180D01*
X95153584Y-77088180D02*
X95153584Y-76088180D01*
X95058346Y-76707228D02*
X94772631Y-77088180D01*
X94772631Y-76421514D02*
X95153584Y-76802466D01*
D14*
X96498822Y-78511990D02*
X96665489Y-78273895D01*
X96784536Y-78511990D02*
X96784536Y-78011990D01*
X96594060Y-78011990D01*
X96546441Y-78035800D01*
X96522631Y-78059609D01*
X96498822Y-78107228D01*
X96498822Y-78178657D01*
X96522631Y-78226276D01*
X96546441Y-78250085D01*
X96594060Y-78273895D01*
X96784536Y-78273895D01*
X96070250Y-78178657D02*
X96070250Y-78511990D01*
X96189298Y-77988180D02*
X96308346Y-78345323D01*
X95998822Y-78345323D01*
D11*
%TO.C,R6*%
X101367869Y-78154371D02*
X101367869Y-77582942D01*
X101367869Y-77868657D02*
X100367869Y-77868657D01*
X100510727Y-77773419D01*
X100605965Y-77678180D01*
X100653584Y-77582942D01*
X100367869Y-78773419D02*
X100367869Y-78868657D01*
X100415489Y-78963895D01*
X100463108Y-79011514D01*
X100558346Y-79059133D01*
X100748822Y-79106752D01*
X100986917Y-79106752D01*
X101177393Y-79059133D01*
X101272631Y-79011514D01*
X101320250Y-78963895D01*
X101367869Y-78868657D01*
X101367869Y-78773419D01*
X101320250Y-78678180D01*
X101272631Y-78630561D01*
X101177393Y-78582942D01*
X100986917Y-78535323D01*
X100748822Y-78535323D01*
X100558346Y-78582942D01*
X100463108Y-78630561D01*
X100415489Y-78678180D01*
X100367869Y-78773419D01*
X100367869Y-79725800D02*
X100367869Y-79821038D01*
X100415489Y-79916276D01*
X100463108Y-79963895D01*
X100558346Y-80011514D01*
X100748822Y-80059133D01*
X100986917Y-80059133D01*
X101177393Y-80011514D01*
X101272631Y-79963895D01*
X101320250Y-79916276D01*
X101367869Y-79821038D01*
X101367869Y-79725800D01*
X101320250Y-79630561D01*
X101272631Y-79582942D01*
X101177393Y-79535323D01*
X100986917Y-79487704D01*
X100748822Y-79487704D01*
X100558346Y-79535323D01*
X100463108Y-79582942D01*
X100415489Y-79630561D01*
X100367869Y-79725800D01*
X101367869Y-80487704D02*
X100367869Y-80487704D01*
X100986917Y-80582942D02*
X101367869Y-80868657D01*
X100701203Y-80868657D02*
X101082155Y-80487704D01*
D14*
X99491679Y-79142466D02*
X99253584Y-78975800D01*
X99491679Y-78856752D02*
X98991679Y-78856752D01*
X98991679Y-79047228D01*
X99015489Y-79094847D01*
X99039298Y-79118657D01*
X99086917Y-79142466D01*
X99158346Y-79142466D01*
X99205965Y-79118657D01*
X99229774Y-79094847D01*
X99253584Y-79047228D01*
X99253584Y-78856752D01*
X98991679Y-79571038D02*
X98991679Y-79475800D01*
X99015489Y-79428180D01*
X99039298Y-79404371D01*
X99110727Y-79356752D01*
X99205965Y-79332942D01*
X99396441Y-79332942D01*
X99444060Y-79356752D01*
X99467869Y-79380561D01*
X99491679Y-79428180D01*
X99491679Y-79523419D01*
X99467869Y-79571038D01*
X99444060Y-79594847D01*
X99396441Y-79618657D01*
X99277393Y-79618657D01*
X99229774Y-79594847D01*
X99205965Y-79571038D01*
X99182155Y-79523419D01*
X99182155Y-79428180D01*
X99205965Y-79380561D01*
X99229774Y-79356752D01*
X99277393Y-79332942D01*
D11*
%TO.C,R7*%
X97673108Y-68912942D02*
X97625489Y-68960561D01*
X97577869Y-69055800D01*
X97577869Y-69293895D01*
X97625489Y-69389133D01*
X97673108Y-69436752D01*
X97768346Y-69484371D01*
X97863584Y-69484371D01*
X98006441Y-69436752D01*
X98577869Y-68865323D01*
X98577869Y-69484371D01*
X97577869Y-70103419D02*
X97577869Y-70198657D01*
X97625489Y-70293895D01*
X97673108Y-70341514D01*
X97768346Y-70389133D01*
X97958822Y-70436752D01*
X98196917Y-70436752D01*
X98387393Y-70389133D01*
X98482631Y-70341514D01*
X98530250Y-70293895D01*
X98577869Y-70198657D01*
X98577869Y-70103419D01*
X98530250Y-70008180D01*
X98482631Y-69960561D01*
X98387393Y-69912942D01*
X98196917Y-69865323D01*
X97958822Y-69865323D01*
X97768346Y-69912942D01*
X97673108Y-69960561D01*
X97625489Y-70008180D01*
X97577869Y-70103419D01*
X97577869Y-71055800D02*
X97577869Y-71151038D01*
X97625489Y-71246276D01*
X97673108Y-71293895D01*
X97768346Y-71341514D01*
X97958822Y-71389133D01*
X98196917Y-71389133D01*
X98387393Y-71341514D01*
X98482631Y-71293895D01*
X98530250Y-71246276D01*
X98577869Y-71151038D01*
X98577869Y-71055800D01*
X98530250Y-70960561D01*
X98482631Y-70912942D01*
X98387393Y-70865323D01*
X98196917Y-70817704D01*
X97958822Y-70817704D01*
X97768346Y-70865323D01*
X97673108Y-70912942D01*
X97625489Y-70960561D01*
X97577869Y-71055800D01*
X98577869Y-71817704D02*
X97577869Y-71817704D01*
X98196917Y-71912942D02*
X98577869Y-72198657D01*
X97911203Y-72198657D02*
X98292155Y-71817704D01*
D14*
X96701679Y-70472466D02*
X96463584Y-70305800D01*
X96701679Y-70186752D02*
X96201679Y-70186752D01*
X96201679Y-70377228D01*
X96225489Y-70424847D01*
X96249298Y-70448657D01*
X96296917Y-70472466D01*
X96368346Y-70472466D01*
X96415965Y-70448657D01*
X96439774Y-70424847D01*
X96463584Y-70377228D01*
X96463584Y-70186752D01*
X96201679Y-70639133D02*
X96201679Y-70972466D01*
X96701679Y-70758180D01*
D11*
%TO.C,R8*%
X97407869Y-73644371D02*
X97407869Y-73072942D01*
X97407869Y-73358657D02*
X96407869Y-73358657D01*
X96550727Y-73263419D01*
X96645965Y-73168180D01*
X96693584Y-73072942D01*
X96407869Y-74263419D02*
X96407869Y-74358657D01*
X96455489Y-74453895D01*
X96503108Y-74501514D01*
X96598346Y-74549133D01*
X96788822Y-74596752D01*
X97026917Y-74596752D01*
X97217393Y-74549133D01*
X97312631Y-74501514D01*
X97360250Y-74453895D01*
X97407869Y-74358657D01*
X97407869Y-74263419D01*
X97360250Y-74168180D01*
X97312631Y-74120561D01*
X97217393Y-74072942D01*
X97026917Y-74025323D01*
X96788822Y-74025323D01*
X96598346Y-74072942D01*
X96503108Y-74120561D01*
X96455489Y-74168180D01*
X96407869Y-74263419D01*
X96407869Y-75215800D02*
X96407869Y-75311038D01*
X96455489Y-75406276D01*
X96503108Y-75453895D01*
X96598346Y-75501514D01*
X96788822Y-75549133D01*
X97026917Y-75549133D01*
X97217393Y-75501514D01*
X97312631Y-75453895D01*
X97360250Y-75406276D01*
X97407869Y-75311038D01*
X97407869Y-75215800D01*
X97360250Y-75120561D01*
X97312631Y-75072942D01*
X97217393Y-75025323D01*
X97026917Y-74977704D01*
X96788822Y-74977704D01*
X96598346Y-75025323D01*
X96503108Y-75072942D01*
X96455489Y-75120561D01*
X96407869Y-75215800D01*
X97407869Y-75977704D02*
X96407869Y-75977704D01*
X97026917Y-76072942D02*
X97407869Y-76358657D01*
X96741203Y-76358657D02*
X97122155Y-75977704D01*
D14*
X98831679Y-74632466D02*
X98593584Y-74465800D01*
X98831679Y-74346752D02*
X98331679Y-74346752D01*
X98331679Y-74537228D01*
X98355489Y-74584847D01*
X98379298Y-74608657D01*
X98426917Y-74632466D01*
X98498346Y-74632466D01*
X98545965Y-74608657D01*
X98569774Y-74584847D01*
X98593584Y-74537228D01*
X98593584Y-74346752D01*
X98545965Y-74918180D02*
X98522155Y-74870561D01*
X98498346Y-74846752D01*
X98450727Y-74822942D01*
X98426917Y-74822942D01*
X98379298Y-74846752D01*
X98355489Y-74870561D01*
X98331679Y-74918180D01*
X98331679Y-75013419D01*
X98355489Y-75061038D01*
X98379298Y-75084847D01*
X98426917Y-75108657D01*
X98450727Y-75108657D01*
X98498346Y-75084847D01*
X98522155Y-75061038D01*
X98545965Y-75013419D01*
X98545965Y-74918180D01*
X98569774Y-74870561D01*
X98593584Y-74846752D01*
X98641203Y-74822942D01*
X98736441Y-74822942D01*
X98784060Y-74846752D01*
X98807869Y-74870561D01*
X98831679Y-74918180D01*
X98831679Y-75013419D01*
X98807869Y-75061038D01*
X98784060Y-75084847D01*
X98736441Y-75108657D01*
X98641203Y-75108657D01*
X98593584Y-75084847D01*
X98569774Y-75061038D01*
X98545965Y-75013419D01*
D11*
%TO.C,R10*%
X79947869Y-78705012D02*
X79947869Y-78514536D01*
X79995489Y-78419298D01*
X80043108Y-78371679D01*
X80185965Y-78276441D01*
X80376441Y-78228822D01*
X80757393Y-78228822D01*
X80852631Y-78276441D01*
X80900250Y-78324060D01*
X80947869Y-78419298D01*
X80947869Y-78609774D01*
X80900250Y-78705012D01*
X80852631Y-78752631D01*
X80757393Y-78800250D01*
X80519298Y-78800250D01*
X80424060Y-78752631D01*
X80376441Y-78705012D01*
X80328822Y-78609774D01*
X80328822Y-78419298D01*
X80376441Y-78324060D01*
X80424060Y-78276441D01*
X80519298Y-78228822D01*
X80947869Y-79228822D02*
X79947869Y-79228822D01*
X80566917Y-79324060D02*
X80947869Y-79609774D01*
X80281203Y-79609774D02*
X80662155Y-79228822D01*
X80043108Y-79990727D02*
X79995489Y-80038346D01*
X79947869Y-80133584D01*
X79947869Y-80371679D01*
X79995489Y-80466917D01*
X80043108Y-80514536D01*
X80138346Y-80562155D01*
X80233584Y-80562155D01*
X80376441Y-80514536D01*
X80947869Y-79943108D01*
X80947869Y-80562155D01*
D14*
X82371679Y-79074060D02*
X82133584Y-78907393D01*
X82371679Y-78788346D02*
X81871679Y-78788346D01*
X81871679Y-78978822D01*
X81895489Y-79026441D01*
X81919298Y-79050250D01*
X81966917Y-79074060D01*
X82038346Y-79074060D01*
X82085965Y-79050250D01*
X82109774Y-79026441D01*
X82133584Y-78978822D01*
X82133584Y-78788346D01*
X82371679Y-79550250D02*
X82371679Y-79264536D01*
X82371679Y-79407393D02*
X81871679Y-79407393D01*
X81943108Y-79359774D01*
X81990727Y-79312155D01*
X82014536Y-79264536D01*
X81871679Y-79859774D02*
X81871679Y-79907393D01*
X81895489Y-79955012D01*
X81919298Y-79978822D01*
X81966917Y-80002631D01*
X82062155Y-80026441D01*
X82181203Y-80026441D01*
X82276441Y-80002631D01*
X82324060Y-79978822D01*
X82347869Y-79955012D01*
X82371679Y-79907393D01*
X82371679Y-79859774D01*
X82347869Y-79812155D01*
X82324060Y-79788346D01*
X82276441Y-79764536D01*
X82181203Y-79740727D01*
X82062155Y-79740727D01*
X81966917Y-79764536D01*
X81919298Y-79788346D01*
X81895489Y-79812155D01*
X81871679Y-79859774D01*
D11*
%TO.C,R11*%
X66087869Y-116475012D02*
X66087869Y-116284536D01*
X66135489Y-116189298D01*
X66183108Y-116141679D01*
X66325965Y-116046441D01*
X66516441Y-115998822D01*
X66897393Y-115998822D01*
X66992631Y-116046441D01*
X67040250Y-116094060D01*
X67087869Y-116189298D01*
X67087869Y-116379774D01*
X67040250Y-116475012D01*
X66992631Y-116522631D01*
X66897393Y-116570250D01*
X66659298Y-116570250D01*
X66564060Y-116522631D01*
X66516441Y-116475012D01*
X66468822Y-116379774D01*
X66468822Y-116189298D01*
X66516441Y-116094060D01*
X66564060Y-116046441D01*
X66659298Y-115998822D01*
X67087869Y-116998822D02*
X66087869Y-116998822D01*
X66706917Y-117094060D02*
X67087869Y-117379774D01*
X66421203Y-117379774D02*
X66802155Y-116998822D01*
X66183108Y-117760727D02*
X66135489Y-117808346D01*
X66087869Y-117903584D01*
X66087869Y-118141679D01*
X66135489Y-118236917D01*
X66183108Y-118284536D01*
X66278346Y-118332155D01*
X66373584Y-118332155D01*
X66516441Y-118284536D01*
X67087869Y-117713108D01*
X67087869Y-118332155D01*
D14*
X68511679Y-116844060D02*
X68273584Y-116677393D01*
X68511679Y-116558346D02*
X68011679Y-116558346D01*
X68011679Y-116748822D01*
X68035489Y-116796441D01*
X68059298Y-116820250D01*
X68106917Y-116844060D01*
X68178346Y-116844060D01*
X68225965Y-116820250D01*
X68249774Y-116796441D01*
X68273584Y-116748822D01*
X68273584Y-116558346D01*
X68511679Y-117320250D02*
X68511679Y-117034536D01*
X68511679Y-117177393D02*
X68011679Y-117177393D01*
X68083108Y-117129774D01*
X68130727Y-117082155D01*
X68154536Y-117034536D01*
X68511679Y-117796441D02*
X68511679Y-117510727D01*
X68511679Y-117653584D02*
X68011679Y-117653584D01*
X68083108Y-117605965D01*
X68130727Y-117558346D01*
X68154536Y-117510727D01*
D11*
%TO.C,R12*%
X58828465Y-58086683D02*
X58828465Y-58753349D01*
X59066560Y-57705730D02*
X59304655Y-58420016D01*
X58685608Y-58420016D01*
X58399893Y-57753349D02*
X57733227Y-57753349D01*
X58161798Y-58753349D01*
X57352274Y-58753349D02*
X57352274Y-57753349D01*
X57257036Y-58372397D02*
X56971322Y-58753349D01*
X56971322Y-58086683D02*
X57352274Y-58467635D01*
D14*
X58459417Y-60177159D02*
X58626084Y-59939064D01*
X58745131Y-60177159D02*
X58745131Y-59677159D01*
X58554655Y-59677159D01*
X58507036Y-59700969D01*
X58483227Y-59724778D01*
X58459417Y-59772397D01*
X58459417Y-59843826D01*
X58483227Y-59891445D01*
X58507036Y-59915254D01*
X58554655Y-59939064D01*
X58745131Y-59939064D01*
X57983227Y-60177159D02*
X58268941Y-60177159D01*
X58126084Y-60177159D02*
X58126084Y-59677159D01*
X58173703Y-59748588D01*
X58221322Y-59796207D01*
X58268941Y-59820016D01*
X57792750Y-59724778D02*
X57768941Y-59700969D01*
X57721322Y-59677159D01*
X57602274Y-59677159D01*
X57554655Y-59700969D01*
X57530846Y-59724778D01*
X57507036Y-59772397D01*
X57507036Y-59820016D01*
X57530846Y-59891445D01*
X57816560Y-60177159D01*
X57507036Y-60177159D01*
D11*
%TO.C,R13*%
X71959417Y-62563349D02*
X72530846Y-62563349D01*
X72245131Y-62563349D02*
X72245131Y-61563349D01*
X72340369Y-61706207D01*
X72435608Y-61801445D01*
X72530846Y-61849064D01*
X71340369Y-61563349D02*
X71245131Y-61563349D01*
X71149893Y-61610969D01*
X71102274Y-61658588D01*
X71054655Y-61753826D01*
X71007036Y-61944302D01*
X71007036Y-62182397D01*
X71054655Y-62372873D01*
X71102274Y-62468111D01*
X71149893Y-62515730D01*
X71245131Y-62563349D01*
X71340369Y-62563349D01*
X71435608Y-62515730D01*
X71483227Y-62468111D01*
X71530846Y-62372873D01*
X71578465Y-62182397D01*
X71578465Y-61944302D01*
X71530846Y-61753826D01*
X71483227Y-61658588D01*
X71435608Y-61610969D01*
X71340369Y-61563349D01*
X70387989Y-61563349D02*
X70292750Y-61563349D01*
X70197512Y-61610969D01*
X70149893Y-61658588D01*
X70102274Y-61753826D01*
X70054655Y-61944302D01*
X70054655Y-62182397D01*
X70102274Y-62372873D01*
X70149893Y-62468111D01*
X70197512Y-62515730D01*
X70292750Y-62563349D01*
X70387989Y-62563349D01*
X70483227Y-62515730D01*
X70530846Y-62468111D01*
X70578465Y-62372873D01*
X70626084Y-62182397D01*
X70626084Y-61944302D01*
X70578465Y-61753826D01*
X70530846Y-61658588D01*
X70483227Y-61610969D01*
X70387989Y-61563349D01*
X69626084Y-62563349D02*
X69626084Y-61563349D01*
X69530846Y-62182397D02*
X69245131Y-62563349D01*
X69245131Y-61896683D02*
X69626084Y-62277635D01*
D14*
X71209417Y-60687159D02*
X71376084Y-60449064D01*
X71495131Y-60687159D02*
X71495131Y-60187159D01*
X71304655Y-60187159D01*
X71257036Y-60210969D01*
X71233227Y-60234778D01*
X71209417Y-60282397D01*
X71209417Y-60353826D01*
X71233227Y-60401445D01*
X71257036Y-60425254D01*
X71304655Y-60449064D01*
X71495131Y-60449064D01*
X70733227Y-60687159D02*
X71018941Y-60687159D01*
X70876084Y-60687159D02*
X70876084Y-60187159D01*
X70923703Y-60258588D01*
X70971322Y-60306207D01*
X71018941Y-60330016D01*
X70566560Y-60187159D02*
X70257036Y-60187159D01*
X70423703Y-60377635D01*
X70352274Y-60377635D01*
X70304655Y-60401445D01*
X70280846Y-60425254D01*
X70257036Y-60472873D01*
X70257036Y-60591921D01*
X70280846Y-60639540D01*
X70304655Y-60663349D01*
X70352274Y-60687159D01*
X70495131Y-60687159D01*
X70542750Y-60663349D01*
X70566560Y-60639540D01*
D11*
%TO.C,R17*%
X67909417Y-62563349D02*
X68480846Y-62563349D01*
X68195131Y-62563349D02*
X68195131Y-61563349D01*
X68290369Y-61706207D01*
X68385608Y-61801445D01*
X68480846Y-61849064D01*
X67290369Y-61563349D02*
X67195131Y-61563349D01*
X67099893Y-61610969D01*
X67052274Y-61658588D01*
X67004655Y-61753826D01*
X66957036Y-61944302D01*
X66957036Y-62182397D01*
X67004655Y-62372873D01*
X67052274Y-62468111D01*
X67099893Y-62515730D01*
X67195131Y-62563349D01*
X67290369Y-62563349D01*
X67385608Y-62515730D01*
X67433227Y-62468111D01*
X67480846Y-62372873D01*
X67528465Y-62182397D01*
X67528465Y-61944302D01*
X67480846Y-61753826D01*
X67433227Y-61658588D01*
X67385608Y-61610969D01*
X67290369Y-61563349D01*
X66337989Y-61563349D02*
X66242750Y-61563349D01*
X66147512Y-61610969D01*
X66099893Y-61658588D01*
X66052274Y-61753826D01*
X66004655Y-61944302D01*
X66004655Y-62182397D01*
X66052274Y-62372873D01*
X66099893Y-62468111D01*
X66147512Y-62515730D01*
X66242750Y-62563349D01*
X66337989Y-62563349D01*
X66433227Y-62515730D01*
X66480846Y-62468111D01*
X66528465Y-62372873D01*
X66576084Y-62182397D01*
X66576084Y-61944302D01*
X66528465Y-61753826D01*
X66480846Y-61658588D01*
X66433227Y-61610969D01*
X66337989Y-61563349D01*
X65576084Y-62563349D02*
X65576084Y-61563349D01*
X65480846Y-62182397D02*
X65195131Y-62563349D01*
X65195131Y-61896683D02*
X65576084Y-62277635D01*
D14*
X67159417Y-60687159D02*
X67326084Y-60449064D01*
X67445131Y-60687159D02*
X67445131Y-60187159D01*
X67254655Y-60187159D01*
X67207036Y-60210969D01*
X67183227Y-60234778D01*
X67159417Y-60282397D01*
X67159417Y-60353826D01*
X67183227Y-60401445D01*
X67207036Y-60425254D01*
X67254655Y-60449064D01*
X67445131Y-60449064D01*
X66683227Y-60687159D02*
X66968941Y-60687159D01*
X66826084Y-60687159D02*
X66826084Y-60187159D01*
X66873703Y-60258588D01*
X66921322Y-60306207D01*
X66968941Y-60330016D01*
X66516560Y-60187159D02*
X66183227Y-60187159D01*
X66397512Y-60687159D01*
D11*
%TO.C,R18*%
X70116917Y-60487869D02*
X70688346Y-60487869D01*
X70402631Y-60487869D02*
X70402631Y-59487869D01*
X70497869Y-59630727D01*
X70593108Y-59725965D01*
X70688346Y-59773584D01*
X69497869Y-59487869D02*
X69402631Y-59487869D01*
X69307393Y-59535489D01*
X69259774Y-59583108D01*
X69212155Y-59678346D01*
X69164536Y-59868822D01*
X69164536Y-60106917D01*
X69212155Y-60297393D01*
X69259774Y-60392631D01*
X69307393Y-60440250D01*
X69402631Y-60487869D01*
X69497869Y-60487869D01*
X69593108Y-60440250D01*
X69640727Y-60392631D01*
X69688346Y-60297393D01*
X69735965Y-60106917D01*
X69735965Y-59868822D01*
X69688346Y-59678346D01*
X69640727Y-59583108D01*
X69593108Y-59535489D01*
X69497869Y-59487869D01*
X68545489Y-59487869D02*
X68450250Y-59487869D01*
X68355012Y-59535489D01*
X68307393Y-59583108D01*
X68259774Y-59678346D01*
X68212155Y-59868822D01*
X68212155Y-60106917D01*
X68259774Y-60297393D01*
X68307393Y-60392631D01*
X68355012Y-60440250D01*
X68450250Y-60487869D01*
X68545489Y-60487869D01*
X68640727Y-60440250D01*
X68688346Y-60392631D01*
X68735965Y-60297393D01*
X68783584Y-60106917D01*
X68783584Y-59868822D01*
X68735965Y-59678346D01*
X68688346Y-59583108D01*
X68640727Y-59535489D01*
X68545489Y-59487869D01*
X67783584Y-60487869D02*
X67783584Y-59487869D01*
X67688346Y-60106917D02*
X67402631Y-60487869D01*
X67402631Y-59821203D02*
X67783584Y-60202155D01*
D14*
X69366917Y-58611679D02*
X69533584Y-58373584D01*
X69652631Y-58611679D02*
X69652631Y-58111679D01*
X69462155Y-58111679D01*
X69414536Y-58135489D01*
X69390727Y-58159298D01*
X69366917Y-58206917D01*
X69366917Y-58278346D01*
X69390727Y-58325965D01*
X69414536Y-58349774D01*
X69462155Y-58373584D01*
X69652631Y-58373584D01*
X68890727Y-58611679D02*
X69176441Y-58611679D01*
X69033584Y-58611679D02*
X69033584Y-58111679D01*
X69081203Y-58183108D01*
X69128822Y-58230727D01*
X69176441Y-58254536D01*
X68605012Y-58325965D02*
X68652631Y-58302155D01*
X68676441Y-58278346D01*
X68700250Y-58230727D01*
X68700250Y-58206917D01*
X68676441Y-58159298D01*
X68652631Y-58135489D01*
X68605012Y-58111679D01*
X68509774Y-58111679D01*
X68462155Y-58135489D01*
X68438346Y-58159298D01*
X68414536Y-58206917D01*
X68414536Y-58230727D01*
X68438346Y-58278346D01*
X68462155Y-58302155D01*
X68509774Y-58325965D01*
X68605012Y-58325965D01*
X68652631Y-58349774D01*
X68676441Y-58373584D01*
X68700250Y-58421203D01*
X68700250Y-58516441D01*
X68676441Y-58564060D01*
X68652631Y-58587869D01*
X68605012Y-58611679D01*
X68509774Y-58611679D01*
X68462155Y-58587869D01*
X68438346Y-58564060D01*
X68414536Y-58516441D01*
X68414536Y-58421203D01*
X68438346Y-58373584D01*
X68462155Y-58349774D01*
X68509774Y-58325965D01*
D11*
%TO.C,R22*%
X55157869Y-95284060D02*
X55157869Y-94712631D01*
X55157869Y-94998346D02*
X54157869Y-94998346D01*
X54300727Y-94903108D01*
X54395965Y-94807869D01*
X54443584Y-94712631D01*
X54157869Y-95903108D02*
X54157869Y-95998346D01*
X54205489Y-96093584D01*
X54253108Y-96141203D01*
X54348346Y-96188822D01*
X54538822Y-96236441D01*
X54776917Y-96236441D01*
X54967393Y-96188822D01*
X55062631Y-96141203D01*
X55110250Y-96093584D01*
X55157869Y-95998346D01*
X55157869Y-95903108D01*
X55110250Y-95807869D01*
X55062631Y-95760250D01*
X54967393Y-95712631D01*
X54776917Y-95665012D01*
X54538822Y-95665012D01*
X54348346Y-95712631D01*
X54253108Y-95760250D01*
X54205489Y-95807869D01*
X54157869Y-95903108D01*
X54157869Y-96855489D02*
X54157869Y-96950727D01*
X54205489Y-97045965D01*
X54253108Y-97093584D01*
X54348346Y-97141203D01*
X54538822Y-97188822D01*
X54776917Y-97188822D01*
X54967393Y-97141203D01*
X55062631Y-97093584D01*
X55110250Y-97045965D01*
X55157869Y-96950727D01*
X55157869Y-96855489D01*
X55110250Y-96760250D01*
X55062631Y-96712631D01*
X54967393Y-96665012D01*
X54776917Y-96617393D01*
X54538822Y-96617393D01*
X54348346Y-96665012D01*
X54253108Y-96712631D01*
X54205489Y-96760250D01*
X54157869Y-96855489D01*
X55157869Y-97617393D02*
X54157869Y-97617393D01*
X54776917Y-97712631D02*
X55157869Y-97998346D01*
X54491203Y-97998346D02*
X54872155Y-97617393D01*
D14*
X56581679Y-96034060D02*
X56343584Y-95867393D01*
X56581679Y-95748346D02*
X56081679Y-95748346D01*
X56081679Y-95938822D01*
X56105489Y-95986441D01*
X56129298Y-96010250D01*
X56176917Y-96034060D01*
X56248346Y-96034060D01*
X56295965Y-96010250D01*
X56319774Y-95986441D01*
X56343584Y-95938822D01*
X56343584Y-95748346D01*
X56129298Y-96224536D02*
X56105489Y-96248346D01*
X56081679Y-96295965D01*
X56081679Y-96415012D01*
X56105489Y-96462631D01*
X56129298Y-96486441D01*
X56176917Y-96510250D01*
X56224536Y-96510250D01*
X56295965Y-96486441D01*
X56581679Y-96200727D01*
X56581679Y-96510250D01*
X56129298Y-96700727D02*
X56105489Y-96724536D01*
X56081679Y-96772155D01*
X56081679Y-96891203D01*
X56105489Y-96938822D01*
X56129298Y-96962631D01*
X56176917Y-96986441D01*
X56224536Y-96986441D01*
X56295965Y-96962631D01*
X56581679Y-96676917D01*
X56581679Y-96986441D01*
D11*
%TO.C,R23*%
X56332869Y-102143000D02*
X56332869Y-101571571D01*
X56332869Y-101857286D02*
X55332869Y-101857286D01*
X55475727Y-101762048D01*
X55570965Y-101666809D01*
X55618584Y-101571571D01*
X55332869Y-102762048D02*
X55332869Y-102857286D01*
X55380489Y-102952524D01*
X55428108Y-103000143D01*
X55523346Y-103047762D01*
X55713822Y-103095381D01*
X55951917Y-103095381D01*
X56142393Y-103047762D01*
X56237631Y-103000143D01*
X56285250Y-102952524D01*
X56332869Y-102857286D01*
X56332869Y-102762048D01*
X56285250Y-102666809D01*
X56237631Y-102619190D01*
X56142393Y-102571571D01*
X55951917Y-102523952D01*
X55713822Y-102523952D01*
X55523346Y-102571571D01*
X55428108Y-102619190D01*
X55380489Y-102666809D01*
X55332869Y-102762048D01*
X55332869Y-103714429D02*
X55332869Y-103809667D01*
X55380489Y-103904905D01*
X55428108Y-103952524D01*
X55523346Y-104000143D01*
X55713822Y-104047762D01*
X55951917Y-104047762D01*
X56142393Y-104000143D01*
X56237631Y-103952524D01*
X56285250Y-103904905D01*
X56332869Y-103809667D01*
X56332869Y-103714429D01*
X56285250Y-103619190D01*
X56237631Y-103571571D01*
X56142393Y-103523952D01*
X55951917Y-103476333D01*
X55713822Y-103476333D01*
X55523346Y-103523952D01*
X55428108Y-103571571D01*
X55380489Y-103619190D01*
X55332869Y-103714429D01*
X56332869Y-104476333D02*
X55332869Y-104476333D01*
X55951917Y-104571571D02*
X56332869Y-104857286D01*
X55666203Y-104857286D02*
X56047155Y-104476333D01*
D14*
X54456679Y-102893000D02*
X54218584Y-102726333D01*
X54456679Y-102607286D02*
X53956679Y-102607286D01*
X53956679Y-102797762D01*
X53980489Y-102845381D01*
X54004298Y-102869190D01*
X54051917Y-102893000D01*
X54123346Y-102893000D01*
X54170965Y-102869190D01*
X54194774Y-102845381D01*
X54218584Y-102797762D01*
X54218584Y-102607286D01*
X54004298Y-103083476D02*
X53980489Y-103107286D01*
X53956679Y-103154905D01*
X53956679Y-103273952D01*
X53980489Y-103321571D01*
X54004298Y-103345381D01*
X54051917Y-103369190D01*
X54099536Y-103369190D01*
X54170965Y-103345381D01*
X54456679Y-103059667D01*
X54456679Y-103369190D01*
X53956679Y-103535857D02*
X53956679Y-103845381D01*
X54147155Y-103678714D01*
X54147155Y-103750143D01*
X54170965Y-103797762D01*
X54194774Y-103821571D01*
X54242393Y-103845381D01*
X54361441Y-103845381D01*
X54409060Y-103821571D01*
X54432869Y-103797762D01*
X54456679Y-103750143D01*
X54456679Y-103607286D01*
X54432869Y-103559667D01*
X54409060Y-103535857D01*
D11*
%TO.C,R24*%
X83721203Y-65855012D02*
X84387869Y-65855012D01*
X83340250Y-65616917D02*
X84054536Y-65378822D01*
X84054536Y-65997869D01*
X83387869Y-66283584D02*
X83387869Y-66950250D01*
X84387869Y-66521679D01*
X84387869Y-67331203D02*
X83387869Y-67331203D01*
X84006917Y-67426441D02*
X84387869Y-67712155D01*
X83721203Y-67712155D02*
X84102155Y-67331203D01*
D14*
X82511679Y-66224060D02*
X82273584Y-66057393D01*
X82511679Y-65938346D02*
X82011679Y-65938346D01*
X82011679Y-66128822D01*
X82035489Y-66176441D01*
X82059298Y-66200250D01*
X82106917Y-66224060D01*
X82178346Y-66224060D01*
X82225965Y-66200250D01*
X82249774Y-66176441D01*
X82273584Y-66128822D01*
X82273584Y-65938346D01*
X82059298Y-66414536D02*
X82035489Y-66438346D01*
X82011679Y-66485965D01*
X82011679Y-66605012D01*
X82035489Y-66652631D01*
X82059298Y-66676441D01*
X82106917Y-66700250D01*
X82154536Y-66700250D01*
X82225965Y-66676441D01*
X82511679Y-66390727D01*
X82511679Y-66700250D01*
X82178346Y-67128822D02*
X82511679Y-67128822D01*
X81987869Y-67009774D02*
X82345012Y-66890727D01*
X82345012Y-67200250D01*
D11*
%TO.C,R26*%
X61487869Y-120804060D02*
X61487869Y-120232631D01*
X61487869Y-120518346D02*
X60487869Y-120518346D01*
X60630727Y-120423108D01*
X60725965Y-120327869D01*
X60773584Y-120232631D01*
X60487869Y-121423108D02*
X60487869Y-121518346D01*
X60535489Y-121613584D01*
X60583108Y-121661203D01*
X60678346Y-121708822D01*
X60868822Y-121756441D01*
X61106917Y-121756441D01*
X61297393Y-121708822D01*
X61392631Y-121661203D01*
X61440250Y-121613584D01*
X61487869Y-121518346D01*
X61487869Y-121423108D01*
X61440250Y-121327869D01*
X61392631Y-121280250D01*
X61297393Y-121232631D01*
X61106917Y-121185012D01*
X60868822Y-121185012D01*
X60678346Y-121232631D01*
X60583108Y-121280250D01*
X60535489Y-121327869D01*
X60487869Y-121423108D01*
X60487869Y-122375489D02*
X60487869Y-122470727D01*
X60535489Y-122565965D01*
X60583108Y-122613584D01*
X60678346Y-122661203D01*
X60868822Y-122708822D01*
X61106917Y-122708822D01*
X61297393Y-122661203D01*
X61392631Y-122613584D01*
X61440250Y-122565965D01*
X61487869Y-122470727D01*
X61487869Y-122375489D01*
X61440250Y-122280250D01*
X61392631Y-122232631D01*
X61297393Y-122185012D01*
X61106917Y-122137393D01*
X60868822Y-122137393D01*
X60678346Y-122185012D01*
X60583108Y-122232631D01*
X60535489Y-122280250D01*
X60487869Y-122375489D01*
X61487869Y-123137393D02*
X60487869Y-123137393D01*
X61106917Y-123232631D02*
X61487869Y-123518346D01*
X60821203Y-123518346D02*
X61202155Y-123137393D01*
D14*
X59611679Y-121554060D02*
X59373584Y-121387393D01*
X59611679Y-121268346D02*
X59111679Y-121268346D01*
X59111679Y-121458822D01*
X59135489Y-121506441D01*
X59159298Y-121530250D01*
X59206917Y-121554060D01*
X59278346Y-121554060D01*
X59325965Y-121530250D01*
X59349774Y-121506441D01*
X59373584Y-121458822D01*
X59373584Y-121268346D01*
X59159298Y-121744536D02*
X59135489Y-121768346D01*
X59111679Y-121815965D01*
X59111679Y-121935012D01*
X59135489Y-121982631D01*
X59159298Y-122006441D01*
X59206917Y-122030250D01*
X59254536Y-122030250D01*
X59325965Y-122006441D01*
X59611679Y-121720727D01*
X59611679Y-122030250D01*
X59111679Y-122458822D02*
X59111679Y-122363584D01*
X59135489Y-122315965D01*
X59159298Y-122292155D01*
X59230727Y-122244536D01*
X59325965Y-122220727D01*
X59516441Y-122220727D01*
X59564060Y-122244536D01*
X59587869Y-122268346D01*
X59611679Y-122315965D01*
X59611679Y-122411203D01*
X59587869Y-122458822D01*
X59564060Y-122482631D01*
X59516441Y-122506441D01*
X59397393Y-122506441D01*
X59349774Y-122482631D01*
X59325965Y-122458822D01*
X59302155Y-122411203D01*
X59302155Y-122315965D01*
X59325965Y-122268346D01*
X59349774Y-122244536D01*
X59397393Y-122220727D01*
D11*
%TO.C,R27*%
X74326917Y-101817869D02*
X74898346Y-101817869D01*
X74612631Y-101817869D02*
X74612631Y-100817869D01*
X74707869Y-100960727D01*
X74803108Y-101055965D01*
X74898346Y-101103584D01*
X73707869Y-100817869D02*
X73612631Y-100817869D01*
X73517393Y-100865489D01*
X73469774Y-100913108D01*
X73422155Y-101008346D01*
X73374536Y-101198822D01*
X73374536Y-101436917D01*
X73422155Y-101627393D01*
X73469774Y-101722631D01*
X73517393Y-101770250D01*
X73612631Y-101817869D01*
X73707869Y-101817869D01*
X73803108Y-101770250D01*
X73850727Y-101722631D01*
X73898346Y-101627393D01*
X73945965Y-101436917D01*
X73945965Y-101198822D01*
X73898346Y-101008346D01*
X73850727Y-100913108D01*
X73803108Y-100865489D01*
X73707869Y-100817869D01*
X72755489Y-100817869D02*
X72660250Y-100817869D01*
X72565012Y-100865489D01*
X72517393Y-100913108D01*
X72469774Y-101008346D01*
X72422155Y-101198822D01*
X72422155Y-101436917D01*
X72469774Y-101627393D01*
X72517393Y-101722631D01*
X72565012Y-101770250D01*
X72660250Y-101817869D01*
X72755489Y-101817869D01*
X72850727Y-101770250D01*
X72898346Y-101722631D01*
X72945965Y-101627393D01*
X72993584Y-101436917D01*
X72993584Y-101198822D01*
X72945965Y-101008346D01*
X72898346Y-100913108D01*
X72850727Y-100865489D01*
X72755489Y-100817869D01*
X71993584Y-101817869D02*
X71993584Y-100817869D01*
X71898346Y-101436917D02*
X71612631Y-101817869D01*
X71612631Y-101151203D02*
X71993584Y-101532155D01*
D14*
X73576917Y-99941679D02*
X73743584Y-99703584D01*
X73862631Y-99941679D02*
X73862631Y-99441679D01*
X73672155Y-99441679D01*
X73624536Y-99465489D01*
X73600727Y-99489298D01*
X73576917Y-99536917D01*
X73576917Y-99608346D01*
X73600727Y-99655965D01*
X73624536Y-99679774D01*
X73672155Y-99703584D01*
X73862631Y-99703584D01*
X73386441Y-99489298D02*
X73362631Y-99465489D01*
X73315012Y-99441679D01*
X73195965Y-99441679D01*
X73148346Y-99465489D01*
X73124536Y-99489298D01*
X73100727Y-99536917D01*
X73100727Y-99584536D01*
X73124536Y-99655965D01*
X73410250Y-99941679D01*
X73100727Y-99941679D01*
X72934060Y-99441679D02*
X72600727Y-99441679D01*
X72815012Y-99941679D01*
D11*
%TO.C,R28*%
X50287869Y-103166441D02*
X50287869Y-102595012D01*
X50287869Y-102880727D02*
X49287869Y-102880727D01*
X49430727Y-102785489D01*
X49525965Y-102690250D01*
X49573584Y-102595012D01*
X50287869Y-103595012D02*
X49287869Y-103595012D01*
X49906917Y-103690250D02*
X50287869Y-103975965D01*
X49621203Y-103975965D02*
X50002155Y-103595012D01*
D14*
X51711679Y-102964060D02*
X51473584Y-102797393D01*
X51711679Y-102678346D02*
X51211679Y-102678346D01*
X51211679Y-102868822D01*
X51235489Y-102916441D01*
X51259298Y-102940250D01*
X51306917Y-102964060D01*
X51378346Y-102964060D01*
X51425965Y-102940250D01*
X51449774Y-102916441D01*
X51473584Y-102868822D01*
X51473584Y-102678346D01*
X51259298Y-103154536D02*
X51235489Y-103178346D01*
X51211679Y-103225965D01*
X51211679Y-103345012D01*
X51235489Y-103392631D01*
X51259298Y-103416441D01*
X51306917Y-103440250D01*
X51354536Y-103440250D01*
X51425965Y-103416441D01*
X51711679Y-103130727D01*
X51711679Y-103440250D01*
X51425965Y-103725965D02*
X51402155Y-103678346D01*
X51378346Y-103654536D01*
X51330727Y-103630727D01*
X51306917Y-103630727D01*
X51259298Y-103654536D01*
X51235489Y-103678346D01*
X51211679Y-103725965D01*
X51211679Y-103821203D01*
X51235489Y-103868822D01*
X51259298Y-103892631D01*
X51306917Y-103916441D01*
X51330727Y-103916441D01*
X51378346Y-103892631D01*
X51402155Y-103868822D01*
X51425965Y-103821203D01*
X51425965Y-103725965D01*
X51449774Y-103678346D01*
X51473584Y-103654536D01*
X51521203Y-103630727D01*
X51616441Y-103630727D01*
X51664060Y-103654536D01*
X51687869Y-103678346D01*
X51711679Y-103725965D01*
X51711679Y-103821203D01*
X51687869Y-103868822D01*
X51664060Y-103892631D01*
X51616441Y-103916441D01*
X51521203Y-103916441D01*
X51473584Y-103892631D01*
X51449774Y-103868822D01*
X51425965Y-103821203D01*
D11*
%TO.C,R29*%
X96825764Y-105193618D02*
X96825764Y-105812665D01*
X97206717Y-105479332D01*
X97206717Y-105622189D01*
X97254336Y-105717427D01*
X97301955Y-105765046D01*
X97397193Y-105812665D01*
X97635288Y-105812665D01*
X97730526Y-105765046D01*
X97778145Y-105717427D01*
X97825764Y-105622189D01*
X97825764Y-105336475D01*
X97778145Y-105241237D01*
X97730526Y-105193618D01*
X96825764Y-106431713D02*
X96825764Y-106526951D01*
X96873384Y-106622189D01*
X96921003Y-106669808D01*
X97016241Y-106717427D01*
X97206717Y-106765046D01*
X97444812Y-106765046D01*
X97635288Y-106717427D01*
X97730526Y-106669808D01*
X97778145Y-106622189D01*
X97825764Y-106526951D01*
X97825764Y-106431713D01*
X97778145Y-106336475D01*
X97730526Y-106288856D01*
X97635288Y-106241237D01*
X97444812Y-106193618D01*
X97206717Y-106193618D01*
X97016241Y-106241237D01*
X96921003Y-106288856D01*
X96873384Y-106336475D01*
X96825764Y-106431713D01*
X97825764Y-107193618D02*
X96825764Y-107193618D01*
X97444812Y-107288856D02*
X97825764Y-107574570D01*
X97159098Y-107574570D02*
X97540050Y-107193618D01*
D14*
X95949574Y-106086475D02*
X95711479Y-105919808D01*
X95949574Y-105800761D02*
X95449574Y-105800761D01*
X95449574Y-105991237D01*
X95473384Y-106038856D01*
X95497193Y-106062665D01*
X95544812Y-106086475D01*
X95616241Y-106086475D01*
X95663860Y-106062665D01*
X95687669Y-106038856D01*
X95711479Y-105991237D01*
X95711479Y-105800761D01*
X95497193Y-106276951D02*
X95473384Y-106300761D01*
X95449574Y-106348380D01*
X95449574Y-106467427D01*
X95473384Y-106515046D01*
X95497193Y-106538856D01*
X95544812Y-106562665D01*
X95592431Y-106562665D01*
X95663860Y-106538856D01*
X95949574Y-106253142D01*
X95949574Y-106562665D01*
X95949574Y-106800761D02*
X95949574Y-106895999D01*
X95925764Y-106943618D01*
X95901955Y-106967427D01*
X95830526Y-107015046D01*
X95735288Y-107038856D01*
X95544812Y-107038856D01*
X95497193Y-107015046D01*
X95473384Y-106991237D01*
X95449574Y-106943618D01*
X95449574Y-106848380D01*
X95473384Y-106800761D01*
X95497193Y-106776951D01*
X95544812Y-106753142D01*
X95663860Y-106753142D01*
X95711479Y-106776951D01*
X95735288Y-106800761D01*
X95759098Y-106848380D01*
X95759098Y-106943618D01*
X95735288Y-106991237D01*
X95711479Y-107015046D01*
X95663860Y-107038856D01*
D11*
%TO.C,R30*%
X70496917Y-98547869D02*
X71068346Y-98547869D01*
X70782631Y-98547869D02*
X70782631Y-97547869D01*
X70877869Y-97690727D01*
X70973108Y-97785965D01*
X71068346Y-97833584D01*
X69877869Y-97547869D02*
X69782631Y-97547869D01*
X69687393Y-97595489D01*
X69639774Y-97643108D01*
X69592155Y-97738346D01*
X69544536Y-97928822D01*
X69544536Y-98166917D01*
X69592155Y-98357393D01*
X69639774Y-98452631D01*
X69687393Y-98500250D01*
X69782631Y-98547869D01*
X69877869Y-98547869D01*
X69973108Y-98500250D01*
X70020727Y-98452631D01*
X70068346Y-98357393D01*
X70115965Y-98166917D01*
X70115965Y-97928822D01*
X70068346Y-97738346D01*
X70020727Y-97643108D01*
X69973108Y-97595489D01*
X69877869Y-97547869D01*
X68925489Y-97547869D02*
X68830250Y-97547869D01*
X68735012Y-97595489D01*
X68687393Y-97643108D01*
X68639774Y-97738346D01*
X68592155Y-97928822D01*
X68592155Y-98166917D01*
X68639774Y-98357393D01*
X68687393Y-98452631D01*
X68735012Y-98500250D01*
X68830250Y-98547869D01*
X68925489Y-98547869D01*
X69020727Y-98500250D01*
X69068346Y-98452631D01*
X69115965Y-98357393D01*
X69163584Y-98166917D01*
X69163584Y-97928822D01*
X69115965Y-97738346D01*
X69068346Y-97643108D01*
X69020727Y-97595489D01*
X68925489Y-97547869D01*
X68163584Y-98547869D02*
X68163584Y-97547869D01*
X68068346Y-98166917D02*
X67782631Y-98547869D01*
X67782631Y-97881203D02*
X68163584Y-98262155D01*
D14*
X69746917Y-99971679D02*
X69913584Y-99733584D01*
X70032631Y-99971679D02*
X70032631Y-99471679D01*
X69842155Y-99471679D01*
X69794536Y-99495489D01*
X69770727Y-99519298D01*
X69746917Y-99566917D01*
X69746917Y-99638346D01*
X69770727Y-99685965D01*
X69794536Y-99709774D01*
X69842155Y-99733584D01*
X70032631Y-99733584D01*
X69580250Y-99471679D02*
X69270727Y-99471679D01*
X69437393Y-99662155D01*
X69365965Y-99662155D01*
X69318346Y-99685965D01*
X69294536Y-99709774D01*
X69270727Y-99757393D01*
X69270727Y-99876441D01*
X69294536Y-99924060D01*
X69318346Y-99947869D01*
X69365965Y-99971679D01*
X69508822Y-99971679D01*
X69556441Y-99947869D01*
X69580250Y-99924060D01*
X68961203Y-99471679D02*
X68913584Y-99471679D01*
X68865965Y-99495489D01*
X68842155Y-99519298D01*
X68818346Y-99566917D01*
X68794536Y-99662155D01*
X68794536Y-99781203D01*
X68818346Y-99876441D01*
X68842155Y-99924060D01*
X68865965Y-99947869D01*
X68913584Y-99971679D01*
X68961203Y-99971679D01*
X69008822Y-99947869D01*
X69032631Y-99924060D01*
X69056441Y-99876441D01*
X69080250Y-99781203D01*
X69080250Y-99662155D01*
X69056441Y-99566917D01*
X69032631Y-99519298D01*
X69008822Y-99495489D01*
X68961203Y-99471679D01*
D11*
%TO.C,R31*%
X91336917Y-59507869D02*
X91908346Y-59507869D01*
X91622631Y-59507869D02*
X91622631Y-58507869D01*
X91717869Y-58650727D01*
X91813108Y-58745965D01*
X91908346Y-58793584D01*
X90717869Y-58507869D02*
X90622631Y-58507869D01*
X90527393Y-58555489D01*
X90479774Y-58603108D01*
X90432155Y-58698346D01*
X90384536Y-58888822D01*
X90384536Y-59126917D01*
X90432155Y-59317393D01*
X90479774Y-59412631D01*
X90527393Y-59460250D01*
X90622631Y-59507869D01*
X90717869Y-59507869D01*
X90813108Y-59460250D01*
X90860727Y-59412631D01*
X90908346Y-59317393D01*
X90955965Y-59126917D01*
X90955965Y-58888822D01*
X90908346Y-58698346D01*
X90860727Y-58603108D01*
X90813108Y-58555489D01*
X90717869Y-58507869D01*
X89765489Y-58507869D02*
X89670250Y-58507869D01*
X89575012Y-58555489D01*
X89527393Y-58603108D01*
X89479774Y-58698346D01*
X89432155Y-58888822D01*
X89432155Y-59126917D01*
X89479774Y-59317393D01*
X89527393Y-59412631D01*
X89575012Y-59460250D01*
X89670250Y-59507869D01*
X89765489Y-59507869D01*
X89860727Y-59460250D01*
X89908346Y-59412631D01*
X89955965Y-59317393D01*
X90003584Y-59126917D01*
X90003584Y-58888822D01*
X89955965Y-58698346D01*
X89908346Y-58603108D01*
X89860727Y-58555489D01*
X89765489Y-58507869D01*
X89003584Y-59507869D02*
X89003584Y-58507869D01*
X88908346Y-59126917D02*
X88622631Y-59507869D01*
X88622631Y-58841203D02*
X89003584Y-59222155D01*
D14*
X90586917Y-57631679D02*
X90753584Y-57393584D01*
X90872631Y-57631679D02*
X90872631Y-57131679D01*
X90682155Y-57131679D01*
X90634536Y-57155489D01*
X90610727Y-57179298D01*
X90586917Y-57226917D01*
X90586917Y-57298346D01*
X90610727Y-57345965D01*
X90634536Y-57369774D01*
X90682155Y-57393584D01*
X90872631Y-57393584D01*
X90420250Y-57131679D02*
X90110727Y-57131679D01*
X90277393Y-57322155D01*
X90205965Y-57322155D01*
X90158346Y-57345965D01*
X90134536Y-57369774D01*
X90110727Y-57417393D01*
X90110727Y-57536441D01*
X90134536Y-57584060D01*
X90158346Y-57607869D01*
X90205965Y-57631679D01*
X90348822Y-57631679D01*
X90396441Y-57607869D01*
X90420250Y-57584060D01*
X89634536Y-57631679D02*
X89920250Y-57631679D01*
X89777393Y-57631679D02*
X89777393Y-57131679D01*
X89825012Y-57203108D01*
X89872631Y-57250727D01*
X89920250Y-57274536D01*
D11*
%TO.C,R33*%
X55283346Y-116002048D02*
X55235727Y-115954429D01*
X55140489Y-115906809D01*
X54902393Y-115906809D01*
X54807155Y-115954429D01*
X54759536Y-116002048D01*
X54711917Y-116097286D01*
X54711917Y-116192524D01*
X54759536Y-116335381D01*
X55330965Y-116906809D01*
X54711917Y-116906809D01*
X54092869Y-115906809D02*
X53997631Y-115906809D01*
X53902393Y-115954429D01*
X53854774Y-116002048D01*
X53807155Y-116097286D01*
X53759536Y-116287762D01*
X53759536Y-116525857D01*
X53807155Y-116716333D01*
X53854774Y-116811571D01*
X53902393Y-116859190D01*
X53997631Y-116906809D01*
X54092869Y-116906809D01*
X54188108Y-116859190D01*
X54235727Y-116811571D01*
X54283346Y-116716333D01*
X54330965Y-116525857D01*
X54330965Y-116287762D01*
X54283346Y-116097286D01*
X54235727Y-116002048D01*
X54188108Y-115954429D01*
X54092869Y-115906809D01*
X53140489Y-115906809D02*
X53045250Y-115906809D01*
X52950012Y-115954429D01*
X52902393Y-116002048D01*
X52854774Y-116097286D01*
X52807155Y-116287762D01*
X52807155Y-116525857D01*
X52854774Y-116716333D01*
X52902393Y-116811571D01*
X52950012Y-116859190D01*
X53045250Y-116906809D01*
X53140489Y-116906809D01*
X53235727Y-116859190D01*
X53283346Y-116811571D01*
X53330965Y-116716333D01*
X53378584Y-116525857D01*
X53378584Y-116287762D01*
X53330965Y-116097286D01*
X53283346Y-116002048D01*
X53235727Y-115954429D01*
X53140489Y-115906809D01*
X52378584Y-116906809D02*
X52378584Y-115906809D01*
X52283346Y-116525857D02*
X51997631Y-116906809D01*
X51997631Y-116240143D02*
X52378584Y-116621095D01*
D14*
X53961917Y-115030619D02*
X54128584Y-114792524D01*
X54247631Y-115030619D02*
X54247631Y-114530619D01*
X54057155Y-114530619D01*
X54009536Y-114554429D01*
X53985727Y-114578238D01*
X53961917Y-114625857D01*
X53961917Y-114697286D01*
X53985727Y-114744905D01*
X54009536Y-114768714D01*
X54057155Y-114792524D01*
X54247631Y-114792524D01*
X53795250Y-114530619D02*
X53485727Y-114530619D01*
X53652393Y-114721095D01*
X53580965Y-114721095D01*
X53533346Y-114744905D01*
X53509536Y-114768714D01*
X53485727Y-114816333D01*
X53485727Y-114935381D01*
X53509536Y-114983000D01*
X53533346Y-115006809D01*
X53580965Y-115030619D01*
X53723822Y-115030619D01*
X53771441Y-115006809D01*
X53795250Y-114983000D01*
X53319060Y-114530619D02*
X53009536Y-114530619D01*
X53176203Y-114721095D01*
X53104774Y-114721095D01*
X53057155Y-114744905D01*
X53033346Y-114768714D01*
X53009536Y-114816333D01*
X53009536Y-114935381D01*
X53033346Y-114983000D01*
X53057155Y-115006809D01*
X53104774Y-115030619D01*
X53247631Y-115030619D01*
X53295250Y-115006809D01*
X53319060Y-114983000D01*
D11*
%TO.C,R34*%
X54711917Y-111206809D02*
X55283346Y-111206809D01*
X54997631Y-111206809D02*
X54997631Y-110206809D01*
X55092869Y-110349667D01*
X55188108Y-110444905D01*
X55283346Y-110492524D01*
X54092869Y-110206809D02*
X53997631Y-110206809D01*
X53902393Y-110254429D01*
X53854774Y-110302048D01*
X53807155Y-110397286D01*
X53759536Y-110587762D01*
X53759536Y-110825857D01*
X53807155Y-111016333D01*
X53854774Y-111111571D01*
X53902393Y-111159190D01*
X53997631Y-111206809D01*
X54092869Y-111206809D01*
X54188108Y-111159190D01*
X54235727Y-111111571D01*
X54283346Y-111016333D01*
X54330965Y-110825857D01*
X54330965Y-110587762D01*
X54283346Y-110397286D01*
X54235727Y-110302048D01*
X54188108Y-110254429D01*
X54092869Y-110206809D01*
X53140489Y-110206809D02*
X53045250Y-110206809D01*
X52950012Y-110254429D01*
X52902393Y-110302048D01*
X52854774Y-110397286D01*
X52807155Y-110587762D01*
X52807155Y-110825857D01*
X52854774Y-111016333D01*
X52902393Y-111111571D01*
X52950012Y-111159190D01*
X53045250Y-111206809D01*
X53140489Y-111206809D01*
X53235727Y-111159190D01*
X53283346Y-111111571D01*
X53330965Y-111016333D01*
X53378584Y-110825857D01*
X53378584Y-110587762D01*
X53330965Y-110397286D01*
X53283346Y-110302048D01*
X53235727Y-110254429D01*
X53140489Y-110206809D01*
X52378584Y-111206809D02*
X52378584Y-110206809D01*
X52283346Y-110825857D02*
X51997631Y-111206809D01*
X51997631Y-110540143D02*
X52378584Y-110921095D01*
D14*
X53961917Y-112630619D02*
X54128584Y-112392524D01*
X54247631Y-112630619D02*
X54247631Y-112130619D01*
X54057155Y-112130619D01*
X54009536Y-112154429D01*
X53985727Y-112178238D01*
X53961917Y-112225857D01*
X53961917Y-112297286D01*
X53985727Y-112344905D01*
X54009536Y-112368714D01*
X54057155Y-112392524D01*
X54247631Y-112392524D01*
X53795250Y-112130619D02*
X53485727Y-112130619D01*
X53652393Y-112321095D01*
X53580965Y-112321095D01*
X53533346Y-112344905D01*
X53509536Y-112368714D01*
X53485727Y-112416333D01*
X53485727Y-112535381D01*
X53509536Y-112583000D01*
X53533346Y-112606809D01*
X53580965Y-112630619D01*
X53723822Y-112630619D01*
X53771441Y-112606809D01*
X53795250Y-112583000D01*
X53057155Y-112297286D02*
X53057155Y-112630619D01*
X53176203Y-112106809D02*
X53295250Y-112463952D01*
X52985727Y-112463952D01*
D11*
%TO.C,R35*%
X98745764Y-110240165D02*
X98745764Y-109668737D01*
X98745764Y-109954451D02*
X97745764Y-109954451D01*
X97888622Y-109859213D01*
X97983860Y-109763975D01*
X98031479Y-109668737D01*
X97745764Y-110859213D02*
X97745764Y-110954451D01*
X97793384Y-111049689D01*
X97841003Y-111097308D01*
X97936241Y-111144927D01*
X98126717Y-111192546D01*
X98364812Y-111192546D01*
X98555288Y-111144927D01*
X98650526Y-111097308D01*
X98698145Y-111049689D01*
X98745764Y-110954451D01*
X98745764Y-110859213D01*
X98698145Y-110763975D01*
X98650526Y-110716356D01*
X98555288Y-110668737D01*
X98364812Y-110621118D01*
X98126717Y-110621118D01*
X97936241Y-110668737D01*
X97841003Y-110716356D01*
X97793384Y-110763975D01*
X97745764Y-110859213D01*
X98745764Y-111621118D02*
X97745764Y-111621118D01*
X98364812Y-111716356D02*
X98745764Y-112002070D01*
X98079098Y-112002070D02*
X98460050Y-111621118D01*
D14*
X96869574Y-110513975D02*
X96631479Y-110347308D01*
X96869574Y-110228261D02*
X96369574Y-110228261D01*
X96369574Y-110418737D01*
X96393384Y-110466356D01*
X96417193Y-110490165D01*
X96464812Y-110513975D01*
X96536241Y-110513975D01*
X96583860Y-110490165D01*
X96607669Y-110466356D01*
X96631479Y-110418737D01*
X96631479Y-110228261D01*
X96369574Y-110680642D02*
X96369574Y-110990165D01*
X96560050Y-110823499D01*
X96560050Y-110894927D01*
X96583860Y-110942546D01*
X96607669Y-110966356D01*
X96655288Y-110990165D01*
X96774336Y-110990165D01*
X96821955Y-110966356D01*
X96845764Y-110942546D01*
X96869574Y-110894927D01*
X96869574Y-110752070D01*
X96845764Y-110704451D01*
X96821955Y-110680642D01*
X96369574Y-111442546D02*
X96369574Y-111204451D01*
X96607669Y-111180642D01*
X96583860Y-111204451D01*
X96560050Y-111252070D01*
X96560050Y-111371118D01*
X96583860Y-111418737D01*
X96607669Y-111442546D01*
X96655288Y-111466356D01*
X96774336Y-111466356D01*
X96821955Y-111442546D01*
X96845764Y-111418737D01*
X96869574Y-111371118D01*
X96869574Y-111252070D01*
X96845764Y-111204451D01*
X96821955Y-111180642D01*
D11*
%TO.C,R38*%
X76150667Y-59697869D02*
X76722096Y-59697869D01*
X76436381Y-59697869D02*
X76436381Y-58697869D01*
X76531619Y-58840727D01*
X76626858Y-58935965D01*
X76722096Y-58983584D01*
X75531619Y-58697869D02*
X75436381Y-58697869D01*
X75341143Y-58745489D01*
X75293524Y-58793108D01*
X75245905Y-58888346D01*
X75198286Y-59078822D01*
X75198286Y-59316917D01*
X75245905Y-59507393D01*
X75293524Y-59602631D01*
X75341143Y-59650250D01*
X75436381Y-59697869D01*
X75531619Y-59697869D01*
X75626858Y-59650250D01*
X75674477Y-59602631D01*
X75722096Y-59507393D01*
X75769715Y-59316917D01*
X75769715Y-59078822D01*
X75722096Y-58888346D01*
X75674477Y-58793108D01*
X75626858Y-58745489D01*
X75531619Y-58697869D01*
X74579239Y-58697869D02*
X74484000Y-58697869D01*
X74388762Y-58745489D01*
X74341143Y-58793108D01*
X74293524Y-58888346D01*
X74245905Y-59078822D01*
X74245905Y-59316917D01*
X74293524Y-59507393D01*
X74341143Y-59602631D01*
X74388762Y-59650250D01*
X74484000Y-59697869D01*
X74579239Y-59697869D01*
X74674477Y-59650250D01*
X74722096Y-59602631D01*
X74769715Y-59507393D01*
X74817334Y-59316917D01*
X74817334Y-59078822D01*
X74769715Y-58888346D01*
X74722096Y-58793108D01*
X74674477Y-58745489D01*
X74579239Y-58697869D01*
X73817334Y-59697869D02*
X73817334Y-58697869D01*
X73722096Y-59316917D02*
X73436381Y-59697869D01*
X73436381Y-59031203D02*
X73817334Y-59412155D01*
D14*
X75400667Y-57821679D02*
X75567334Y-57583584D01*
X75686381Y-57821679D02*
X75686381Y-57321679D01*
X75495905Y-57321679D01*
X75448286Y-57345489D01*
X75424477Y-57369298D01*
X75400667Y-57416917D01*
X75400667Y-57488346D01*
X75424477Y-57535965D01*
X75448286Y-57559774D01*
X75495905Y-57583584D01*
X75686381Y-57583584D01*
X75234000Y-57321679D02*
X74924477Y-57321679D01*
X75091143Y-57512155D01*
X75019715Y-57512155D01*
X74972096Y-57535965D01*
X74948286Y-57559774D01*
X74924477Y-57607393D01*
X74924477Y-57726441D01*
X74948286Y-57774060D01*
X74972096Y-57797869D01*
X75019715Y-57821679D01*
X75162572Y-57821679D01*
X75210191Y-57797869D01*
X75234000Y-57774060D01*
X74638762Y-57535965D02*
X74686381Y-57512155D01*
X74710191Y-57488346D01*
X74734000Y-57440727D01*
X74734000Y-57416917D01*
X74710191Y-57369298D01*
X74686381Y-57345489D01*
X74638762Y-57321679D01*
X74543524Y-57321679D01*
X74495905Y-57345489D01*
X74472096Y-57369298D01*
X74448286Y-57416917D01*
X74448286Y-57440727D01*
X74472096Y-57488346D01*
X74495905Y-57512155D01*
X74543524Y-57535965D01*
X74638762Y-57535965D01*
X74686381Y-57559774D01*
X74710191Y-57583584D01*
X74734000Y-57631203D01*
X74734000Y-57726441D01*
X74710191Y-57774060D01*
X74686381Y-57797869D01*
X74638762Y-57821679D01*
X74543524Y-57821679D01*
X74495905Y-57797869D01*
X74472096Y-57774060D01*
X74448286Y-57726441D01*
X74448286Y-57631203D01*
X74472096Y-57583584D01*
X74495905Y-57559774D01*
X74543524Y-57535965D01*
D11*
%TO.C,R40*%
X72780369Y-70248111D02*
X72780369Y-69771921D01*
X73256560Y-69724302D01*
X73208941Y-69771921D01*
X73161322Y-69867159D01*
X73161322Y-70105254D01*
X73208941Y-70200492D01*
X73256560Y-70248111D01*
X73351798Y-70295730D01*
X73589893Y-70295730D01*
X73685131Y-70248111D01*
X73732750Y-70200492D01*
X73780369Y-70105254D01*
X73780369Y-69867159D01*
X73732750Y-69771921D01*
X73685131Y-69724302D01*
X73780369Y-71248111D02*
X73780369Y-70676683D01*
X73780369Y-70962397D02*
X72780369Y-70962397D01*
X72923227Y-70867159D01*
X73018465Y-70771921D01*
X73066084Y-70676683D01*
X73780369Y-71676683D02*
X72780369Y-71676683D01*
X73399417Y-71771921D02*
X73780369Y-72057635D01*
X73113703Y-72057635D02*
X73494655Y-71676683D01*
D14*
X75204179Y-70569540D02*
X74966084Y-70402873D01*
X75204179Y-70283826D02*
X74704179Y-70283826D01*
X74704179Y-70474302D01*
X74727989Y-70521921D01*
X74751798Y-70545730D01*
X74799417Y-70569540D01*
X74870846Y-70569540D01*
X74918465Y-70545730D01*
X74942274Y-70521921D01*
X74966084Y-70474302D01*
X74966084Y-70283826D01*
X74870846Y-70998111D02*
X75204179Y-70998111D01*
X74680369Y-70879064D02*
X75037512Y-70760016D01*
X75037512Y-71069540D01*
X74704179Y-71355254D02*
X74704179Y-71402873D01*
X74727989Y-71450492D01*
X74751798Y-71474302D01*
X74799417Y-71498111D01*
X74894655Y-71521921D01*
X75013703Y-71521921D01*
X75108941Y-71498111D01*
X75156560Y-71474302D01*
X75180369Y-71450492D01*
X75204179Y-71402873D01*
X75204179Y-71355254D01*
X75180369Y-71307635D01*
X75156560Y-71283826D01*
X75108941Y-71260016D01*
X75013703Y-71236207D01*
X74894655Y-71236207D01*
X74799417Y-71260016D01*
X74751798Y-71283826D01*
X74727989Y-71307635D01*
X74704179Y-71355254D01*
D11*
%TO.C,R41*%
X73710369Y-66209540D02*
X73710369Y-65638111D01*
X73710369Y-65923826D02*
X72710369Y-65923826D01*
X72853227Y-65828588D01*
X72948465Y-65733349D01*
X72996084Y-65638111D01*
X72710369Y-66828588D02*
X72710369Y-66923826D01*
X72757989Y-67019064D01*
X72805608Y-67066683D01*
X72900846Y-67114302D01*
X73091322Y-67161921D01*
X73329417Y-67161921D01*
X73519893Y-67114302D01*
X73615131Y-67066683D01*
X73662750Y-67019064D01*
X73710369Y-66923826D01*
X73710369Y-66828588D01*
X73662750Y-66733349D01*
X73615131Y-66685730D01*
X73519893Y-66638111D01*
X73329417Y-66590492D01*
X73091322Y-66590492D01*
X72900846Y-66638111D01*
X72805608Y-66685730D01*
X72757989Y-66733349D01*
X72710369Y-66828588D01*
X72710369Y-67780969D02*
X72710369Y-67876207D01*
X72757989Y-67971445D01*
X72805608Y-68019064D01*
X72900846Y-68066683D01*
X73091322Y-68114302D01*
X73329417Y-68114302D01*
X73519893Y-68066683D01*
X73615131Y-68019064D01*
X73662750Y-67971445D01*
X73710369Y-67876207D01*
X73710369Y-67780969D01*
X73662750Y-67685730D01*
X73615131Y-67638111D01*
X73519893Y-67590492D01*
X73329417Y-67542873D01*
X73091322Y-67542873D01*
X72900846Y-67590492D01*
X72805608Y-67638111D01*
X72757989Y-67685730D01*
X72710369Y-67780969D01*
X73710369Y-68542873D02*
X72710369Y-68542873D01*
X73329417Y-68638111D02*
X73710369Y-68923826D01*
X73043703Y-68923826D02*
X73424655Y-68542873D01*
D14*
X75134179Y-66959540D02*
X74896084Y-66792873D01*
X75134179Y-66673826D02*
X74634179Y-66673826D01*
X74634179Y-66864302D01*
X74657989Y-66911921D01*
X74681798Y-66935730D01*
X74729417Y-66959540D01*
X74800846Y-66959540D01*
X74848465Y-66935730D01*
X74872274Y-66911921D01*
X74896084Y-66864302D01*
X74896084Y-66673826D01*
X74800846Y-67388111D02*
X75134179Y-67388111D01*
X74610369Y-67269064D02*
X74967512Y-67150016D01*
X74967512Y-67459540D01*
X75134179Y-67911921D02*
X75134179Y-67626207D01*
X75134179Y-67769064D02*
X74634179Y-67769064D01*
X74705608Y-67721445D01*
X74753227Y-67673826D01*
X74777036Y-67626207D01*
D11*
%TO.C,R42*%
X86414536Y-59507869D02*
X86985965Y-59507869D01*
X86700250Y-59507869D02*
X86700250Y-58507869D01*
X86795489Y-58650727D01*
X86890727Y-58745965D01*
X86985965Y-58793584D01*
X85985965Y-59507869D02*
X85985965Y-58507869D01*
X85890727Y-59126917D02*
X85605012Y-59507869D01*
X85605012Y-58841203D02*
X85985965Y-59222155D01*
D14*
X86616917Y-57631679D02*
X86783584Y-57393584D01*
X86902631Y-57631679D02*
X86902631Y-57131679D01*
X86712155Y-57131679D01*
X86664536Y-57155489D01*
X86640727Y-57179298D01*
X86616917Y-57226917D01*
X86616917Y-57298346D01*
X86640727Y-57345965D01*
X86664536Y-57369774D01*
X86712155Y-57393584D01*
X86902631Y-57393584D01*
X86188346Y-57298346D02*
X86188346Y-57631679D01*
X86307393Y-57107869D02*
X86426441Y-57465012D01*
X86116917Y-57465012D01*
X85950250Y-57179298D02*
X85926441Y-57155489D01*
X85878822Y-57131679D01*
X85759774Y-57131679D01*
X85712155Y-57155489D01*
X85688346Y-57179298D01*
X85664536Y-57226917D01*
X85664536Y-57274536D01*
X85688346Y-57345965D01*
X85974060Y-57631679D01*
X85664536Y-57631679D01*
D11*
%TO.C,R43*%
X73670369Y-62589540D02*
X73670369Y-62018111D01*
X73670369Y-62303826D02*
X72670369Y-62303826D01*
X72813227Y-62208588D01*
X72908465Y-62113349D01*
X72956084Y-62018111D01*
X72670369Y-63208588D02*
X72670369Y-63303826D01*
X72717989Y-63399064D01*
X72765608Y-63446683D01*
X72860846Y-63494302D01*
X73051322Y-63541921D01*
X73289417Y-63541921D01*
X73479893Y-63494302D01*
X73575131Y-63446683D01*
X73622750Y-63399064D01*
X73670369Y-63303826D01*
X73670369Y-63208588D01*
X73622750Y-63113349D01*
X73575131Y-63065730D01*
X73479893Y-63018111D01*
X73289417Y-62970492D01*
X73051322Y-62970492D01*
X72860846Y-63018111D01*
X72765608Y-63065730D01*
X72717989Y-63113349D01*
X72670369Y-63208588D01*
X72670369Y-64160969D02*
X72670369Y-64256207D01*
X72717989Y-64351445D01*
X72765608Y-64399064D01*
X72860846Y-64446683D01*
X73051322Y-64494302D01*
X73289417Y-64494302D01*
X73479893Y-64446683D01*
X73575131Y-64399064D01*
X73622750Y-64351445D01*
X73670369Y-64256207D01*
X73670369Y-64160969D01*
X73622750Y-64065730D01*
X73575131Y-64018111D01*
X73479893Y-63970492D01*
X73289417Y-63922873D01*
X73051322Y-63922873D01*
X72860846Y-63970492D01*
X72765608Y-64018111D01*
X72717989Y-64065730D01*
X72670369Y-64160969D01*
X73670369Y-64922873D02*
X72670369Y-64922873D01*
X73289417Y-65018111D02*
X73670369Y-65303826D01*
X73003703Y-65303826D02*
X73384655Y-64922873D01*
D14*
X75094179Y-63339540D02*
X74856084Y-63172873D01*
X75094179Y-63053826D02*
X74594179Y-63053826D01*
X74594179Y-63244302D01*
X74617989Y-63291921D01*
X74641798Y-63315730D01*
X74689417Y-63339540D01*
X74760846Y-63339540D01*
X74808465Y-63315730D01*
X74832274Y-63291921D01*
X74856084Y-63244302D01*
X74856084Y-63053826D01*
X74760846Y-63768111D02*
X75094179Y-63768111D01*
X74570369Y-63649064D02*
X74927512Y-63530016D01*
X74927512Y-63839540D01*
X74594179Y-63982397D02*
X74594179Y-64291921D01*
X74784655Y-64125254D01*
X74784655Y-64196683D01*
X74808465Y-64244302D01*
X74832274Y-64268111D01*
X74879893Y-64291921D01*
X74998941Y-64291921D01*
X75046560Y-64268111D01*
X75070369Y-64244302D01*
X75094179Y-64196683D01*
X75094179Y-64053826D01*
X75070369Y-64006207D01*
X75046560Y-63982397D01*
D11*
%TO.C,R44*%
X94819098Y-114135999D02*
X95485764Y-114135999D01*
X94438145Y-113897904D02*
X95152431Y-113659808D01*
X95152431Y-114278856D01*
X94485764Y-114564570D02*
X94485764Y-115231237D01*
X95485764Y-114802665D01*
X94485764Y-115802665D02*
X94485764Y-115897904D01*
X94533384Y-115993142D01*
X94581003Y-116040761D01*
X94676241Y-116088380D01*
X94866717Y-116135999D01*
X95104812Y-116135999D01*
X95295288Y-116088380D01*
X95390526Y-116040761D01*
X95438145Y-115993142D01*
X95485764Y-115897904D01*
X95485764Y-115802665D01*
X95438145Y-115707427D01*
X95390526Y-115659808D01*
X95295288Y-115612189D01*
X95104812Y-115564570D01*
X94866717Y-115564570D01*
X94676241Y-115612189D01*
X94581003Y-115659808D01*
X94533384Y-115707427D01*
X94485764Y-115802665D01*
D14*
X96699574Y-114576475D02*
X96461479Y-114409808D01*
X96699574Y-114290761D02*
X96199574Y-114290761D01*
X96199574Y-114481237D01*
X96223384Y-114528856D01*
X96247193Y-114552665D01*
X96294812Y-114576475D01*
X96366241Y-114576475D01*
X96413860Y-114552665D01*
X96437669Y-114528856D01*
X96461479Y-114481237D01*
X96461479Y-114290761D01*
X96366241Y-115005046D02*
X96699574Y-115005046D01*
X96175764Y-114885999D02*
X96532907Y-114766951D01*
X96532907Y-115076475D01*
X96366241Y-115481237D02*
X96699574Y-115481237D01*
X96175764Y-115362189D02*
X96532907Y-115243142D01*
X96532907Y-115552665D01*
D11*
%TO.C,U1*%
X90934536Y-82488180D02*
X90363108Y-82488180D01*
X90648822Y-83488180D02*
X90648822Y-82488180D01*
X89553584Y-83488180D02*
X90029774Y-83488180D01*
X90029774Y-82488180D01*
X89029774Y-82488180D02*
X88934536Y-82488180D01*
X88839298Y-82535800D01*
X88791679Y-82583419D01*
X88744060Y-82678657D01*
X88696441Y-82869133D01*
X88696441Y-83107228D01*
X88744060Y-83297704D01*
X88791679Y-83392942D01*
X88839298Y-83440561D01*
X88934536Y-83488180D01*
X89029774Y-83488180D01*
X89125012Y-83440561D01*
X89172631Y-83392942D01*
X89220250Y-83297704D01*
X89267869Y-83107228D01*
X89267869Y-82869133D01*
X89220250Y-82678657D01*
X89172631Y-82583419D01*
X89125012Y-82535800D01*
X89029774Y-82488180D01*
X88363108Y-82488180D02*
X87696441Y-82488180D01*
X88125012Y-83488180D01*
X86886917Y-82821514D02*
X86886917Y-83488180D01*
X87125012Y-82440561D02*
X87363108Y-83154847D01*
X86744060Y-83154847D01*
X89577393Y-72538180D02*
X89577393Y-73347704D01*
X89529774Y-73442942D01*
X89482155Y-73490561D01*
X89386917Y-73538180D01*
X89196441Y-73538180D01*
X89101203Y-73490561D01*
X89053584Y-73442942D01*
X89005965Y-73347704D01*
X89005965Y-72538180D01*
X88005965Y-73538180D02*
X88577393Y-73538180D01*
X88291679Y-73538180D02*
X88291679Y-72538180D01*
X88386917Y-72681038D01*
X88482155Y-72776276D01*
X88577393Y-72823895D01*
%TO.C,U2*%
X62924536Y-120322869D02*
X62353108Y-120322869D01*
X62638822Y-121322869D02*
X62638822Y-120322869D01*
X61543584Y-121322869D02*
X62019774Y-121322869D01*
X62019774Y-120322869D01*
X61019774Y-120322869D02*
X60924536Y-120322869D01*
X60829298Y-120370489D01*
X60781679Y-120418108D01*
X60734060Y-120513346D01*
X60686441Y-120703822D01*
X60686441Y-120941917D01*
X60734060Y-121132393D01*
X60781679Y-121227631D01*
X60829298Y-121275250D01*
X60924536Y-121322869D01*
X61019774Y-121322869D01*
X61115012Y-121275250D01*
X61162631Y-121227631D01*
X61210250Y-121132393D01*
X61257869Y-120941917D01*
X61257869Y-120703822D01*
X61210250Y-120513346D01*
X61162631Y-120418108D01*
X61115012Y-120370489D01*
X61019774Y-120322869D01*
X60353108Y-120322869D02*
X59686441Y-120322869D01*
X60115012Y-121322869D01*
X58876917Y-120656203D02*
X58876917Y-121322869D01*
X59115012Y-120275250D02*
X59353108Y-120989536D01*
X58734060Y-120989536D01*
X61567393Y-110372869D02*
X61567393Y-111182393D01*
X61519774Y-111277631D01*
X61472155Y-111325250D01*
X61376917Y-111372869D01*
X61186441Y-111372869D01*
X61091203Y-111325250D01*
X61043584Y-111277631D01*
X60995965Y-111182393D01*
X60995965Y-110372869D01*
X60567393Y-110468108D02*
X60519774Y-110420489D01*
X60424536Y-110372869D01*
X60186441Y-110372869D01*
X60091203Y-110420489D01*
X60043584Y-110468108D01*
X59995965Y-110563346D01*
X59995965Y-110658584D01*
X60043584Y-110801441D01*
X60615012Y-111372869D01*
X59995965Y-111372869D01*
%TO.C,U3*%
X73885369Y-65201921D02*
X73885369Y-65773349D01*
X74885369Y-65487635D02*
X73885369Y-65487635D01*
X74885369Y-66582873D02*
X74885369Y-66106683D01*
X73885369Y-66106683D01*
X73885369Y-67106683D02*
X73885369Y-67201921D01*
X73932989Y-67297159D01*
X73980608Y-67344778D01*
X74075846Y-67392397D01*
X74266322Y-67440016D01*
X74504417Y-67440016D01*
X74694893Y-67392397D01*
X74790131Y-67344778D01*
X74837750Y-67297159D01*
X74885369Y-67201921D01*
X74885369Y-67106683D01*
X74837750Y-67011445D01*
X74790131Y-66963826D01*
X74694893Y-66916207D01*
X74504417Y-66868588D01*
X74266322Y-66868588D01*
X74075846Y-66916207D01*
X73980608Y-66963826D01*
X73932989Y-67011445D01*
X73885369Y-67106683D01*
X73885369Y-67773349D02*
X73885369Y-68440016D01*
X74885369Y-68011445D01*
X74218703Y-69249540D02*
X74885369Y-69249540D01*
X73837750Y-69011445D02*
X74552036Y-68773349D01*
X74552036Y-69392397D01*
X63935369Y-66559064D02*
X64744893Y-66559064D01*
X64840131Y-66606683D01*
X64887750Y-66654302D01*
X64935369Y-66749540D01*
X64935369Y-66940016D01*
X64887750Y-67035254D01*
X64840131Y-67082873D01*
X64744893Y-67130492D01*
X63935369Y-67130492D01*
X63935369Y-67511445D02*
X63935369Y-68130492D01*
X64316322Y-67797159D01*
X64316322Y-67940016D01*
X64363941Y-68035254D01*
X64411560Y-68082873D01*
X64506798Y-68130492D01*
X64744893Y-68130492D01*
X64840131Y-68082873D01*
X64887750Y-68035254D01*
X64935369Y-67940016D01*
X64935369Y-67654302D01*
X64887750Y-67559064D01*
X64840131Y-67511445D01*
%TO.C,U4*%
X92082431Y-123414570D02*
X91606241Y-123414570D01*
X92177669Y-123700284D02*
X91844336Y-122700284D01*
X91511003Y-123700284D01*
X91225288Y-123652665D02*
X91082431Y-123700284D01*
X90844336Y-123700284D01*
X90749098Y-123652665D01*
X90701479Y-123605046D01*
X90653860Y-123509808D01*
X90653860Y-123414570D01*
X90701479Y-123319332D01*
X90749098Y-123271713D01*
X90844336Y-123224094D01*
X91034812Y-123176475D01*
X91130050Y-123128856D01*
X91177669Y-123081237D01*
X91225288Y-122985999D01*
X91225288Y-122890761D01*
X91177669Y-122795523D01*
X91130050Y-122747904D01*
X91034812Y-122700284D01*
X90796717Y-122700284D01*
X90653860Y-122747904D01*
X90320526Y-122700284D02*
X89701479Y-122700284D01*
X90034812Y-123081237D01*
X89891955Y-123081237D01*
X89796717Y-123128856D01*
X89749098Y-123176475D01*
X89701479Y-123271713D01*
X89701479Y-123509808D01*
X89749098Y-123605046D01*
X89796717Y-123652665D01*
X89891955Y-123700284D01*
X90177669Y-123700284D01*
X90272907Y-123652665D01*
X90320526Y-123605046D01*
X89368145Y-122700284D02*
X88749098Y-122700284D01*
X89082431Y-123081237D01*
X88939574Y-123081237D01*
X88844336Y-123128856D01*
X88796717Y-123176475D01*
X88749098Y-123271713D01*
X88749098Y-123509808D01*
X88796717Y-123605046D01*
X88844336Y-123652665D01*
X88939574Y-123700284D01*
X89225288Y-123700284D01*
X89320526Y-123652665D01*
X89368145Y-123605046D01*
X87796717Y-123700284D02*
X88368145Y-123700284D01*
X88082431Y-123700284D02*
X88082431Y-122700284D01*
X88177669Y-122843142D01*
X88272907Y-122938380D01*
X88368145Y-122985999D01*
X87177669Y-122700284D02*
X87082431Y-122700284D01*
X86987193Y-122747904D01*
X86939574Y-122795523D01*
X86891955Y-122890761D01*
X86844336Y-123081237D01*
X86844336Y-123319332D01*
X86891955Y-123509808D01*
X86939574Y-123605046D01*
X86987193Y-123652665D01*
X87082431Y-123700284D01*
X87177669Y-123700284D01*
X87272907Y-123652665D01*
X87320526Y-123605046D01*
X87368145Y-123509808D01*
X87415764Y-123319332D01*
X87415764Y-123081237D01*
X87368145Y-122890761D01*
X87320526Y-122795523D01*
X87272907Y-122747904D01*
X87177669Y-122700284D01*
X90225288Y-111480284D02*
X90225288Y-112289808D01*
X90177669Y-112385046D01*
X90130050Y-112432665D01*
X90034812Y-112480284D01*
X89844336Y-112480284D01*
X89749098Y-112432665D01*
X89701479Y-112385046D01*
X89653860Y-112289808D01*
X89653860Y-111480284D01*
X88749098Y-111813618D02*
X88749098Y-112480284D01*
X88987193Y-111432665D02*
X89225288Y-112146951D01*
X88606241Y-112146951D01*
%TO.C,D4*%
X78928346Y-124997869D02*
X79499774Y-124997869D01*
X79214060Y-124997869D02*
X79214060Y-123997869D01*
X79309298Y-124140727D01*
X79404536Y-124235965D01*
X79499774Y-124283584D01*
X78499774Y-124997869D02*
X78499774Y-123997869D01*
X77928346Y-124997869D01*
X77928346Y-123997869D01*
X77023584Y-124331203D02*
X77023584Y-124997869D01*
X77261679Y-123950250D02*
X77499774Y-124664536D01*
X76880727Y-124664536D01*
X75975965Y-124997869D02*
X76547393Y-124997869D01*
X76261679Y-124997869D02*
X76261679Y-123997869D01*
X76356917Y-124140727D01*
X76452155Y-124235965D01*
X76547393Y-124283584D01*
X75118822Y-124331203D02*
X75118822Y-124997869D01*
X75356917Y-123950250D02*
X75595012Y-124664536D01*
X74975965Y-124664536D01*
X74452155Y-124426441D02*
X74547393Y-124378822D01*
X74595012Y-124331203D01*
X74642631Y-124235965D01*
X74642631Y-124188346D01*
X74595012Y-124093108D01*
X74547393Y-124045489D01*
X74452155Y-123997869D01*
X74261679Y-123997869D01*
X74166441Y-124045489D01*
X74118822Y-124093108D01*
X74071203Y-124188346D01*
X74071203Y-124235965D01*
X74118822Y-124331203D01*
X74166441Y-124378822D01*
X74261679Y-124426441D01*
X74452155Y-124426441D01*
X74547393Y-124474060D01*
X74595012Y-124521679D01*
X74642631Y-124616917D01*
X74642631Y-124807393D01*
X74595012Y-124902631D01*
X74547393Y-124950250D01*
X74452155Y-124997869D01*
X74261679Y-124997869D01*
X74166441Y-124950250D01*
X74118822Y-124902631D01*
X74071203Y-124807393D01*
X74071203Y-124616917D01*
X74118822Y-124521679D01*
X74166441Y-124474060D01*
X74261679Y-124426441D01*
D13*
X77375965Y-126727393D02*
X77375965Y-125927393D01*
X77185489Y-125927393D01*
X77071203Y-125965489D01*
X76995012Y-126041679D01*
X76956917Y-126117869D01*
X76918822Y-126270250D01*
X76918822Y-126384536D01*
X76956917Y-126536917D01*
X76995012Y-126613108D01*
X77071203Y-126689298D01*
X77185489Y-126727393D01*
X77375965Y-126727393D01*
X76233108Y-126194060D02*
X76233108Y-126727393D01*
X76423584Y-125889298D02*
X76614060Y-126460727D01*
X76118822Y-126460727D01*
D11*
X77047393Y-128617869D02*
X77047393Y-127617869D01*
X76475965Y-128617869D02*
X76904536Y-128046441D01*
X76475965Y-127617869D02*
X77047393Y-128189298D01*
%TO.C,C12*%
X53420369Y-63268111D02*
X53420369Y-63363349D01*
X53467989Y-63458588D01*
X53515608Y-63506207D01*
X53610846Y-63553826D01*
X53801322Y-63601445D01*
X54039417Y-63601445D01*
X54229893Y-63553826D01*
X54325131Y-63506207D01*
X54372750Y-63458588D01*
X54420369Y-63363349D01*
X54420369Y-63268111D01*
X54372750Y-63172873D01*
X54325131Y-63125254D01*
X54229893Y-63077635D01*
X54039417Y-63030016D01*
X53801322Y-63030016D01*
X53610846Y-63077635D01*
X53515608Y-63125254D01*
X53467989Y-63172873D01*
X53420369Y-63268111D01*
X54325131Y-64030016D02*
X54372750Y-64077635D01*
X54420369Y-64030016D01*
X54372750Y-63982397D01*
X54325131Y-64030016D01*
X54420369Y-64030016D01*
X54420369Y-65030016D02*
X54420369Y-64458588D01*
X54420369Y-64744302D02*
X53420369Y-64744302D01*
X53563227Y-64649064D01*
X53658465Y-64553826D01*
X53706084Y-64458588D01*
X53753703Y-65887159D02*
X54420369Y-65887159D01*
X53753703Y-65458588D02*
X54277512Y-65458588D01*
X54372750Y-65506207D01*
X54420369Y-65601445D01*
X54420369Y-65744302D01*
X54372750Y-65839540D01*
X54325131Y-65887159D01*
X53896560Y-66696683D02*
X53896560Y-66363349D01*
X54420369Y-66363349D02*
X53420369Y-66363349D01*
X53420369Y-66839540D01*
D12*
X52132274Y-64525254D02*
X52160846Y-64496683D01*
X52189417Y-64410969D01*
X52189417Y-64353826D01*
X52160846Y-64268111D01*
X52103703Y-64210969D01*
X52046560Y-64182397D01*
X51932274Y-64153826D01*
X51846560Y-64153826D01*
X51732274Y-64182397D01*
X51675131Y-64210969D01*
X51617989Y-64268111D01*
X51589417Y-64353826D01*
X51589417Y-64410969D01*
X51617989Y-64496683D01*
X51646560Y-64525254D01*
X52189417Y-65096683D02*
X52189417Y-64753826D01*
X52189417Y-64925254D02*
X51589417Y-64925254D01*
X51675131Y-64868111D01*
X51732274Y-64810969D01*
X51760846Y-64753826D01*
X51646560Y-65325254D02*
X51617989Y-65353826D01*
X51589417Y-65410969D01*
X51589417Y-65553826D01*
X51617989Y-65610969D01*
X51646560Y-65639540D01*
X51703703Y-65668111D01*
X51760846Y-65668111D01*
X51846560Y-65639540D01*
X52189417Y-65296683D01*
X52189417Y-65668111D01*
D11*
%TO.C,R47*%
X54036917Y-91777869D02*
X54608346Y-91777869D01*
X54322631Y-91777869D02*
X54322631Y-90777869D01*
X54417869Y-90920727D01*
X54513108Y-91015965D01*
X54608346Y-91063584D01*
X53417869Y-90777869D02*
X53322631Y-90777869D01*
X53227393Y-90825489D01*
X53179774Y-90873108D01*
X53132155Y-90968346D01*
X53084536Y-91158822D01*
X53084536Y-91396917D01*
X53132155Y-91587393D01*
X53179774Y-91682631D01*
X53227393Y-91730250D01*
X53322631Y-91777869D01*
X53417869Y-91777869D01*
X53513108Y-91730250D01*
X53560727Y-91682631D01*
X53608346Y-91587393D01*
X53655965Y-91396917D01*
X53655965Y-91158822D01*
X53608346Y-90968346D01*
X53560727Y-90873108D01*
X53513108Y-90825489D01*
X53417869Y-90777869D01*
X52465489Y-90777869D02*
X52370250Y-90777869D01*
X52275012Y-90825489D01*
X52227393Y-90873108D01*
X52179774Y-90968346D01*
X52132155Y-91158822D01*
X52132155Y-91396917D01*
X52179774Y-91587393D01*
X52227393Y-91682631D01*
X52275012Y-91730250D01*
X52370250Y-91777869D01*
X52465489Y-91777869D01*
X52560727Y-91730250D01*
X52608346Y-91682631D01*
X52655965Y-91587393D01*
X52703584Y-91396917D01*
X52703584Y-91158822D01*
X52655965Y-90968346D01*
X52608346Y-90873108D01*
X52560727Y-90825489D01*
X52465489Y-90777869D01*
X51703584Y-91777869D02*
X51703584Y-90777869D01*
X51608346Y-91396917D02*
X51322631Y-91777869D01*
X51322631Y-91111203D02*
X51703584Y-91492155D01*
D14*
X53286917Y-93201679D02*
X53453584Y-92963584D01*
X53572631Y-93201679D02*
X53572631Y-92701679D01*
X53382155Y-92701679D01*
X53334536Y-92725489D01*
X53310727Y-92749298D01*
X53286917Y-92796917D01*
X53286917Y-92868346D01*
X53310727Y-92915965D01*
X53334536Y-92939774D01*
X53382155Y-92963584D01*
X53572631Y-92963584D01*
X52858346Y-92868346D02*
X52858346Y-93201679D01*
X52977393Y-92677869D02*
X53096441Y-93035012D01*
X52786917Y-93035012D01*
X52644060Y-92701679D02*
X52310727Y-92701679D01*
X52525012Y-93201679D01*
D11*
%TO.C,R48*%
X54026917Y-94527869D02*
X54598346Y-94527869D01*
X54312631Y-94527869D02*
X54312631Y-93527869D01*
X54407869Y-93670727D01*
X54503108Y-93765965D01*
X54598346Y-93813584D01*
X53407869Y-93527869D02*
X53312631Y-93527869D01*
X53217393Y-93575489D01*
X53169774Y-93623108D01*
X53122155Y-93718346D01*
X53074536Y-93908822D01*
X53074536Y-94146917D01*
X53122155Y-94337393D01*
X53169774Y-94432631D01*
X53217393Y-94480250D01*
X53312631Y-94527869D01*
X53407869Y-94527869D01*
X53503108Y-94480250D01*
X53550727Y-94432631D01*
X53598346Y-94337393D01*
X53645965Y-94146917D01*
X53645965Y-93908822D01*
X53598346Y-93718346D01*
X53550727Y-93623108D01*
X53503108Y-93575489D01*
X53407869Y-93527869D01*
X52455489Y-93527869D02*
X52360250Y-93527869D01*
X52265012Y-93575489D01*
X52217393Y-93623108D01*
X52169774Y-93718346D01*
X52122155Y-93908822D01*
X52122155Y-94146917D01*
X52169774Y-94337393D01*
X52217393Y-94432631D01*
X52265012Y-94480250D01*
X52360250Y-94527869D01*
X52455489Y-94527869D01*
X52550727Y-94480250D01*
X52598346Y-94432631D01*
X52645965Y-94337393D01*
X52693584Y-94146917D01*
X52693584Y-93908822D01*
X52645965Y-93718346D01*
X52598346Y-93623108D01*
X52550727Y-93575489D01*
X52455489Y-93527869D01*
X51693584Y-94527869D02*
X51693584Y-93527869D01*
X51598346Y-94146917D02*
X51312631Y-94527869D01*
X51312631Y-93861203D02*
X51693584Y-94242155D01*
D14*
X53276917Y-95951679D02*
X53443584Y-95713584D01*
X53562631Y-95951679D02*
X53562631Y-95451679D01*
X53372155Y-95451679D01*
X53324536Y-95475489D01*
X53300727Y-95499298D01*
X53276917Y-95546917D01*
X53276917Y-95618346D01*
X53300727Y-95665965D01*
X53324536Y-95689774D01*
X53372155Y-95713584D01*
X53562631Y-95713584D01*
X52848346Y-95618346D02*
X52848346Y-95951679D01*
X52967393Y-95427869D02*
X53086441Y-95785012D01*
X52776917Y-95785012D01*
X52515012Y-95665965D02*
X52562631Y-95642155D01*
X52586441Y-95618346D01*
X52610250Y-95570727D01*
X52610250Y-95546917D01*
X52586441Y-95499298D01*
X52562631Y-95475489D01*
X52515012Y-95451679D01*
X52419774Y-95451679D01*
X52372155Y-95475489D01*
X52348346Y-95499298D01*
X52324536Y-95546917D01*
X52324536Y-95570727D01*
X52348346Y-95618346D01*
X52372155Y-95642155D01*
X52419774Y-95665965D01*
X52515012Y-95665965D01*
X52562631Y-95689774D01*
X52586441Y-95713584D01*
X52610250Y-95761203D01*
X52610250Y-95856441D01*
X52586441Y-95904060D01*
X52562631Y-95927869D01*
X52515012Y-95951679D01*
X52419774Y-95951679D01*
X52372155Y-95927869D01*
X52348346Y-95904060D01*
X52324536Y-95856441D01*
X52324536Y-95761203D01*
X52348346Y-95713584D01*
X52372155Y-95689774D01*
X52419774Y-95665965D01*
D11*
%TO.C,U5*%
X63008018Y-82668669D02*
X62436590Y-82668669D01*
X62722304Y-83668669D02*
X62722304Y-82668669D01*
X61627066Y-83668669D02*
X62103256Y-83668669D01*
X62103256Y-82668669D01*
X61103256Y-82668669D02*
X61008018Y-82668669D01*
X60912780Y-82716289D01*
X60865161Y-82763908D01*
X60817542Y-82859146D01*
X60769923Y-83049622D01*
X60769923Y-83287717D01*
X60817542Y-83478193D01*
X60865161Y-83573431D01*
X60912780Y-83621050D01*
X61008018Y-83668669D01*
X61103256Y-83668669D01*
X61198494Y-83621050D01*
X61246113Y-83573431D01*
X61293732Y-83478193D01*
X61341351Y-83287717D01*
X61341351Y-83049622D01*
X61293732Y-82859146D01*
X61246113Y-82763908D01*
X61198494Y-82716289D01*
X61103256Y-82668669D01*
X60436590Y-82668669D02*
X59769923Y-82668669D01*
X60198494Y-83668669D01*
X59436590Y-82763908D02*
X59388971Y-82716289D01*
X59293732Y-82668669D01*
X59055637Y-82668669D01*
X58960399Y-82716289D01*
X58912780Y-82763908D01*
X58865161Y-82859146D01*
X58865161Y-82954384D01*
X58912780Y-83097241D01*
X59484209Y-83668669D01*
X58865161Y-83668669D01*
X61650875Y-88808669D02*
X61650875Y-89618193D01*
X61603256Y-89713431D01*
X61555637Y-89761050D01*
X61460399Y-89808669D01*
X61269923Y-89808669D01*
X61174685Y-89761050D01*
X61127066Y-89713431D01*
X61079447Y-89618193D01*
X61079447Y-88808669D01*
X60127066Y-88808669D02*
X60603256Y-88808669D01*
X60650875Y-89284860D01*
X60603256Y-89237241D01*
X60508018Y-89189622D01*
X60269923Y-89189622D01*
X60174685Y-89237241D01*
X60127066Y-89284860D01*
X60079447Y-89380098D01*
X60079447Y-89618193D01*
X60127066Y-89713431D01*
X60174685Y-89761050D01*
X60269923Y-89808669D01*
X60508018Y-89808669D01*
X60603256Y-89761050D01*
X60650875Y-89713431D01*
%TO.C,C13*%
X54198346Y-68607869D02*
X54103108Y-68607869D01*
X54007869Y-68655489D01*
X53960250Y-68703108D01*
X53912631Y-68798346D01*
X53865012Y-68988822D01*
X53865012Y-69226917D01*
X53912631Y-69417393D01*
X53960250Y-69512631D01*
X54007869Y-69560250D01*
X54103108Y-69607869D01*
X54198346Y-69607869D01*
X54293584Y-69560250D01*
X54341203Y-69512631D01*
X54388822Y-69417393D01*
X54436441Y-69226917D01*
X54436441Y-68988822D01*
X54388822Y-68798346D01*
X54341203Y-68703108D01*
X54293584Y-68655489D01*
X54198346Y-68607869D01*
X53436441Y-69512631D02*
X53388822Y-69560250D01*
X53436441Y-69607869D01*
X53484060Y-69560250D01*
X53436441Y-69512631D01*
X53436441Y-69607869D01*
X52436441Y-69607869D02*
X53007869Y-69607869D01*
X52722155Y-69607869D02*
X52722155Y-68607869D01*
X52817393Y-68750727D01*
X52912631Y-68845965D01*
X53007869Y-68893584D01*
X51579298Y-68941203D02*
X51579298Y-69607869D01*
X52007869Y-68941203D02*
X52007869Y-69465012D01*
X51960250Y-69560250D01*
X51865012Y-69607869D01*
X51722155Y-69607869D01*
X51626917Y-69560250D01*
X51579298Y-69512631D01*
X50769774Y-69084060D02*
X51103108Y-69084060D01*
X51103108Y-69607869D02*
X51103108Y-68607869D01*
X50626917Y-68607869D01*
D12*
X52941203Y-71419774D02*
X52969774Y-71448346D01*
X53055489Y-71476917D01*
X53112631Y-71476917D01*
X53198346Y-71448346D01*
X53255489Y-71391203D01*
X53284060Y-71334060D01*
X53312631Y-71219774D01*
X53312631Y-71134060D01*
X53284060Y-71019774D01*
X53255489Y-70962631D01*
X53198346Y-70905489D01*
X53112631Y-70876917D01*
X53055489Y-70876917D01*
X52969774Y-70905489D01*
X52941203Y-70934060D01*
X52369774Y-71476917D02*
X52712631Y-71476917D01*
X52541203Y-71476917D02*
X52541203Y-70876917D01*
X52598346Y-70962631D01*
X52655489Y-71019774D01*
X52712631Y-71048346D01*
X52169774Y-70876917D02*
X51798346Y-70876917D01*
X51998346Y-71105489D01*
X51912631Y-71105489D01*
X51855489Y-71134060D01*
X51826917Y-71162631D01*
X51798346Y-71219774D01*
X51798346Y-71362631D01*
X51826917Y-71419774D01*
X51855489Y-71448346D01*
X51912631Y-71476917D01*
X52084060Y-71476917D01*
X52141203Y-71448346D01*
X52169774Y-71419774D01*
D15*
%TO.C,C1*%
X89316989Y-133496517D02*
X89946989Y-133496517D01*
X89631989Y-133181517D02*
X89631989Y-133811517D01*
X94155489Y-135875489D02*
G75*
G03*
X94155489Y-135875489I-3150000J0D01*
G01*
%TO.C,C2*%
X64113989Y-137854461D02*
X63483989Y-137854461D01*
X63798989Y-138169461D02*
X63798989Y-137539461D01*
X65575489Y-135475489D02*
G75*
G03*
X65575489Y-135475489I-3150000J0D01*
G01*
%TO.C,C3*%
X97065489Y-76015800D02*
X95465489Y-76015800D01*
X97065489Y-73015800D02*
X97065489Y-76015800D01*
X95465489Y-76015800D02*
X95465489Y-73015800D01*
X95465489Y-73015800D02*
X97065489Y-73015800D01*
%TO.C,C4*%
X68880489Y-113824429D02*
X67280489Y-113824429D01*
X68880489Y-110824429D02*
X68880489Y-113824429D01*
X67280489Y-113824429D02*
X67280489Y-110824429D01*
X67280489Y-110824429D02*
X68880489Y-110824429D01*
%TO.C,C5*%
X63078971Y-95106289D02*
X63078971Y-96706289D01*
X60078971Y-95106289D02*
X63078971Y-95106289D01*
X63078971Y-96706289D02*
X60078971Y-96706289D01*
X60078971Y-96706289D02*
X60078971Y-95106289D01*
%TO.C,C6*%
X81195489Y-72845800D02*
X82795489Y-72845800D01*
X82795489Y-72845800D02*
X82795489Y-75845800D01*
X81195489Y-75845800D02*
X81195489Y-72845800D01*
X82795489Y-75845800D02*
X81195489Y-75845800D01*
%TO.C,C7*%
X53370489Y-110004429D02*
X53370489Y-107004429D01*
X53370489Y-107004429D02*
X54970489Y-107004429D01*
X54970489Y-107004429D02*
X54970489Y-110004429D01*
X54970489Y-110004429D02*
X53370489Y-110004429D01*
%TO.C,C8*%
X54878971Y-82406289D02*
X54878971Y-85406289D01*
X54878971Y-85406289D02*
X53278971Y-85406289D01*
X53278971Y-85406289D02*
X53278971Y-82406289D01*
X53278971Y-82406289D02*
X54878971Y-82406289D01*
%TO.C,C9*%
X89905489Y-84505800D02*
X89905489Y-82905800D01*
X92905489Y-84505800D02*
X89905489Y-84505800D01*
X92905489Y-82905800D02*
X92905489Y-84505800D01*
X89905489Y-82905800D02*
X92905489Y-82905800D01*
%TO.C,C10*%
X95893384Y-118167904D02*
X97493384Y-118167904D01*
X97493384Y-121167904D02*
X95893384Y-121167904D01*
X97493384Y-118167904D02*
X97493384Y-121167904D01*
X95893384Y-121167904D02*
X95893384Y-118167904D01*
%TO.C,C11*%
X94115489Y-100525489D02*
X92515489Y-100525489D01*
X92515489Y-97525489D02*
X94115489Y-97525489D01*
X92515489Y-100525489D02*
X92515489Y-97525489D01*
X94115489Y-97525489D02*
X94115489Y-100525489D01*
%TO.C,D1*%
X98650021Y-138582643D02*
X97101365Y-136370933D01*
X100803932Y-133778367D02*
X102352589Y-135990078D01*
X100722017Y-133835725D02*
X102270674Y-136047435D01*
X104166781Y-133071721D02*
X102135284Y-134494191D01*
X101360956Y-133388335D02*
X102909612Y-135600046D01*
X102909612Y-135600046D02*
X98650021Y-138582643D01*
X100640102Y-133893083D02*
X102188758Y-136104793D01*
X95844196Y-138899258D02*
X97875693Y-137476788D01*
X97101365Y-136370933D02*
X101360956Y-133388335D01*
%TO.C,D3*%
X95865489Y-64875800D02*
X96265489Y-64475800D01*
X95865489Y-67675800D02*
X95865489Y-64875800D01*
X96265489Y-64475800D02*
X97465489Y-64475800D01*
X97465489Y-64475800D02*
X97465489Y-67675800D01*
X97465489Y-67675800D02*
X95865489Y-67675800D01*
%TO.C,D5*%
X55370053Y-135606355D02*
X54020053Y-137944623D01*
X55543258Y-135706355D02*
X54193258Y-138044623D01*
X55456655Y-135656355D02*
X54106655Y-137994623D01*
X48806080Y-133375489D02*
X50953823Y-134615489D01*
X54782155Y-138384623D02*
X50278823Y-135784623D01*
X57604898Y-138455489D02*
X55457155Y-137215489D01*
X56132155Y-136046355D02*
X54782155Y-138384623D01*
X50278823Y-135784623D02*
X51628823Y-133446355D01*
X51628823Y-133446355D02*
X56132155Y-136046355D01*
%TO.C,D6*%
X64397989Y-60880969D02*
X61597989Y-60880969D01*
X61597989Y-60880969D02*
X61197989Y-60480969D01*
X61197989Y-59280969D02*
X64397989Y-59280969D01*
X61197989Y-60480969D02*
X61197989Y-59280969D01*
X64397989Y-59280969D02*
X64397989Y-60880969D01*
%TO.C,D7*%
X69465489Y-104775489D02*
X69465489Y-101575489D01*
X71065489Y-101575489D02*
X71065489Y-104375489D01*
X71065489Y-104375489D02*
X70665489Y-104775489D01*
X70665489Y-104775489D02*
X69465489Y-104775489D01*
X69465489Y-101575489D02*
X71065489Y-101575489D01*
%TO.C,D10*%
X80017989Y-66000969D02*
X80017989Y-68800969D01*
X78417989Y-69200969D02*
X78417989Y-66000969D01*
X80017989Y-68800969D02*
X79617989Y-69200969D01*
X79617989Y-69200969D02*
X78417989Y-69200969D01*
X78417989Y-66000969D02*
X80017989Y-66000969D01*
%TO.C,D11*%
X70205489Y-127165489D02*
X70205489Y-125565489D01*
X70205489Y-125565489D02*
X73005489Y-125565489D01*
X73005489Y-125565489D02*
X73405489Y-125965489D01*
X73405489Y-127165489D02*
X70205489Y-127165489D01*
X73405489Y-125965489D02*
X73405489Y-127165489D01*
%TO.C,D12*%
X65065489Y-123435489D02*
X65065489Y-122235489D01*
X65065489Y-122235489D02*
X68265489Y-122235489D01*
X68265489Y-123835489D02*
X65465489Y-123835489D01*
X65465489Y-123835489D02*
X65065489Y-123435489D01*
X68265489Y-122235489D02*
X68265489Y-123835489D01*
%TO.C,D13*%
X65225489Y-125495489D02*
X68425489Y-125495489D01*
X68425489Y-125495489D02*
X68425489Y-127095489D01*
X65225489Y-126695489D02*
X65225489Y-125495489D01*
X65625489Y-127095489D02*
X65225489Y-126695489D01*
X68425489Y-127095489D02*
X65625489Y-127095489D01*
%TO.C,J1*%
X66490489Y-140310489D02*
X67030489Y-139760489D01*
X66490489Y-140310489D02*
X66490489Y-131460489D01*
X86850489Y-131460489D02*
X86290489Y-132010489D01*
X66490489Y-131460489D02*
X67030489Y-132010489D01*
X86850489Y-140310489D02*
X86290489Y-139760489D01*
X78920489Y-132010489D02*
X86290489Y-132010489D01*
X66490489Y-140310489D02*
X86850489Y-140310489D01*
X67030489Y-139760489D02*
X67030489Y-132010489D01*
X86850489Y-140310489D02*
X86850489Y-131460489D01*
X67030489Y-139760489D02*
X86290489Y-139760489D01*
X66490489Y-131460489D02*
X86850489Y-131460489D01*
X74420489Y-132010489D02*
X74420489Y-131460489D01*
X78920489Y-132010489D02*
X78920489Y-131460489D01*
X67030489Y-132010489D02*
X74420489Y-132010489D01*
X86290489Y-139760489D02*
X86290489Y-132010489D01*
%TO.C,Q1*%
X92355489Y-59295489D02*
X92355489Y-55795489D01*
X92351864Y-59309114D02*
G75*
G03*
X96585489Y-57555489I1753625J1753625D01*
G01*
X96585489Y-57555489D02*
G75*
G03*
X92351864Y-55801864I-2480000J0D01*
G01*
%TO.C,Q2*%
X78399239Y-59425489D02*
X78399239Y-55925489D01*
X82629239Y-57685489D02*
G75*
G03*
X78395614Y-55931864I-2480000J0D01*
G01*
X78395614Y-59439114D02*
G75*
G03*
X82629239Y-57685489I1753625J1753625D01*
G01*
%TO.C,R1*%
X67005489Y-103154429D02*
X67005489Y-105154429D01*
X68255489Y-103154429D02*
X67005489Y-103154429D01*
X67005489Y-105154429D02*
X68255489Y-105154429D01*
X68255489Y-105154429D02*
X68255489Y-103154429D01*
%TO.C,R2*%
X95375489Y-80400800D02*
X95375489Y-81650800D01*
X95375489Y-81650800D02*
X97375489Y-81650800D01*
X97375489Y-81650800D02*
X97375489Y-80400800D01*
X97375489Y-80400800D02*
X95375489Y-80400800D01*
%TO.C,R3*%
X101560489Y-125075489D02*
X101560489Y-127075489D01*
X101560489Y-127075489D02*
X102810489Y-127075489D01*
X102810489Y-127075489D02*
X102810489Y-125075489D01*
X102810489Y-125075489D02*
X101560489Y-125075489D01*
%TO.C,R4*%
X95415489Y-77660800D02*
X95415489Y-78910800D01*
X97415489Y-77660800D02*
X95415489Y-77660800D01*
X97415489Y-78910800D02*
X97415489Y-77660800D01*
X95415489Y-78910800D02*
X97415489Y-78910800D01*
%TO.C,R6*%
X98640489Y-80225800D02*
X99890489Y-80225800D01*
X99890489Y-78225800D02*
X98640489Y-78225800D01*
X99890489Y-80225800D02*
X99890489Y-78225800D01*
X98640489Y-78225800D02*
X98640489Y-80225800D01*
%TO.C,R7*%
X97100489Y-69555800D02*
X95850489Y-69555800D01*
X95850489Y-71555800D02*
X97100489Y-71555800D01*
X97100489Y-71555800D02*
X97100489Y-69555800D01*
X95850489Y-69555800D02*
X95850489Y-71555800D01*
%TO.C,R8*%
X97980489Y-75715800D02*
X99230489Y-75715800D01*
X99230489Y-75715800D02*
X99230489Y-73715800D01*
X99230489Y-73715800D02*
X97980489Y-73715800D01*
X97980489Y-73715800D02*
X97980489Y-75715800D01*
%TO.C,R10*%
X81520489Y-78395489D02*
X81520489Y-80395489D01*
X81520489Y-80395489D02*
X82770489Y-80395489D01*
X82770489Y-78395489D02*
X81520489Y-78395489D01*
X82770489Y-80395489D02*
X82770489Y-78395489D01*
%TO.C,R11*%
X67660489Y-116165489D02*
X67660489Y-118165489D01*
X68910489Y-118165489D02*
X68910489Y-116165489D01*
X68910489Y-116165489D02*
X67660489Y-116165489D01*
X67660489Y-118165489D02*
X68910489Y-118165489D01*
%TO.C,R12*%
X57137989Y-59325969D02*
X57137989Y-60575969D01*
X57137989Y-60575969D02*
X59137989Y-60575969D01*
X59137989Y-59325969D02*
X57137989Y-59325969D01*
X59137989Y-60575969D02*
X59137989Y-59325969D01*
%TO.C,R13*%
X69887989Y-59835969D02*
X69887989Y-61085969D01*
X69887989Y-61085969D02*
X71887989Y-61085969D01*
X71887989Y-61085969D02*
X71887989Y-59835969D01*
X71887989Y-59835969D02*
X69887989Y-59835969D01*
%TO.C,R17*%
X65837989Y-59835969D02*
X65837989Y-61085969D01*
X67837989Y-61085969D02*
X67837989Y-59835969D01*
X65837989Y-61085969D02*
X67837989Y-61085969D01*
X67837989Y-59835969D02*
X65837989Y-59835969D01*
%TO.C,R18*%
X70045489Y-57760489D02*
X68045489Y-57760489D01*
X68045489Y-57760489D02*
X68045489Y-59010489D01*
X68045489Y-59010489D02*
X70045489Y-59010489D01*
X70045489Y-59010489D02*
X70045489Y-57760489D01*
%TO.C,R22*%
X55730489Y-95355489D02*
X55730489Y-97355489D01*
X56980489Y-97355489D02*
X56980489Y-95355489D01*
X55730489Y-97355489D02*
X56980489Y-97355489D01*
X56980489Y-95355489D02*
X55730489Y-95355489D01*
%TO.C,R23*%
X54855489Y-104214429D02*
X54855489Y-102214429D01*
X53605489Y-104214429D02*
X54855489Y-104214429D01*
X53605489Y-102214429D02*
X53605489Y-104214429D01*
X54855489Y-102214429D02*
X53605489Y-102214429D01*
%TO.C,R24*%
X81660489Y-65545489D02*
X81660489Y-67545489D01*
X82910489Y-65545489D02*
X81660489Y-65545489D01*
X81660489Y-67545489D02*
X82910489Y-67545489D01*
X82910489Y-67545489D02*
X82910489Y-65545489D01*
%TO.C,R26*%
X60010489Y-122875489D02*
X60010489Y-120875489D01*
X58760489Y-122875489D02*
X60010489Y-122875489D01*
X58760489Y-120875489D02*
X58760489Y-122875489D01*
X60010489Y-120875489D02*
X58760489Y-120875489D01*
%TO.C,R27*%
X74255489Y-99090489D02*
X72255489Y-99090489D01*
X72255489Y-99090489D02*
X72255489Y-100340489D01*
X72255489Y-100340489D02*
X74255489Y-100340489D01*
X74255489Y-100340489D02*
X74255489Y-99090489D01*
%TO.C,R28*%
X50860489Y-104285489D02*
X52110489Y-104285489D01*
X50860489Y-102285489D02*
X50860489Y-104285489D01*
X52110489Y-104285489D02*
X52110489Y-102285489D01*
X52110489Y-102285489D02*
X50860489Y-102285489D01*
%TO.C,R29*%
X96348384Y-107407904D02*
X96348384Y-105407904D01*
X95098384Y-105407904D02*
X95098384Y-107407904D01*
X95098384Y-107407904D02*
X96348384Y-107407904D01*
X96348384Y-105407904D02*
X95098384Y-105407904D01*
%TO.C,R30*%
X70425489Y-100370489D02*
X70425489Y-99120489D01*
X70425489Y-99120489D02*
X68425489Y-99120489D01*
X68425489Y-99120489D02*
X68425489Y-100370489D01*
X68425489Y-100370489D02*
X70425489Y-100370489D01*
%TO.C,R31*%
X89265489Y-56780489D02*
X89265489Y-58030489D01*
X91265489Y-56780489D02*
X89265489Y-56780489D01*
X91265489Y-58030489D02*
X91265489Y-56780489D01*
X89265489Y-58030489D02*
X91265489Y-58030489D01*
%TO.C,R33*%
X52640489Y-114179429D02*
X52640489Y-115429429D01*
X54640489Y-114179429D02*
X52640489Y-114179429D01*
X52640489Y-115429429D02*
X54640489Y-115429429D01*
X54640489Y-115429429D02*
X54640489Y-114179429D01*
%TO.C,R34*%
X52640489Y-111779429D02*
X52640489Y-113029429D01*
X52640489Y-113029429D02*
X54640489Y-113029429D01*
X54640489Y-113029429D02*
X54640489Y-111779429D01*
X54640489Y-111779429D02*
X52640489Y-111779429D01*
%TO.C,R35*%
X96018384Y-109835404D02*
X96018384Y-111835404D01*
X96018384Y-111835404D02*
X97268384Y-111835404D01*
X97268384Y-111835404D02*
X97268384Y-109835404D01*
X97268384Y-109835404D02*
X96018384Y-109835404D01*
%TO.C,R38*%
X74079239Y-56970489D02*
X74079239Y-58220489D01*
X74079239Y-58220489D02*
X76079239Y-58220489D01*
X76079239Y-58220489D02*
X76079239Y-56970489D01*
X76079239Y-56970489D02*
X74079239Y-56970489D01*
%TO.C,R40*%
X75602989Y-71890969D02*
X75602989Y-69890969D01*
X74352989Y-69890969D02*
X74352989Y-71890969D01*
X75602989Y-69890969D02*
X74352989Y-69890969D01*
X74352989Y-71890969D02*
X75602989Y-71890969D01*
%TO.C,R41*%
X74282989Y-66280969D02*
X74282989Y-68280969D01*
X74282989Y-68280969D02*
X75532989Y-68280969D01*
X75532989Y-66280969D02*
X74282989Y-66280969D01*
X75532989Y-68280969D02*
X75532989Y-66280969D01*
%TO.C,R42*%
X85295489Y-58030489D02*
X87295489Y-58030489D01*
X87295489Y-56780489D02*
X85295489Y-56780489D01*
X85295489Y-56780489D02*
X85295489Y-58030489D01*
X87295489Y-58030489D02*
X87295489Y-56780489D01*
%TO.C,R43*%
X75492989Y-62660969D02*
X74242989Y-62660969D01*
X74242989Y-64660969D02*
X75492989Y-64660969D01*
X74242989Y-62660969D02*
X74242989Y-64660969D01*
X75492989Y-64660969D02*
X75492989Y-62660969D01*
%TO.C,R44*%
X96058384Y-115897904D02*
X97308384Y-115897904D01*
X97308384Y-115897904D02*
X97308384Y-113897904D01*
X97308384Y-113897904D02*
X96058384Y-113897904D01*
X96058384Y-113897904D02*
X96058384Y-115897904D01*
%TO.C,U1*%
X90990489Y-64195800D02*
X85640489Y-64195800D01*
X83735489Y-82035800D02*
X83735489Y-64135800D01*
X91990489Y-65195800D02*
X90990489Y-64195800D01*
X93895489Y-64135800D02*
X93895489Y-82035800D01*
X91990489Y-81975800D02*
X91990489Y-65195800D01*
X85640489Y-64195800D02*
X85640489Y-81975800D01*
X93895489Y-82035800D02*
X83735489Y-82035800D01*
X85640489Y-81975800D02*
X91990489Y-81975800D01*
X83735489Y-64135800D02*
X93895489Y-64135800D01*
%TO.C,U2*%
X62980489Y-102030489D02*
X57630489Y-102030489D01*
X63980489Y-119810489D02*
X63980489Y-103030489D01*
X65885489Y-101970489D02*
X65885489Y-119870489D01*
X57630489Y-102030489D02*
X57630489Y-119810489D01*
X55725489Y-119870489D02*
X55725489Y-101970489D01*
X63980489Y-103030489D02*
X62980489Y-102030489D01*
X55725489Y-101970489D02*
X65885489Y-101970489D01*
X57630489Y-119810489D02*
X63980489Y-119810489D01*
X65885489Y-119870489D02*
X55725489Y-119870489D01*
%TO.C,U3*%
X55532989Y-72400969D02*
X55532989Y-62240969D01*
X73372989Y-64145969D02*
X56592989Y-64145969D01*
X56592989Y-64145969D02*
X55592989Y-65145969D01*
X55532989Y-62240969D02*
X73432989Y-62240969D01*
X73432989Y-72400969D02*
X55532989Y-72400969D01*
X55592989Y-65145969D02*
X55592989Y-70495969D01*
X73432989Y-62240969D02*
X73432989Y-72400969D01*
X55592989Y-70495969D02*
X73372989Y-70495969D01*
X73372989Y-70495969D02*
X73372989Y-64145969D01*
%TO.C,U4*%
X94543384Y-122247904D02*
X84383384Y-122247904D01*
X92638384Y-122187904D02*
X92638384Y-102867904D01*
X91638384Y-101867904D02*
X86288384Y-101867904D01*
X86288384Y-101867904D02*
X86288384Y-122187904D01*
X94543384Y-101807904D02*
X94543384Y-122247904D01*
X84383384Y-101807904D02*
X94543384Y-101807904D01*
X92638384Y-102867904D02*
X91638384Y-101867904D01*
X86288384Y-122187904D02*
X92638384Y-122187904D01*
X84383384Y-122247904D02*
X84383384Y-101807904D01*
%TO.C,D4*%
X78385489Y-125565489D02*
X78385489Y-127165489D01*
X75585489Y-127165489D02*
X75185489Y-126765489D01*
X78385489Y-127165489D02*
X75585489Y-127165489D01*
X75185489Y-125565489D02*
X78385489Y-125565489D01*
X75185489Y-126765489D02*
X75185489Y-125565489D01*
%TO.C,C12*%
X52717989Y-66410969D02*
X51117989Y-66410969D01*
X51117989Y-66410969D02*
X51117989Y-63410969D01*
X51117989Y-63410969D02*
X52717989Y-63410969D01*
X52717989Y-63410969D02*
X52717989Y-66410969D01*
%TO.C,R47*%
X53965489Y-92350489D02*
X51965489Y-92350489D01*
X51965489Y-93600489D02*
X53965489Y-93600489D01*
X53965489Y-93600489D02*
X53965489Y-92350489D01*
X51965489Y-92350489D02*
X51965489Y-93600489D01*
%TO.C,R48*%
X53955489Y-95100489D02*
X51955489Y-95100489D01*
X53955489Y-96350489D02*
X53955489Y-95100489D01*
X51955489Y-96350489D02*
X53955489Y-96350489D01*
X51955489Y-95100489D02*
X51955489Y-96350489D01*
%TO.C,U5*%
X55808971Y-94496289D02*
X55808971Y-84216289D01*
X55808971Y-84216289D02*
X65968971Y-84216289D01*
X65968971Y-94496289D02*
X55808971Y-94496289D01*
X64063971Y-84276289D02*
X57713971Y-84276289D01*
X64063971Y-94436289D02*
X64063971Y-84276289D01*
X57713971Y-93436289D02*
X58713971Y-94436289D01*
X57713971Y-84276289D02*
X57713971Y-93436289D01*
X65968971Y-84216289D02*
X65968971Y-94496289D01*
X58713971Y-94436289D02*
X64063971Y-94436289D01*
%TO.C,C13*%
X51055489Y-72005489D02*
X51055489Y-70405489D01*
X51055489Y-70405489D02*
X54055489Y-70405489D01*
X54055489Y-70405489D02*
X54055489Y-72005489D01*
X54055489Y-72005489D02*
X51055489Y-72005489D01*
%TD*%
M02*
